<svg version="1.1" viewBox="0.0 0.0 600.0 371.0" fill="none" stroke="none" stroke-linecap="square" stroke-miterlimit="10" width="600" height="371" xmlns:xlink="http://www.w3.org/1999/xlink" xmlns="http://www.w3.org/2000/svg"><path fill="#ffffff" d="M0 0L600.0 0L600.0 371.0L0 371.0L0 0Z" fill-rule="nonzero"/><path stroke="#cccccc" stroke-width="1.0" stroke-linecap="butt" d="M113.5 61.5L113.5 300.5" fill-rule="nonzero"/><path stroke="#cccccc" stroke-width="1.0" stroke-linecap="butt" d="M210.5 61.5L210.5 300.5" fill-rule="nonzero"/><path stroke="#cccccc" stroke-width="1.0" stroke-linecap="butt" d="M306.5 61.5L306.5 300.5" fill-rule="nonzero"/><path stroke="#cccccc" stroke-width="1.0" stroke-linecap="butt" d="M403.5 61.5L403.5 300.5" fill-rule="nonzero"/><path stroke="#cccccc" stroke-width="1.0" stroke-linecap="butt" d="M499.5 61.5L499.5 300.5" fill-rule="nonzero"/><path stroke="#333333" stroke-width="1.0" stroke-linecap="butt" d="M87.5 300.5L581.5 300.5" fill-rule="nonzero"/><path stroke="#cccccc" stroke-width="1.0" stroke-linecap="butt" d="M87.5 252.5L581.5 252.5" fill-rule="nonzero"/><path stroke="#cccccc" stroke-width="1.0" stroke-linecap="butt" d="M87.5 205.5L581.5 205.5" fill-rule="nonzero"/><path stroke="#cccccc" stroke-width="1.0" stroke-linecap="butt" d="M87.5 157.5L581.5 157.5" fill-rule="nonzero"/><path stroke="#cccccc" stroke-width="1.0" stroke-linecap="butt" d="M87.5 109.5L581.5 109.5" fill-rule="nonzero"/><path stroke="#cccccc" stroke-width="1.0" stroke-linecap="butt" d="M87.5 61.5L581.5 61.5" fill-rule="nonzero"/><clipPath id="id_0"><path d="M87.55 61.916668L581.45 61.916668L581.45 300.45L87.55 300.45L87.55 61.916668Z" clip-rule="nonzero"/></clipPath><path stroke="#4285f4" stroke-width="2.0" stroke-linecap="butt" clip-path="url(#id_0)" d="M87.55 74.85047L158.24512 74.85047L228.74707 74.85047L299.24902 144.26572L369.75098 144.26572L440.25293 144.26572L510.94806 192.45023L581.45 192.45023" fill-rule="nonzero"/><path fill="#000000" fill-opacity="0.0" clip-path="url(#id_0)" d="M90.55 74.85047C90.55 76.50733 89.206856 77.85047 87.55 77.85047C85.89314 77.85047 84.55 76.50733 84.55 74.85047C84.55 73.19362 85.89314 71.85047 87.55 71.85047C89.206856 71.85047 90.55 73.19362 90.55 74.85047Z" fill-rule="nonzero"/><path fill="#000000" fill-opacity="0.0" clip-path="url(#id_0)" d="M161.24512 74.85047C161.24512 76.50733 159.90196 77.85047 158.24512 77.85047C156.58826 77.85047 155.24512 76.50733 155.24512 74.85047C155.24512 73.19362 156.58826 71.85047 158.24512 71.85047C159.90196 71.85047 161.24512 73.19362 161.24512 74.85047Z" fill-rule="nonzero"/><path fill="#000000" fill-opacity="0.0" clip-path="url(#id_0)" d="M231.74707 74.85047C231.74707 76.50733 230.40392 77.85047 228.74707 77.85047C227.09021 77.85047 225.74707 76.50733 225.74707 74.85047C225.74707 73.19362 227.09021 71.85047 228.74707 71.85047C230.40392 71.85047 231.74707 73.19362 231.74707 74.85047Z" fill-rule="nonzero"/><path fill="#000000" fill-opacity="0.0" clip-path="url(#id_0)" d="M302.24902 144.26572C302.24902 145.92256 300.90588 147.26572 299.24902 147.26572C297.59216 147.26572 296.24902 145.92256 296.24902 144.26572C296.24902 142.60886 297.59216 141.26572 299.24902 141.26572C300.90588 141.26572 302.24902 142.60886 302.24902 144.26572Z" fill-rule="nonzero"/><path fill="#000000" fill-opacity="0.0" clip-path="url(#id_0)" d="M372.75098 144.26572C372.75098 145.92256 371.40784 147.26572 369.75098 147.26572C368.09412 147.26572 366.75098 145.92256 366.75098 144.26572C366.75098 142.60886 368.09412 141.26572 369.75098 141.26572C371.40784 141.26572 372.75098 142.60886 372.75098 144.26572Z" fill-rule="nonzero"/><path fill="#000000" fill-opacity="0.0" clip-path="url(#id_0)" d="M443.25293 144.26572C443.25293 145.92256 441.9098 147.26572 440.25293 147.26572C438.59607 147.26572 437.25293 145.92256 437.25293 144.26572C437.25293 142.60886 438.59607 141.26572 440.25293 141.26572C441.9098 141.26572 443.25293 142.60886 443.25293 144.26572Z" fill-rule="nonzero"/><path fill="#000000" fill-opacity="0.0" clip-path="url(#id_0)" d="M513.94806 192.45023C513.94806 194.10709 512.6049 195.45023 510.94806 195.45023C509.2912 195.45023 507.94806 194.10709 507.94806 192.45023C507.94806 190.79337 509.2912 189.45023 510.94806 189.45023C512.6049 189.45023 513.94806 190.79337 513.94806 192.45023Z" fill-rule="nonzero"/><path fill="#000000" fill-opacity="0.0" clip-path="url(#id_0)" d="M584.45 192.45023C584.45 194.10709 583.1069 195.45023 581.45 195.45023C579.79315 195.45023 578.45 194.10709 578.45 192.45023C578.45 190.79337 579.79315 189.45023 581.45 189.45023C583.1069 189.45023 584.45 190.79337 584.45 192.45023Z" fill-rule="nonzero"/><path fill="#000000" d="M304.82812 349.45L304.82812 348.66876Q304.23438 349.59064 303.09375 349.59064Q302.34375 349.59064 301.71875 349.1844Q301.09375 348.7625 300.75 348.02814Q300.40625 347.29376 300.40625 346.34064Q300.40625 345.41876 300.71875 344.65314Q301.03125 343.8875 301.65625 343.4969Q302.28125 343.09064 303.04688 343.09064Q303.60938 343.09064 304.04688 343.325Q304.48438 343.5594 304.76562 343.9344L304.76562 340.85626L305.8125 340.85626L305.8125 349.45L304.82812 349.45ZM301.5 346.34064Q301.5 347.54376 302.0 348.1375Q302.5 348.71564 303.1875 348.71564Q303.875 348.71564 304.35938 348.15314Q304.84375 347.59064 304.84375 346.4344Q304.84375 345.15314 304.34375 344.5594Q303.85938 343.96564 303.14062 343.96564Q302.4375 343.96564 301.96875 344.54376Q301.5 345.10626 301.5 346.34064ZM307.79688 342.075L307.79688 340.85626L308.85938 340.85626L308.85938 342.075L307.79688 342.075ZM307.79688 349.45L307.79688 343.23126L308.85938 343.23126L308.85938 349.45L307.79688 349.45ZM310.375 347.59064L311.40625 347.4344Q311.5 348.0594 311.89062 348.3875Q312.29688 348.71564 313.03125 348.71564Q313.75 348.71564 314.09375 348.4344Q314.45312 348.1375 314.45312 347.73126Q314.45312 347.3719 314.14062 347.16876Q313.92188 347.02814 313.0625 346.8094Q311.90625 346.5125 311.45312 346.3094Q311.01562 346.09064 310.78125 345.71564Q310.54688 345.34064 310.54688 344.8719Q310.54688 344.46564 310.73438 344.10626Q310.92188 343.7469 311.25 343.5125Q311.5 343.34064 311.92188 343.21564Q312.34375 343.09064 312.84375 343.09064Q313.5625 343.09064 314.10938 343.3094Q314.67188 343.5125 314.9375 343.8719Q315.20312 344.23126 315.29688 344.825L314.26562 344.96564Q314.20312 344.4969 313.85938 344.23126Q313.53125 343.95 312.90625 343.95Q312.1875 343.95 311.875 344.2Q311.5625 344.4344 311.5625 344.7625Q311.5625 344.96564 311.6875 345.1219Q311.82812 345.29376 312.09375 345.40314Q312.25 345.46564 313.03125 345.66876Q314.15625 345.98126 314.59375 346.16876Q315.03125 346.35626 315.28125 346.71564Q315.53125 347.075 315.53125 347.6219Q315.53125 348.15314 315.21875 348.6219Q314.92188 349.075 314.34375 349.34064Q313.76562 349.59064 313.03125 349.59064Q311.8125 349.59064 311.17188 349.09064Q310.54688 348.575 310.375 347.59064ZM320.09375 348.5125L320.25 349.4344Q319.79688 349.52814 319.45312 349.52814Q318.875 349.52814 318.5625 349.35626Q318.25 349.16876 318.10938 348.8719Q317.98438 348.575 317.98438 347.6219L317.98438 344.04376L317.21875 344.04376L317.21875 343.23126L317.98438 343.23126L317.98438 341.6844L319.03125 341.0594L319.03125 343.23126L320.09375 343.23126L320.09375 344.04376L319.03125 344.04376L319.03125 347.6844Q319.03125 348.1375 319.07812 348.2625Q319.14062 348.3875 319.26562 348.46564Q319.39062 348.54376 319.625 348.54376Q319.8125 348.54376 320.09375 348.5125ZM324.85938 348.6844Q324.26562 349.1844 323.71875 349.3875Q323.1875 349.59064 322.5625 349.59064Q321.53125 349.59064 320.98438 349.09064Q320.4375 348.59064 320.4375 347.8094Q320.4375 347.35626 320.64062 346.98126Q320.84375 346.59064 321.1875 346.3719Q321.53125 346.1375 321.95312 346.02814Q322.25 345.9344 322.89062 345.85626Q324.15625 345.71564 324.76562 345.4969Q324.76562 345.27814 324.76562 345.23126Q324.76562 344.575 324.46875 344.3094Q324.0625 343.96564 323.26562 343.96564Q322.53125 343.96564 322.17188 344.23126Q321.8125 344.48126 321.64062 345.1375L320.60938 344.9969Q320.75 344.34064 321.07812 343.9344Q321.40625 343.52814 322.01562 343.3094Q322.625 343.09064 323.42188 343.09064Q324.21875 343.09064 324.71875 343.27814Q325.21875 343.46564 325.45312 343.7469Q325.6875 344.02814 325.78125 344.46564Q325.82812 344.73126 325.82812 345.4344L325.82812 346.84064Q325.82812 348.3094 325.89062 348.7Q325.96875 349.09064 326.17188 349.45L325.0625 349.45Q324.90625 349.1219 324.85938 348.6844ZM324.76562 346.325Q324.1875 346.5594 323.04688 346.73126Q322.39062 346.825 322.125 346.95Q321.85938 347.0594 321.70312 347.27814Q321.5625 347.4969 321.5625 347.77814Q321.5625 348.2 321.875 348.48126Q322.20312 348.7625 322.8125 348.7625Q323.42188 348.7625 323.89062 348.4969Q324.375 348.23126 324.59375 347.7625Q324.76562 347.40314 324.76562 346.71564L324.76562 346.325ZM327.79688 349.45L327.79688 343.23126L328.73438 343.23126L328.73438 344.10626Q329.42188 343.09064 330.71875 343.09064Q331.28125 343.09064 331.75 343.29376Q332.23438 343.4969 332.46875 343.825Q332.70312 344.15314 332.79688 344.59064Q332.84375 344.8875 332.84375 345.6219L332.84375 349.45L331.79688 349.45L331.79688 345.66876Q331.79688 345.0125 331.67188 344.7Q331.54688 344.3875 331.23438 344.2Q330.92188 343.9969 330.5 343.9969Q329.82812 343.9969 329.32812 344.4344Q328.84375 344.85626 328.84375 346.04376L328.84375 349.45L327.79688 349.45ZM338.85938 347.16876L339.89062 347.3094Q339.71875 348.3719 339.01562 348.98126Q338.3125 349.59064 337.29688 349.59064Q336.01562 349.59064 335.23438 348.7625Q334.46875 347.91876 334.46875 346.35626Q334.46875 345.35626 334.79688 344.60626Q335.14062 343.84064 335.8125 343.46564Q336.5 343.09064 337.3125 343.09064Q338.3125 343.09064 338.95312 343.60626Q339.60938 344.10626 339.79688 345.0594L338.76562 345.21564Q338.625 344.59064 338.25 344.27814Q337.875 343.95 337.34375 343.95Q336.54688 343.95 336.04688 344.52814Q335.54688 345.09064 335.54688 346.325Q335.54688 347.59064 336.03125 348.15314Q336.51562 348.71564 337.28125 348.71564Q337.90625 348.71564 338.3125 348.34064Q338.73438 347.96564 338.85938 347.16876ZM345.04688 347.45L346.14062 347.575Q345.89062 348.52814 345.1875 349.0594Q344.48438 349.59064 343.40625 349.59064Q342.04688 349.59064 341.23438 348.7469Q340.4375 347.90314 340.4375 346.3875Q340.4375 344.825 341.25 343.96564Q342.0625 343.09064 343.34375 343.09064Q344.59375 343.09064 345.375 343.9344Q346.17188 344.77814 346.17188 346.325Q346.17188 346.41876 346.17188 346.60626L341.53125 346.60626Q341.59375 347.6375 342.10938 348.1844Q342.625 348.71564 343.40625 348.71564Q343.98438 348.71564 344.39062 348.41876Q344.8125 348.10626 345.04688 347.45ZM341.59375 345.7469L345.0625 345.7469Q345.0 344.95 344.67188 344.5594Q344.15625 343.95 343.35938 343.95Q342.625 343.95 342.125 344.4344Q341.64062 344.91876 341.59375 345.7469ZM352.8125 351.98126Q351.9375 350.8719 351.32812 349.40314Q350.73438 347.91876 350.73438 346.34064Q350.73438 344.95 351.17188 343.66876Q351.70312 342.1844 352.8125 340.71564L353.5625 340.71564Q352.85938 341.9344 352.625 342.45Q352.26562 343.2625 352.0625 344.1375Q351.8125 345.23126 351.8125 346.34064Q351.8125 349.16876 353.5625 351.98126L352.8125 351.98126ZM354.79688 349.45L354.79688 343.23126L355.73438 343.23126L355.73438 344.10626Q356.03125 343.6375 356.51562 343.3719Q357.0 343.09064 357.625 343.09064Q358.3125 343.09064 358.75 343.3719Q359.20312 343.65314 359.375 344.16876Q360.125 343.09064 361.29688 343.09064Q362.23438 343.09064 362.71875 343.60626Q363.21875 344.10626 363.21875 345.1844L363.21875 349.45L362.17188 349.45L362.17188 345.52814Q362.17188 344.90314 362.0625 344.6219Q361.96875 344.34064 361.70312 344.16876Q361.4375 343.9969 361.0625 343.9969Q360.40625 343.9969 359.96875 344.4344Q359.54688 344.8719 359.54688 345.84064L359.54688 349.45L358.48438 349.45L358.48438 345.40314Q358.48438 344.7 358.21875 344.35626Q357.96875 343.9969 357.39062 343.9969Q356.9375 343.9969 356.5625 344.23126Q356.1875 344.46564 356.01562 344.91876Q355.84375 345.3719 355.84375 346.21564L355.84375 349.45L354.79688 349.45ZM366.48438 351.98126L365.73438 351.98126Q367.48438 349.16876 367.48438 346.34064Q367.48438 345.2469 367.23438 344.15314Q367.03125 343.27814 366.67188 342.46564Q366.4375 341.95 365.73438 340.71564L366.48438 340.71564Q367.57812 342.1844 368.10938 343.66876Q368.5625 344.95 368.5625 346.34064Q368.5625 347.91876 367.95312 349.40314Q367.34375 350.8719 366.48438 351.98126Z" fill-rule="nonzero"/><path fill="#000000" d="M29.550013 223.41771L29.550013 224.40208L20.956263 224.40208L20.956263 223.33958L24.018763 223.33958Q23.190638 222.66771 23.190638 221.63646Q23.190638 221.05833 23.425013 220.55833Q23.643763 220.04271 24.065638 219.71458Q24.487513 219.37083 25.081263 219.18333Q25.675013 218.99583 26.346888 218.99583Q27.940638 218.99583 28.815638 219.79271Q29.690638 220.58958 29.690638 221.68333Q29.690638 222.79271 28.768763 223.41771L29.550013 223.41771ZM26.393763 223.43333Q27.503138 223.43333 28.003138 223.12083Q28.815638 222.62083 28.815638 221.77708Q28.815638 221.08958 28.221888 220.58958Q27.628138 220.07396 26.425013 220.07396Q25.206263 220.07396 24.628138 220.55833Q24.050013 221.04271 24.050013 221.73021Q24.050013 222.41771 24.659388 222.93333Q25.253138 223.43333 26.393763 223.43333ZM22.175013 217.38646L20.956263 217.38646L20.956263 216.32396L22.175013 216.32396L22.175013 217.38646ZM29.550013 217.38646L23.331263 217.38646L23.331263 216.32396L29.550013 216.32396L29.550013 217.38646ZM28.612513 212.08958L29.534388 211.93333Q29.628138 212.38646 29.628138 212.73021Q29.628138 213.30833 29.456263 213.62083Q29.268763 213.93333 28.971888 214.07396Q28.675013 214.19896 27.721888 214.19896L24.143763 214.19896L24.143763 214.96458L23.331263 214.96458L23.331263 214.19896L21.784388 214.19896L21.159388 213.15208L23.331263 213.15208L23.331263 212.08958L24.143763 212.08958L24.143763 213.15208L27.784388 213.15208Q28.237513 213.15208 28.362513 213.10521Q28.487513 213.04271 28.565638 212.91771Q28.643763 212.79271 28.643763 212.55833Q28.643763 212.37083 28.612513 212.08958ZM29.550013 211.40208L23.331263 211.40208L23.331263 210.44896L24.268763 210.44896Q23.612513 210.08958 23.409388 209.79271Q23.190638 209.48021 23.190638 209.10521Q23.190638 208.57396 23.518763 208.02708L24.503138 208.38646Q24.268763 208.77708 24.268763 209.15208Q24.268763 209.51146 24.487513 209.79271Q24.690638 210.05833 25.065638 210.16771Q25.628138 210.35521 26.284388 210.35521L29.550013 210.35521L29.550013 211.40208ZM28.784388 203.32396Q29.284388 203.91771 29.487513 204.46458Q29.690638 204.99583 29.690638 205.62083Q29.690638 206.65208 29.190638 207.19896Q28.690638 207.74583 27.909388 207.74583Q27.456263 207.74583 27.081263 207.54271Q26.690638 207.33958 26.471888 206.99583Q26.237513 206.65208 26.128138 206.23021Q26.034388 205.93333 25.956263 205.29271Q25.815638 204.02708 25.596888 203.41771Q25.378138 203.41771 25.331263 203.41771Q24.675013 203.41771 24.409388 203.71458Q24.065638 204.12083 24.065638 204.91771Q24.065638 205.65208 24.331263 206.01146Q24.581263 206.37083 25.237513 206.54271L25.096888 207.57396Q24.440638 207.43333 24.034388 207.10521Q23.628138 206.77708 23.409388 206.16771Q23.190638 205.55833 23.190638 204.76146Q23.190638 203.96458 23.378138 203.46458Q23.565638 202.96458 23.846888 202.73021Q24.128138 202.49583 24.565638 202.40208Q24.831263 202.35521 25.534388 202.35521L26.940638 202.35521Q28.409388 202.35521 28.800013 202.29271Q29.190638 202.21458 29.550013 202.01146L29.550013 203.12083Q29.221888 203.27708 28.784388 203.32396ZM26.425013 203.41771Q26.659388 203.99583 26.831263 205.13646Q26.925013 205.79271 27.050013 206.05833Q27.159388 206.32396 27.378138 206.48021Q27.596888 206.62083 27.878138 206.62083Q28.300013 206.62083 28.581263 206.30833Q28.862513 205.98021 28.862513 205.37083Q28.862513 204.76146 28.596888 204.29271Q28.331263 203.80833 27.862513 203.58958Q27.503138 203.41771 26.815638 203.41771L26.425013 203.41771ZM28.612513 198.08958L29.534388 197.93333Q29.628138 198.38646 29.628138 198.73021Q29.628138 199.30833 29.456263 199.62083Q29.268763 199.93333 28.971888 200.07396Q28.675013 200.19896 27.721888 200.19896L24.143763 200.19896L24.143763 200.96458L23.331263 200.96458L23.331263 200.19896L21.784388 200.19896L21.159388 199.15208L23.331263 199.15208L23.331263 198.08958L24.143763 198.08958L24.143763 199.15208L27.784388 199.15208Q28.237513 199.15208 28.362513 199.10521Q28.487513 199.04271 28.565638 198.91771Q28.643763 198.79271 28.643763 198.55833Q28.643763 198.37083 28.612513 198.08958ZM27.550013 193.13646L27.675013 192.04271Q28.628138 192.29271 29.159388 192.99583Q29.690638 193.69896 29.690638 194.77708Q29.690638 196.13646 28.846888 196.94896Q28.003138 197.74583 26.487513 197.74583Q24.925013 197.74583 24.065638 196.93333Q23.190638 196.12083 23.190638 194.83958Q23.190638 193.58958 24.034388 192.80833Q24.878138 192.01146 26.425013 192.01146Q26.518763 192.01146 26.706263 192.01146L26.706263 196.65208Q27.737513 196.58958 28.284388 196.07396Q28.815638 195.55833 28.815638 194.77708Q28.815638 194.19896 28.518763 193.79271Q28.206263 193.37083 27.550013 193.13646ZM25.846888 196.58958L25.846888 193.12083Q25.050013 193.18333 24.659388 193.51146Q24.050013 194.02708 24.050013 194.82396Q24.050013 195.55833 24.534388 196.05833Q25.018763 196.54271 25.846888 196.58958ZM32.08126 185.37083Q30.971888 186.24583 29.503138 186.85521Q28.018763 187.44896 26.440638 187.44896Q25.050013 187.44896 23.768763 187.01146Q22.284388 186.48021 20.815638 185.37083L20.815638 184.62083Q22.034388 185.32396 22.550013 185.55833Q23.362513 185.91771 24.237513 186.12083Q25.331263 186.37083 26.440638 186.37083Q29.268763 186.37083 32.08126 184.62083L32.08126 185.37083ZM29.550013 183.29271L20.956263 183.29271L20.956263 181.57396L27.034388 179.54271Q27.893763 179.26146 28.315638 179.13646Q27.846888 178.99583 26.940638 178.68333L20.956263 176.62083L20.956263 175.08958L29.550013 175.08958L29.550013 176.18333L22.362513 176.18333L29.550013 178.68333L29.550013 179.71458L22.237513 182.19896L29.550013 182.19896L29.550013 183.29271ZM29.550013 173.41771L29.550013 174.40208L20.956263 174.40208L20.956263 173.33958L24.018763 173.33958Q23.190638 172.66771 23.190638 171.63646Q23.190638 171.05833 23.425013 170.55833Q23.643763 170.04271 24.065638 169.71458Q24.487513 169.37083 25.081263 169.18333Q25.675013 168.99583 26.346888 168.99583Q27.940638 168.99583 28.815638 169.79271Q29.690638 170.58958 29.690638 171.68333Q29.690638 172.79271 28.768763 173.41771L29.550013 173.41771ZM26.393763 173.43333Q27.503138 173.43333 28.003138 173.12083Q28.815638 172.62083 28.815638 171.77708Q28.815638 171.08958 28.221888 170.58958Q27.628138 170.07396 26.425013 170.07396Q25.206263 170.07396 24.628138 170.55833Q24.050013 171.04271 24.050013 171.73021Q24.050013 172.41771 24.659388 172.93333Q25.253138 173.43333 26.393763 173.43333ZM31.940638 167.38646L23.331263 167.38646L23.331263 166.43333L24.128138 166.43333Q23.659388 166.08958 23.425013 165.66771Q23.190638 165.23021 23.190638 164.62083Q23.190638 163.82396 23.596888 163.21458Q24.003138 162.60521 24.753138 162.30833Q25.503138 161.99583 26.393763 161.99583Q27.346888 161.99583 28.112513 162.33958Q28.878138 162.66771 29.284388 163.32396Q29.690638 163.98021 29.690638 164.69896Q29.690638 165.23021 29.471888 165.65208Q29.237513 166.07396 28.909388 166.33958L31.940638 166.33958L31.940638 167.38646ZM26.471888 166.43333Q27.675013 166.43333 28.253138 165.94896Q28.815638 165.46458 28.815638 164.77708Q28.815638 164.07396 28.221888 163.57396Q27.628138 163.07396 26.378138 163.07396Q25.190638 163.07396 24.612513 163.55833Q24.018763 164.04271 24.018763 164.73021Q24.018763 165.40208 24.643763 165.91771Q25.268763 166.43333 26.471888 166.43333ZM27.690638 160.80833L27.534388 159.77708Q28.159388 159.68333 28.487513 159.29271Q28.815638 158.88646 28.815638 158.15208Q28.815638 157.43333 28.534388 157.08958Q28.237513 156.73021 27.831263 156.73021Q27.471888 156.73021 27.268763 157.04271Q27.128138 157.26146 26.909388 158.12083Q26.612513 159.27708 26.409388 159.73021Q26.190638 160.16771 25.815638 160.40208Q25.440638 160.63646 24.971888 160.63646Q24.565638 160.63646 24.206263 160.44896Q23.846888 160.26146 23.612513 159.93333Q23.440638 159.68333 23.315638 159.26146Q23.190638 158.83958 23.190638 158.33958Q23.190638 157.62083 23.409388 157.07396Q23.612513 156.51146 23.971888 156.24583Q24.331263 155.98021 24.925013 155.88646L25.065638 156.91771Q24.596888 156.98021 24.331263 157.32396Q24.050013 157.65208 24.050013 158.27708Q24.050013 158.99583 24.300013 159.30833Q24.534388 159.62083 24.862513 159.62083Q25.065638 159.62083 25.221888 159.49583Q25.393763 159.35521 25.503138 159.08958Q25.565638 158.93333 25.768763 158.15208Q26.081263 157.02708 26.268763 156.58958Q26.456263 156.15208 26.815638 155.90208Q27.175013 155.65208 27.721888 155.65208Q28.253138 155.65208 28.721888 155.96458Q29.175013 156.26146 29.440638 156.83958Q29.690638 157.41771 29.690638 158.15208Q29.690638 159.37083 29.190638 160.01146Q28.675013 160.63646 27.690638 160.80833ZM32.08126 152.69896L32.08126 153.44896Q29.268763 151.69896 26.440638 151.69896Q25.346888 151.69896 24.253138 151.94896Q23.378138 152.15208 22.565638 152.51146Q22.050013 152.74583 20.815638 153.44896L20.815638 152.69896Q22.284388 151.60521 23.768763 151.07396Q25.050013 150.62083 26.440638 150.62083Q28.018763 150.62083 29.503138 151.23021Q30.971888 151.83958 32.08126 152.69896Z" fill-rule="nonzero"/><path fill="#000000" d="M58.05 300.21564Q58.05 298.6844 58.3625 297.7625Q58.675 296.825 59.284374 296.325Q59.909374 295.825 60.846874 295.825Q61.534374 295.825 62.05 296.10626Q62.58125 296.3875 62.925 296.91876Q63.26875 297.4344 63.45625 298.1844Q63.64375 298.9344 63.64375 300.21564Q63.64375 301.73126 63.33125 302.65314Q63.034374 303.575 62.409374 304.09064Q61.8 304.59064 60.846874 304.59064Q59.6125 304.59064 58.89375 303.7Q58.05 302.6375 58.05 300.21564ZM59.128124 300.21564Q59.128124 302.325 59.628124 303.02814Q60.128124 303.73126 60.846874 303.73126Q61.58125 303.73126 62.065624 303.02814Q62.565624 302.325 62.565624 300.21564Q62.565624 298.09064 62.065624 297.40314Q61.58125 296.7 60.83125 296.7Q60.1125 296.7 59.675 297.3094Q59.128124 298.09064 59.128124 300.21564ZM65.6125 304.45L65.6125 303.2469L66.81563 303.2469L66.81563 304.45Q66.81563 305.10626 66.58125 305.5125Q66.34688 305.9344 65.84688 306.15314L65.55 305.7Q65.87813 305.5594 66.03438 305.2625Q66.19063 304.98126 66.22188 304.45L65.6125 304.45ZM68.05 300.21564Q68.05 298.6844 68.3625 297.7625Q68.675 296.825 69.28438 296.325Q69.90938 295.825 70.84688 295.825Q71.53438 295.825 72.05 296.10626Q72.58125 296.3875 72.925 296.91876Q73.26875 297.4344 73.45625 298.1844Q73.64375 298.9344 73.64375 300.21564Q73.64375 301.73126 73.33125 302.65314Q73.03438 303.575 72.40938 304.09064Q71.8 304.59064 70.84688 304.59064Q69.6125 304.59064 68.89375 303.7Q68.05 302.6375 68.05 300.21564ZM69.12813 300.21564Q69.12813 302.325 69.62813 303.02814Q70.12813 303.73126 70.84688 303.73126Q71.58125 303.73126 72.06563 303.02814Q72.56563 302.325 72.56563 300.21564Q72.56563 298.09064 72.06563 297.40314Q71.58125 296.7 70.83125 296.7Q70.1125 296.7 69.675 297.3094Q69.12813 298.09064 69.12813 300.21564ZM75.05 300.21564Q75.05 298.6844 75.3625 297.7625Q75.675 296.825 76.28438 296.325Q76.90938 295.825 77.84688 295.825Q78.53438 295.825 79.05 296.10626Q79.58125 296.3875 79.925 296.91876Q80.26875 297.4344 80.45625 298.1844Q80.64375 298.9344 80.64375 300.21564Q80.64375 301.73126 80.33125 302.65314Q80.03438 303.575 79.40938 304.09064Q78.8 304.59064 77.84688 304.59064Q76.6125 304.59064 75.89375 303.7Q75.05 302.6375 75.05 300.21564ZM76.12813 300.21564Q76.12813 302.325 76.62813 303.02814Q77.12813 303.73126 77.84688 303.73126Q78.58125 303.73126 79.06563 303.02814Q79.56563 302.325 79.56563 300.21564Q79.56563 298.09064 79.06563 297.40314Q78.58125 296.7 77.83125 296.7Q77.1125 296.7 76.675 297.3094Q76.12813 298.09064 76.12813 300.21564Z" fill-rule="nonzero"/><path fill="#000000" d="M55.01875 256.74335L53.971874 256.74335L53.971874 250.0246Q53.58125 250.38397 52.95625 250.75897Q52.346874 251.11835 51.8625 251.29022L51.8625 250.2746Q52.7375 249.85272 53.39375 249.2746Q54.065624 248.68085 54.346874 248.11835L55.01875 248.11835L55.01875 256.74335ZM58.05 252.50897Q58.05 250.97772 58.3625 250.05585Q58.675 249.11835 59.284374 248.61835Q59.909374 248.11835 60.846874 248.11835Q61.534374 248.11835 62.05 248.3996Q62.58125 248.68085 62.925 249.2121Q63.26875 249.72772 63.45625 250.47772Q63.64375 251.22772 63.64375 252.50897Q63.64375 254.0246 63.33125 254.94647Q63.034374 255.86835 62.409374 256.38397Q61.8 256.88397 60.846874 256.88397Q59.6125 256.88397 58.89375 255.99335Q58.05 254.93085 58.05 252.50897ZM59.128124 252.50897Q59.128124 254.61835 59.628124 255.32147Q60.128124 256.0246 60.846874 256.0246Q61.58125 256.0246 62.065624 255.32147Q62.565624 254.61835 62.565624 252.50897Q62.565624 250.38397 62.065624 249.69647Q61.58125 248.99335 60.83125 248.99335Q60.1125 248.99335 59.675 249.60272Q59.128124 250.38397 59.128124 252.50897ZM65.6125 256.74335L65.6125 255.54022L66.81563 255.54022L66.81563 256.74335Q66.81563 257.3996 66.58125 257.80585Q66.34688 258.22772 65.84688 258.44647L65.55 257.99335Q65.87813 257.85272 66.03438 257.55585Q66.19063 257.2746 66.22188 256.74335L65.6125 256.74335ZM68.05 252.50897Q68.05 250.97772 68.3625 250.05585Q68.675 249.11835 69.28438 248.61835Q69.90938 248.11835 70.84688 248.11835Q71.53438 248.11835 72.05 248.3996Q72.58125 248.68085 72.925 249.2121Q73.26875 249.72772 73.45625 250.47772Q73.64375 251.22772 73.64375 252.50897Q73.64375 254.0246 73.33125 254.94647Q73.03438 255.86835 72.40938 256.38397Q71.8 256.88397 70.84688 256.88397Q69.6125 256.88397 68.89375 255.99335Q68.05 254.93085 68.05 252.50897ZM69.12813 252.50897Q69.12813 254.61835 69.62813 255.32147Q70.12813 256.0246 70.84688 256.0246Q71.58125 256.0246 72.06563 255.32147Q72.56563 254.61835 72.56563 252.50897Q72.56563 250.38397 72.06563 249.69647Q71.58125 248.99335 70.83125 248.99335Q70.1125 248.99335 69.675 249.60272Q69.12813 250.38397 69.12813 252.50897ZM75.05 252.50897Q75.05 250.97772 75.3625 250.05585Q75.675 249.11835 76.28438 248.61835Q76.90938 248.11835 77.84688 248.11835Q78.53438 248.11835 79.05 248.3996Q79.58125 248.68085 79.925 249.2121Q80.26875 249.72772 80.45625 250.47772Q80.64375 251.22772 80.64375 252.50897Q80.64375 254.0246 80.33125 254.94647Q80.03438 255.86835 79.40938 256.38397Q78.8 256.88397 77.84688 256.88397Q76.6125 256.88397 75.89375 255.99335Q75.05 254.93085 75.05 252.50897ZM76.12813 252.50897Q76.12813 254.61835 76.62813 255.32147Q77.12813 256.0246 77.84688 256.0246Q78.58125 256.0246 79.06563 255.32147Q79.56563 254.61835 79.56563 252.50897Q79.56563 250.38397 79.06563 249.69647Q78.58125 248.99335 77.83125 248.99335Q77.1125 248.99335 76.675 249.60272Q76.12813 250.38397 76.12813 252.50897Z" fill-rule="nonzero"/><path fill="#000000" d="M56.596874 208.02104L56.596874 209.03667L50.909374 209.03667Q50.909374 208.66167 51.034374 208.30229Q51.253124 207.72417 51.721874 207.16167Q52.20625 206.59917 53.1125 205.86479Q54.51875 204.70854 55.003124 204.03667Q55.503124 203.36479 55.503124 202.77104Q55.503124 202.14604 55.05 201.72417Q54.596874 201.28667 53.878124 201.28667Q53.1125 201.28667 52.659374 201.73979Q52.20625 202.19292 52.190624 203.00542L51.1125 202.89604Q51.221874 201.67729 51.940624 201.05229Q52.675 200.41167 53.909374 200.41167Q55.14375 200.41167 55.8625 201.09917Q56.58125 201.78667 56.58125 202.80229Q56.58125 203.31792 56.3625 203.81792Q56.159374 204.30229 55.659374 204.86479Q55.175 205.41167 54.05 206.36479Q53.096874 207.16167 52.815624 207.45854Q52.55 207.73979 52.378124 208.02104L56.596874 208.02104ZM58.05 204.80229Q58.05 203.27104 58.3625 202.34917Q58.675 201.41167 59.284374 200.91167Q59.909374 200.41167 60.846874 200.41167Q61.534374 200.41167 62.05 200.69292Q62.58125 200.97417 62.925 201.50542Q63.26875 202.02104 63.45625 202.77104Q63.64375 203.52104 63.64375 204.80229Q63.64375 206.31792 63.33125 207.23979Q63.034374 208.16167 62.409374 208.67729Q61.8 209.17729 60.846874 209.17729Q59.6125 209.17729 58.89375 208.28667Q58.05 207.22417 58.05 204.80229ZM59.128124 204.80229Q59.128124 206.91167 59.628124 207.61479Q60.128124 208.31792 60.846874 208.31792Q61.58125 208.31792 62.065624 207.61479Q62.565624 206.91167 62.565624 204.80229Q62.565624 202.67729 62.065624 201.98979Q61.58125 201.28667 60.83125 201.28667Q60.1125 201.28667 59.675 201.89604Q59.128124 202.67729 59.128124 204.80229ZM65.6125 209.03667L65.6125 207.83354L66.81563 207.83354L66.81563 209.03667Q66.81563 209.69292 66.58125 210.09917Q66.34688 210.52104 65.84688 210.73979L65.55 210.28667Q65.87813 210.14604 66.03438 209.84917Q66.19063 209.56792 66.22188 209.03667L65.6125 209.03667ZM68.05 204.80229Q68.05 203.27104 68.3625 202.34917Q68.675 201.41167 69.28438 200.91167Q69.90938 200.41167 70.84688 200.41167Q71.53438 200.41167 72.05 200.69292Q72.58125 200.97417 72.925 201.50542Q73.26875 202.02104 73.45625 202.77104Q73.64375 203.52104 73.64375 204.80229Q73.64375 206.31792 73.33125 207.23979Q73.03438 208.16167 72.40938 208.67729Q71.8 209.17729 70.84688 209.17729Q69.6125 209.17729 68.89375 208.28667Q68.05 207.22417 68.05 204.80229ZM69.12813 204.80229Q69.12813 206.91167 69.62813 207.61479Q70.12813 208.31792 70.84688 208.31792Q71.58125 208.31792 72.06563 207.61479Q72.56563 206.91167 72.56563 204.80229Q72.56563 202.67729 72.06563 201.98979Q71.58125 201.28667 70.83125 201.28667Q70.1125 201.28667 69.675 201.89604Q69.12813 202.67729 69.12813 204.80229ZM75.05 204.80229Q75.05 203.27104 75.3625 202.34917Q75.675 201.41167 76.28438 200.91167Q76.90938 200.41167 77.84688 200.41167Q78.53438 200.41167 79.05 200.69292Q79.58125 200.97417 79.925 201.50542Q80.26875 202.02104 80.45625 202.77104Q80.64375 203.52104 80.64375 204.80229Q80.64375 206.31792 80.33125 207.23979Q80.03438 208.16167 79.40938 208.67729Q78.8 209.17729 77.84688 209.17729Q76.6125 209.17729 75.89375 208.28667Q75.05 207.22417 75.05 204.80229ZM76.12813 204.80229Q76.12813 206.91167 76.62813 207.61479Q77.12813 208.31792 77.84688 208.31792Q78.58125 208.31792 79.06563 207.61479Q79.56563 206.91167 79.56563 204.80229Q79.56563 202.67729 79.06563 201.98979Q78.58125 201.28667 77.83125 201.28667Q77.1125 201.28667 76.675 201.89604Q76.12813 202.67729 76.12813 204.80229Z" fill-rule="nonzero"/><path fill="#000000" d="M51.05 159.06438L52.1125 158.92375Q52.284374 159.81438 52.721874 160.22063Q53.159374 160.61125 53.784374 160.61125Q54.534374 160.61125 55.05 160.09563Q55.565624 159.58 55.565624 158.81438Q55.565624 158.09563 55.08125 157.62688Q54.6125 157.1425 53.878124 157.1425Q53.58125 157.1425 53.128124 157.2675L53.253124 156.33Q53.3625 156.34563 53.425 156.34563Q54.096874 156.34563 54.628124 156.00188Q55.175 155.6425 55.175 154.90813Q55.175 154.33 54.784374 153.955Q54.39375 153.56438 53.76875 153.56438Q53.159374 153.56438 52.7375 153.955Q52.33125 154.34563 52.221874 155.11125L51.159374 154.92375Q51.346874 153.87688 52.034374 153.29875Q52.721874 152.705 53.7375 152.705Q54.440624 152.705 55.034374 153.0175Q55.628124 153.31438 55.940624 153.83Q56.253124 154.34563 56.253124 154.93938Q56.253124 155.48625 55.95625 155.955Q55.659374 156.40813 55.08125 156.67375Q55.83125 156.84563 56.253124 157.40813Q56.675 157.955 56.675 158.79875Q56.675 159.92375 55.846874 160.705Q55.034374 161.48625 53.784374 161.48625Q52.659374 161.48625 51.909374 160.81438Q51.159374 160.12688 51.05 159.06438ZM58.05 157.09563Q58.05 155.56438 58.3625 154.6425Q58.675 153.705 59.284374 153.205Q59.909374 152.705 60.846874 152.705Q61.534374 152.705 62.05 152.98625Q62.58125 153.2675 62.925 153.79875Q63.26875 154.31438 63.45625 155.06438Q63.64375 155.81438 63.64375 157.09563Q63.64375 158.61125 63.33125 159.53313Q63.034374 160.455 62.409374 160.97063Q61.8 161.47063 60.846874 161.47063Q59.6125 161.47063 58.89375 160.58Q58.05 159.5175 58.05 157.09563ZM59.128124 157.09563Q59.128124 159.205 59.628124 159.90813Q60.128124 160.61125 60.846874 160.61125Q61.58125 160.61125 62.065624 159.90813Q62.565624 159.205 62.565624 157.09563Q62.565624 154.97063 62.065624 154.28313Q61.58125 153.58 60.83125 153.58Q60.1125 153.58 59.675 154.18938Q59.128124 154.97063 59.128124 157.09563ZM65.6125 161.33L65.6125 160.12688L66.81563 160.12688L66.81563 161.33Q66.81563 161.98625 66.58125 162.3925Q66.34688 162.81438 65.84688 163.03313L65.55 162.58Q65.87813 162.43938 66.03438 162.1425Q66.19063 161.86125 66.22188 161.33L65.6125 161.33ZM68.05 157.09563Q68.05 155.56438 68.3625 154.6425Q68.675 153.705 69.28438 153.205Q69.90938 152.705 70.84688 152.705Q71.53438 152.705 72.05 152.98625Q72.58125 153.2675 72.925 153.79875Q73.26875 154.31438 73.45625 155.06438Q73.64375 155.81438 73.64375 157.09563Q73.64375 158.61125 73.33125 159.53313Q73.03438 160.455 72.40938 160.97063Q71.8 161.47063 70.84688 161.47063Q69.6125 161.47063 68.89375 160.58Q68.05 159.5175 68.05 157.09563ZM69.12813 157.09563Q69.12813 159.205 69.62813 159.90813Q70.12813 160.61125 70.84688 160.61125Q71.58125 160.61125 72.06563 159.90813Q72.56563 159.205 72.56563 157.09563Q72.56563 154.97063 72.06563 154.28313Q71.58125 153.58 70.83125 153.58Q70.1125 153.58 69.675 154.18938Q69.12813 154.97063 69.12813 157.09563ZM75.05 157.09563Q75.05 155.56438 75.3625 154.6425Q75.675 153.705 76.28438 153.205Q76.90938 152.705 77.84688 152.705Q78.53438 152.705 79.05 152.98625Q79.58125 153.2675 79.925 153.79875Q80.26875 154.31438 80.45625 155.06438Q80.64375 155.81438 80.64375 157.09563Q80.64375 158.61125 80.33125 159.53313Q80.03438 160.455 79.40938 160.97063Q78.8 161.47063 77.84688 161.47063Q76.6125 161.47063 75.89375 160.58Q75.05 159.5175 75.05 157.09563ZM76.12813 157.09563Q76.12813 159.205 76.62813 159.90813Q77.12813 160.61125 77.84688 160.61125Q78.58125 160.61125 79.06563 159.90813Q79.56563 159.205 79.56563 157.09563Q79.56563 154.97063 79.06563 154.28313Q78.58125 153.58 77.83125 153.58Q77.1125 153.58 76.675 154.18938Q76.12813 154.97063 76.12813 157.09563Z" fill-rule="nonzero"/><path fill="#000000" d="M54.425 113.62334L54.425 111.56084L50.70625 111.56084L50.70625 110.59209L54.628124 105.02959L55.4875 105.02959L55.4875 110.59209L56.64375 110.59209L56.64375 111.56084L55.4875 111.56084L55.4875 113.62334L54.425 113.62334ZM54.425 110.59209L54.425 106.73271L51.7375 110.59209L54.425 110.59209ZM58.05 109.38896Q58.05 107.85771 58.3625 106.93584Q58.675 105.99834 59.284374 105.49834Q59.909374 104.99834 60.846874 104.99834Q61.534374 104.99834 62.05 105.27959Q62.58125 105.56084 62.925 106.09209Q63.26875 106.60771 63.45625 107.35771Q63.64375 108.10771 63.64375 109.38896Q63.64375 110.90459 63.33125 111.82646Q63.034374 112.74834 62.409374 113.26396Q61.8 113.76396 60.846874 113.76396Q59.6125 113.76396 58.89375 112.87334Q58.05 111.81084 58.05 109.38896ZM59.128124 109.38896Q59.128124 111.49834 59.628124 112.20146Q60.128124 112.90459 60.846874 112.90459Q61.58125 112.90459 62.065624 112.20146Q62.565624 111.49834 62.565624 109.38896Q62.565624 107.26396 62.065624 106.57646Q61.58125 105.87334 60.83125 105.87334Q60.1125 105.87334 59.675 106.48271Q59.128124 107.26396 59.128124 109.38896ZM65.6125 113.62334L65.6125 112.42021L66.81563 112.42021L66.81563 113.62334Q66.81563 114.27959 66.58125 114.68584Q66.34688 115.10771 65.84688 115.32646L65.55 114.87334Q65.87813 114.73271 66.03438 114.43584Q66.19063 114.15459 66.22188 113.62334L65.6125 113.62334ZM68.05 109.38896Q68.05 107.85771 68.3625 106.93584Q68.675 105.99834 69.28438 105.49834Q69.90938 104.99834 70.84688 104.99834Q71.53438 104.99834 72.05 105.27959Q72.58125 105.56084 72.925 106.09209Q73.26875 106.60771 73.45625 107.35771Q73.64375 108.10771 73.64375 109.38896Q73.64375 110.90459 73.33125 111.82646Q73.03438 112.74834 72.40938 113.26396Q71.8 113.76396 70.84688 113.76396Q69.6125 113.76396 68.89375 112.87334Q68.05 111.81084 68.05 109.38896ZM69.12813 109.38896Q69.12813 111.49834 69.62813 112.20146Q70.12813 112.90459 70.84688 112.90459Q71.58125 112.90459 72.06563 112.20146Q72.56563 111.49834 72.56563 109.38896Q72.56563 107.26396 72.06563 106.57646Q71.58125 105.87334 70.83125 105.87334Q70.1125 105.87334 69.675 106.48271Q69.12813 107.26396 69.12813 109.38896ZM75.05 109.38896Q75.05 107.85771 75.3625 106.93584Q75.675 105.99834 76.28438 105.49834Q76.90938 104.99834 77.84688 104.99834Q78.53438 104.99834 79.05 105.27959Q79.58125 105.56084 79.925 106.09209Q80.26875 106.60771 80.45625 107.35771Q80.64375 108.10771 80.64375 109.38896Q80.64375 110.90459 80.33125 111.82646Q80.03438 112.74834 79.40938 113.26396Q78.8 113.76396 77.84688 113.76396Q76.6125 113.76396 75.89375 112.87334Q75.05 111.81084 75.05 109.38896ZM76.12813 109.38896Q76.12813 111.49834 76.62813 112.20146Q77.12813 112.90459 77.84688 112.90459Q78.58125 112.90459 79.06563 112.20146Q79.56563 111.49834 79.56563 109.38896Q79.56563 107.26396 79.06563 106.57646Q78.58125 105.87334 77.83125 105.87334Q77.1125 105.87334 76.675 106.48271Q76.12813 107.26396 76.12813 109.38896Z" fill-rule="nonzero"/><path fill="#000000" d="M51.05 63.666664L52.159374 63.572914Q52.284374 64.385414 52.721874 64.791664Q53.175 65.197914 53.815624 65.197914Q54.565624 65.197914 55.096874 64.61979Q55.628124 64.041664 55.628124 63.104164Q55.628124 62.197914 55.1125 61.68229Q54.6125 61.15104 53.784374 61.15104Q53.284374 61.15104 52.8625 61.385414Q52.45625 61.61979 52.221874 61.979164L51.2375 61.854164L52.065624 57.447914L56.346874 57.447914L56.346874 58.447914L52.909374 58.447914L52.45625 60.760414Q53.221874 60.21354 54.065624 60.21354Q55.190624 60.21354 55.95625 60.99479Q56.7375 61.77604 56.7375 63.010414Q56.7375 64.166664 56.065624 65.02604Q55.2375 66.05729 53.815624 66.05729Q52.64375 66.05729 51.89375 65.40104Q51.159374 64.74479 51.05 63.666664ZM58.05 61.68229Q58.05 60.15104 58.3625 59.229164Q58.675 58.291664 59.284374 57.791664Q59.909374 57.291664 60.846874 57.291664Q61.534374 57.291664 62.05 57.572914Q62.58125 57.854164 62.925 58.385414Q63.26875 58.90104 63.45625 59.65104Q63.64375 60.40104 63.64375 61.68229Q63.64375 63.197914 63.33125 64.11979Q63.034374 65.041664 62.409374 65.55729Q61.8 66.05729 60.846874 66.05729Q59.6125 66.05729 58.89375 65.166664Q58.05 64.104164 58.05 61.68229ZM59.128124 61.68229Q59.128124 63.791664 59.628124 64.49479Q60.128124 65.197914 60.846874 65.197914Q61.58125 65.197914 62.065624 64.49479Q62.565624 63.791664 62.565624 61.68229Q62.565624 59.55729 62.065624 58.86979Q61.58125 58.166664 60.83125 58.166664Q60.1125 58.166664 59.675 58.77604Q59.128124 59.55729 59.128124 61.68229ZM65.6125 65.916664L65.6125 64.71354L66.81563 64.71354L66.81563 65.916664Q66.81563 66.572914 66.58125 66.979164Q66.34688 67.40104 65.84688 67.61979L65.55 67.166664Q65.87813 67.02604 66.03438 66.729164Q66.19063 66.447914 66.22188 65.916664L65.6125 65.916664ZM68.05 61.68229Q68.05 60.15104 68.3625 59.229164Q68.675 58.291664 69.28438 57.791664Q69.90938 57.291664 70.84688 57.291664Q71.53438 57.291664 72.05 57.572914Q72.58125 57.854164 72.925 58.385414Q73.26875 58.90104 73.45625 59.65104Q73.64375 60.40104 73.64375 61.68229Q73.64375 63.197914 73.33125 64.11979Q73.03438 65.041664 72.40938 65.55729Q71.8 66.05729 70.84688 66.05729Q69.6125 66.05729 68.89375 65.166664Q68.05 64.104164 68.05 61.68229ZM69.12813 61.68229Q69.12813 63.791664 69.62813 64.49479Q70.12813 65.197914 70.84688 65.197914Q71.58125 65.197914 72.06563 64.49479Q72.56563 63.791664 72.56563 61.68229Q72.56563 59.55729 72.06563 58.86979Q71.58125 58.166664 70.83125 58.166664Q70.1125 58.166664 69.675 58.77604Q69.12813 59.55729 69.12813 61.68229ZM75.05 61.68229Q75.05 60.15104 75.3625 59.229164Q75.675 58.291664 76.28438 57.791664Q76.90938 57.291664 77.84688 57.291664Q78.53438 57.291664 79.05 57.572914Q79.58125 57.854164 79.925 58.385414Q80.26875 58.90104 80.45625 59.65104Q80.64375 60.40104 80.64375 61.68229Q80.64375 63.197914 80.33125 64.11979Q80.03438 65.041664 79.40938 65.55729Q78.8 66.05729 77.84688 66.05729Q76.6125 66.05729 75.89375 65.166664Q75.05 64.104164 75.05 61.68229ZM76.12813 61.68229Q76.12813 63.791664 76.62813 64.49479Q77.12813 65.197914 77.84688 65.197914Q78.58125 65.197914 79.06563 64.49479Q79.56563 63.791664 79.56563 61.68229Q79.56563 59.55729 79.06563 58.86979Q78.58125 58.166664 77.83125 58.166664Q77.1125 58.166664 76.675 58.77604Q76.12813 59.55729 76.12813 61.68229Z" fill-rule="nonzero"/><path fill="#000000" d="M107.12607 315.2L108.23544 315.10626Q108.36044 315.91876 108.79794 316.325Q109.25107 316.73126 109.89169 316.73126Q110.64169 316.73126 111.17294 316.15314Q111.70419 315.575 111.70419 314.6375Q111.70419 313.73126 111.18857 313.21564Q110.68857 312.6844 109.86044 312.6844Q109.36044 312.6844 108.93857 312.91876Q108.53232 313.15314 108.29794 313.5125L107.31357 313.3875L108.14169 308.98126L112.42294 308.98126L112.42294 309.98126L108.98544 309.98126L108.53232 312.29376Q109.29794 311.7469 110.14169 311.7469Q111.26669 311.7469 112.03232 312.52814Q112.81357 313.3094 112.81357 314.54376Q112.81357 315.7 112.14169 316.5594Q111.31357 317.59064 109.89169 317.59064Q108.71982 317.59064 107.96982 316.9344Q107.23544 316.27814 107.12607 315.2ZM114.12607 313.21564Q114.12607 311.6844 114.43857 310.7625Q114.75107 309.825 115.36044 309.325Q115.98544 308.825 116.92294 308.825Q117.61044 308.825 118.12607 309.10626Q118.65732 309.3875 119.00107 309.91876Q119.34482 310.4344 119.53232 311.1844Q119.71982 311.9344 119.71982 313.21564Q119.71982 314.73126 119.40732 315.65314Q119.11044 316.575 118.48544 317.09064Q117.87607 317.59064 116.92294 317.59064Q115.68857 317.59064 114.96982 316.7Q114.12607 315.6375 114.12607 313.21564ZM115.20419 313.21564Q115.20419 315.325 115.70419 316.02814Q116.20419 316.73126 116.92294 316.73126Q117.65732 316.73126 118.14169 316.02814Q118.64169 315.325 118.64169 313.21564Q118.64169 311.09064 118.14169 310.40314Q117.65732 309.7 116.90732 309.7Q116.18857 309.7 115.75107 310.3094Q115.20419 311.09064 115.20419 313.21564Z" fill-rule="nonzero"/><path fill="#000000" d="M204.17284 317.45L203.12596 317.45L203.12596 310.73126Q202.73534 311.09064 202.11034 311.46564Q201.50096 311.825 201.01659 311.9969L201.01659 310.98126Q201.89159 310.5594 202.54784 309.98126Q203.21971 309.3875 203.50096 308.825L204.17284 308.825L204.17284 317.45ZM207.20409 313.21564Q207.20409 311.6844 207.51659 310.7625Q207.82909 309.825 208.43846 309.325Q209.06346 308.825 210.00096 308.825Q210.68846 308.825 211.20409 309.10626Q211.73534 309.3875 212.07909 309.91876Q212.42284 310.4344 212.61034 311.1844Q212.79784 311.9344 212.79784 313.21564Q212.79784 314.73126 212.48534 315.65314Q212.18846 316.575 211.56346 317.09064Q210.95409 317.59064 210.00096 317.59064Q208.76659 317.59064 208.04784 316.7Q207.20409 315.6375 207.20409 313.21564ZM208.28221 313.21564Q208.28221 315.325 208.78221 316.02814Q209.28221 316.73126 210.00096 316.73126Q210.73534 316.73126 211.21971 316.02814Q211.71971 315.325 211.71971 313.21564Q211.71971 311.09064 211.21971 310.40314Q210.73534 309.7 209.98534 309.7Q209.26659 309.7 208.82909 310.3094Q208.28221 311.09064 208.28221 313.21564ZM214.20409 313.21564Q214.20409 311.6844 214.51659 310.7625Q214.82909 309.825 215.43846 309.325Q216.06346 308.825 217.00096 308.825Q217.68846 308.825 218.20409 309.10626Q218.73534 309.3875 219.07909 309.91876Q219.42284 310.4344 219.61034 311.1844Q219.79784 311.9344 219.79784 313.21564Q219.79784 314.73126 219.48534 315.65314Q219.18846 316.575 218.56346 317.09064Q217.95409 317.59064 217.00096 317.59064Q215.76659 317.59064 215.04784 316.7Q214.20409 315.6375 214.20409 313.21564ZM215.28221 313.21564Q215.28221 315.325 215.78221 316.02814Q216.28221 316.73126 217.00096 316.73126Q217.73534 316.73126 218.21971 316.02814Q218.71971 315.325 218.71971 313.21564Q218.71971 311.09064 218.21971 310.40314Q217.73534 309.7 216.98534 309.7Q216.26659 309.7 215.82909 310.3094Q215.28221 311.09064 215.28221 313.21564Z" fill-rule="nonzero"/><path fill="#000000" d="M300.75085 317.45L299.70398 317.45L299.70398 310.73126Q299.31335 311.09064 298.68835 311.46564Q298.07898 311.825 297.5946 311.9969L297.5946 310.98126Q298.4696 310.5594 299.12585 309.98126Q299.79773 309.3875 300.07898 308.825L300.75085 308.825L300.75085 317.45ZM303.7821 315.2L304.89148 315.10626Q305.01648 315.91876 305.45398 316.325Q305.9071 316.73126 306.54773 316.73126Q307.29773 316.73126 307.82898 316.15314Q308.36023 315.575 308.36023 314.6375Q308.36023 313.73126 307.8446 313.21564Q307.3446 312.6844 306.51648 312.6844Q306.01648 312.6844 305.5946 312.91876Q305.18835 313.15314 304.95398 313.5125L303.9696 313.3875L304.79773 308.98126L309.07898 308.98126L309.07898 309.98126L305.64148 309.98126L305.18835 312.29376Q305.95398 311.7469 306.79773 311.7469Q307.92273 311.7469 308.68835 312.52814Q309.4696 313.3094 309.4696 314.54376Q309.4696 315.7 308.79773 316.5594Q307.9696 317.59064 306.54773 317.59064Q305.37585 317.59064 304.62585 316.9344Q303.89148 316.27814 303.7821 315.2ZM310.7821 313.21564Q310.7821 311.6844 311.0946 310.7625Q311.4071 309.825 312.01648 309.325Q312.64148 308.825 313.57898 308.825Q314.26648 308.825 314.7821 309.10626Q315.31335 309.3875 315.6571 309.91876Q316.00085 310.4344 316.18835 311.1844Q316.37585 311.9344 316.37585 313.21564Q316.37585 314.73126 316.06335 315.65314Q315.76648 316.575 315.14148 317.09064Q314.5321 317.59064 313.57898 317.59064Q312.3446 317.59064 311.62585 316.7Q310.7821 315.6375 310.7821 313.21564ZM311.86023 313.21564Q311.86023 315.325 312.36023 316.02814Q312.86023 316.73126 313.57898 316.73126Q314.31335 316.73126 314.79773 316.02814Q315.29773 315.325 315.29773 313.21564Q315.29773 311.09064 314.79773 310.40314Q314.31335 309.7 313.56335 309.7Q312.8446 309.7 312.4071 310.3094Q311.86023 311.09064 311.86023 313.21564Z" fill-rule="nonzero"/><path fill="#000000" d="M398.907 316.4344L398.907 317.45L393.2195 317.45Q393.2195 317.075 393.3445 316.71564Q393.56326 316.1375 394.032 315.575Q394.5164 315.0125 395.42264 314.27814Q396.8289 313.1219 397.31326 312.45Q397.81326 311.77814 397.81326 311.1844Q397.81326 310.5594 397.36014 310.1375Q396.907 309.7 396.18826 309.7Q395.42264 309.7 394.9695 310.15314Q394.5164 310.60626 394.50076 311.41876L393.42264 311.3094Q393.532 310.09064 394.25076 309.46564Q394.98514 308.825 396.2195 308.825Q397.4539 308.825 398.17264 309.5125Q398.8914 310.2 398.8914 311.21564Q398.8914 311.73126 398.67264 312.23126Q398.4695 312.71564 397.9695 313.27814Q397.48514 313.825 396.36014 314.77814Q395.407 315.575 395.12576 315.8719Q394.86014 316.15314 394.68826 316.4344L398.907 316.4344ZM400.36014 313.21564Q400.36014 311.6844 400.67264 310.7625Q400.98514 309.825 401.5945 309.325Q402.2195 308.825 403.157 308.825Q403.8445 308.825 404.36014 309.10626Q404.8914 309.3875 405.23514 309.91876Q405.5789 310.4344 405.7664 311.1844Q405.9539 311.9344 405.9539 313.21564Q405.9539 314.73126 405.6414 315.65314Q405.3445 316.575 404.7195 317.09064Q404.11014 317.59064 403.157 317.59064Q401.92264 317.59064 401.2039 316.7Q400.36014 315.6375 400.36014 313.21564ZM401.43826 313.21564Q401.43826 315.325 401.93826 316.02814Q402.43826 316.73126 403.157 316.73126Q403.8914 316.73126 404.37576 316.02814Q404.87576 315.325 404.87576 313.21564Q404.87576 311.09064 404.37576 310.40314Q403.8914 309.7 403.1414 309.7Q402.42264 309.7 401.98514 310.3094Q401.43826 311.09064 401.43826 313.21564ZM407.36014 313.21564Q407.36014 311.6844 407.67264 310.7625Q407.98514 309.825 408.5945 309.325Q409.2195 308.825 410.157 308.825Q410.8445 308.825 411.36014 309.10626Q411.8914 309.3875 412.23514 309.91876Q412.5789 310.4344 412.7664 311.1844Q412.9539 311.9344 412.9539 313.21564Q412.9539 314.73126 412.6414 315.65314Q412.3445 316.575 411.7195 317.09064Q411.11014 317.59064 410.157 317.59064Q408.92264 317.59064 408.2039 316.7Q407.36014 315.6375 407.36014 313.21564ZM408.43826 313.21564Q408.43826 315.325 408.93826 316.02814Q409.43826 316.73126 410.157 316.73126Q410.8914 316.73126 411.37576 316.02814Q411.87576 315.325 411.87576 313.21564Q411.87576 311.09064 411.37576 310.40314Q410.8914 309.7 410.1414 309.7Q409.42264 309.7 408.98514 310.3094Q408.43826 311.09064 408.43826 313.21564Z" fill-rule="nonzero"/><path fill="#000000" d="M495.48502 316.4344L495.48502 317.45L489.79752 317.45Q489.79752 317.075 489.92252 316.71564Q490.14127 316.1375 490.61002 315.575Q491.0944 315.0125 492.00064 314.27814Q493.4069 313.1219 493.89127 312.45Q494.39127 311.77814 494.39127 311.1844Q494.39127 310.5594 493.93814 310.1375Q493.48502 309.7 492.76627 309.7Q492.00064 309.7 491.54752 310.15314Q491.0944 310.60626 491.07877 311.41876L490.00064 311.3094Q490.11002 310.09064 490.82877 309.46564Q491.56314 308.825 492.79752 308.825Q494.0319 308.825 494.75064 309.5125Q495.4694 310.2 495.4694 311.21564Q495.4694 311.73126 495.25064 312.23126Q495.04752 312.71564 494.54752 313.27814Q494.06314 313.825 492.93814 314.77814Q491.98502 315.575 491.70377 315.8719Q491.43814 316.15314 491.26627 316.4344L495.48502 316.4344ZM496.93814 315.2L498.04752 315.10626Q498.17252 315.91876 498.61002 316.325Q499.06314 316.73126 499.70377 316.73126Q500.45377 316.73126 500.98502 316.15314Q501.51627 315.575 501.51627 314.6375Q501.51627 313.73126 501.00064 313.21564Q500.50064 312.6844 499.67252 312.6844Q499.17252 312.6844 498.75064 312.91876Q498.3444 313.15314 498.11002 313.5125L497.12564 313.3875L497.95377 308.98126L502.23502 308.98126L502.23502 309.98126L498.79752 309.98126L498.3444 312.29376Q499.11002 311.7469 499.95377 311.7469Q501.07877 311.7469 501.8444 312.52814Q502.62564 313.3094 502.62564 314.54376Q502.62564 315.7 501.95377 316.5594Q501.12564 317.59064 499.70377 317.59064Q498.5319 317.59064 497.7819 316.9344Q497.04752 316.27814 496.93814 315.2ZM503.93814 313.21564Q503.93814 311.6844 504.25064 310.7625Q504.56314 309.825 505.17252 309.325Q505.79752 308.825 506.73502 308.825Q507.42252 308.825 507.93814 309.10626Q508.4694 309.3875 508.81314 309.91876Q509.1569 310.4344 509.3444 311.1844Q509.5319 311.9344 509.5319 313.21564Q509.5319 314.73126 509.2194 315.65314Q508.92252 316.575 508.29752 317.09064Q507.68814 317.59064 506.73502 317.59064Q505.50064 317.59064 504.7819 316.7Q503.93814 315.6375 503.93814 313.21564ZM505.01627 313.21564Q505.01627 315.325 505.51627 316.02814Q506.01627 316.73126 506.73502 316.73126Q507.4694 316.73126 507.95377 316.02814Q508.45377 315.325 508.45377 313.21564Q508.45377 311.09064 507.95377 310.40314Q507.4694 309.7 506.7194 309.7Q506.00064 309.7 505.56314 310.3094Q505.01627 311.09064 505.01627 313.21564Z" fill-rule="nonzero"/><path fill="#757575" d="M20.01875 37.55L20.01875 23.2375L25.39375 23.2375Q27.034374 23.2375 28.01875 23.675Q29.003124 24.096874 29.565624 25.003124Q30.128124 25.909374 30.128124 26.89375Q30.128124 27.815624 29.628124 28.628124Q29.14375 29.440624 28.128124 29.925Q29.425 30.315624 30.128124 31.2375Q30.83125 32.14375 30.83125 33.39375Q30.83125 34.409374 30.39375 35.26875Q29.971874 36.128124 29.346874 36.596874Q28.721874 37.065624 27.784374 37.315624Q26.846874 37.55 25.471874 37.55L20.01875 37.55ZM21.909374 29.253124L25.003124 29.253124Q26.26875 29.253124 26.815624 29.08125Q27.534374 28.8625 27.89375 28.378124Q28.26875 27.878124 28.26875 27.1125Q28.26875 26.409374 27.925 25.8625Q27.58125 25.315624 26.940624 25.128124Q26.315624 24.925 24.76875 24.925L21.909374 24.925L21.909374 29.253124ZM21.909374 35.8625L25.471874 35.8625Q26.39375 35.8625 26.76875 35.784374Q27.425 35.675 27.8625 35.409374Q28.3 35.128124 28.58125 34.6125Q28.8625 34.08125 28.8625 33.39375Q28.8625 32.596874 28.45625 32.003124Q28.05 31.409374 27.315624 31.175Q26.58125 30.940624 25.221874 30.940624L21.909374 30.940624L21.909374 35.8625ZM32.878124 25.253124L32.878124 23.2375L34.64375 23.2375L34.64375 25.253124L32.878124 25.253124ZM32.878124 37.55L32.878124 27.175L34.64375 27.175L34.64375 37.55L32.878124 37.55ZM40.70625 35.971874L40.95625 37.534374Q40.221874 37.690624 39.628124 37.690624Q38.675 37.690624 38.14375 37.39375Q37.628124 37.08125 37.409374 36.596874Q37.190624 36.096874 37.190624 34.51875L37.190624 28.55L35.909374 28.55L35.909374 27.175L37.190624 27.175L37.190624 24.6125L38.940624 23.55L38.940624 27.175L40.70625 27.175L40.70625 28.55L38.940624 28.55L38.940624 34.6125Q38.940624 35.3625 39.034374 35.58125Q39.128124 35.784374 39.33125 35.925Q39.55 36.05 39.940624 36.05Q40.221874 36.05 40.70625 35.971874ZM42.846874 37.55L42.846874 27.175L44.425 27.175L44.425 28.753124Q45.034374 27.64375 45.55 27.3Q46.065624 26.940624 46.675 26.940624Q47.565624 26.940624 48.4875 27.503124L47.878124 29.14375Q47.2375 28.753124 46.596874 28.753124Q46.01875 28.753124 45.55 29.1125Q45.096874 29.45625 44.89375 30.065624Q44.6125 31.003124 44.6125 32.1125L44.6125 37.55L42.846874 37.55ZM56.64375 36.26875Q55.659374 37.096874 54.753124 37.440624Q53.846874 37.784374 52.815624 37.784374Q51.1125 37.784374 50.190624 36.95625Q49.26875 36.1125 49.26875 34.815624Q49.26875 34.05 49.6125 33.425Q49.971874 32.8 50.534374 32.425Q51.096874 32.034374 51.8 31.83125Q52.315624 31.70625 53.3625 31.565624Q55.4875 31.315624 56.4875 30.971874Q56.503124 30.6125 56.503124 30.503124Q56.503124 29.440624 56.003124 28.9875Q55.33125 28.39375 54.003124 28.39375Q52.753124 28.39375 52.159374 28.83125Q51.58125 29.26875 51.3 30.378124L49.58125 30.14375Q49.815624 29.034374 50.346874 28.3625Q50.878124 27.675 51.89375 27.315624Q52.909374 26.940624 54.253124 26.940624Q55.58125 26.940624 56.409374 27.253124Q57.2375 27.565624 57.628124 28.05Q58.01875 28.51875 58.175 29.2375Q58.26875 29.690624 58.26875 30.8625L58.26875 33.20625Q58.26875 35.659374 58.378124 36.315624Q58.4875 36.95625 58.83125 37.55L56.9875 37.55Q56.721874 37.003124 56.64375 36.26875ZM56.4875 32.346874Q55.534374 32.7375 53.6125 33.003124Q52.534374 33.159374 52.08125 33.3625Q51.64375 33.55 51.39375 33.925Q51.14375 34.3 51.14375 34.76875Q51.14375 35.471874 51.675 35.940624Q52.20625 36.409374 53.2375 36.409374Q54.253124 36.409374 55.034374 35.971874Q55.83125 35.51875 56.20625 34.753124Q56.4875 34.14375 56.4875 32.9875L56.4875 32.346874ZM64.70625 35.971874L64.95625 37.534374Q64.22188 37.690624 63.628124 37.690624Q62.675 37.690624 62.14375 37.39375Q61.628124 37.08125 61.409374 36.596874Q61.190624 36.096874 61.190624 34.51875L61.190624 28.55L59.909374 28.55L59.909374 27.175L61.190624 27.175L61.190624 24.6125L62.940624 23.55L62.940624 27.175L64.70625 27.175L64.70625 28.55L62.940624 28.55L62.940624 34.6125Q62.940624 35.3625 63.034374 35.58125Q63.128124 35.784374 63.33125 35.925Q63.55 36.05 63.940624 36.05Q64.22188 36.05 64.70625 35.971874ZM73.97188 34.20625L75.78438 34.440624Q75.3625 36.01875 74.19063 36.909374Q73.03438 37.784374 71.22188 37.784374Q68.95625 37.784374 67.6125 36.39375Q66.28438 34.9875 66.28438 32.45625Q66.28438 29.83125 67.62813 28.39375Q68.97188 26.940624 71.12813 26.940624Q73.20625 26.940624 74.51875 28.3625Q75.84688 29.76875 75.84688 32.346874Q75.84688 32.503124 75.83125 32.815624L68.09688 32.815624Q68.19063 34.51875 69.06563 35.425Q69.94063 36.33125 71.2375 36.33125Q72.20625 36.33125 72.87813 35.83125Q73.56563 35.315624 73.97188 34.20625ZM68.19063 31.3625L73.9875 31.3625Q73.87813 30.065624 73.33125 29.409374Q72.4875 28.39375 71.14375 28.39375Q69.94063 28.39375 69.1125 29.20625Q68.28438 30.003124 68.19063 31.3625ZM90.64375 36.26875Q89.65938 37.096874 88.75313 37.440624Q87.84688 37.784374 86.81563 37.784374Q85.1125 37.784374 84.19063 36.95625Q83.26875 36.1125 83.26875 34.815624Q83.26875 34.05 83.6125 33.425Q83.97188 32.8 84.53438 32.425Q85.09688 32.034374 85.8 31.83125Q86.31563 31.70625 87.3625 31.565624Q89.4875 31.315624 90.4875 30.971874Q90.50313 30.6125 90.50313 30.503124Q90.50313 29.440624 90.00313 28.9875Q89.33125 28.39375 88.00313 28.39375Q86.75313 28.39375 86.15938 28.83125Q85.58125 29.26875 85.3 30.378124L83.58125 30.14375Q83.81563 29.034374 84.34688 28.3625Q84.87813 27.675 85.89375 27.315624Q86.90938 26.940624 88.25313 26.940624Q89.58125 26.940624 90.40938 27.253124Q91.2375 27.565624 91.62813 28.05Q92.01875 28.51875 92.175 29.2375Q92.26875 29.690624 92.26875 30.8625L92.26875 33.20625Q92.26875 35.659374 92.37813 36.315624Q92.4875 36.95625 92.83125 37.55L90.9875 37.55Q90.72188 37.003124 90.64375 36.26875ZM90.4875 32.346874Q89.53438 32.7375 87.6125 33.003124Q86.53438 33.159374 86.08125 33.3625Q85.64375 33.55 85.39375 33.925Q85.14375 34.3 85.14375 34.76875Q85.14375 35.471874 85.675 35.940624Q86.20625 36.409374 87.2375 36.409374Q88.25313 36.409374 89.03438 35.971874Q89.83125 35.51875 90.20625 34.753124Q90.4875 34.14375 90.4875 32.9875L90.4875 32.346874ZM94.15938 34.45625L95.90938 34.175Q96.05 35.221874 96.72188 35.784374Q97.39375 36.33125 98.59688 36.33125Q99.8 36.33125 100.37813 35.846874Q100.97188 35.346874 100.97188 34.690624Q100.97188 34.096874 100.45625 33.753124Q100.09688 33.51875 98.65938 33.159374Q96.72188 32.659374 95.97188 32.315624Q95.2375 31.95625 94.84688 31.33125Q94.45625 30.690624 94.45625 29.925Q94.45625 29.2375 94.76875 28.64375Q95.09688 28.05 95.64375 27.659374Q96.05 27.3625 96.75313 27.159374Q97.47188 26.940624 98.28438 26.940624Q99.50313 26.940624 100.425 27.3Q101.34688 27.64375 101.78438 28.253124Q102.22188 28.846874 102.39375 29.846874L100.675 30.08125Q100.55 29.284374 99.9875 28.846874Q99.425 28.39375 98.40938 28.39375Q97.19063 28.39375 96.675 28.8Q96.15938 29.190624 96.15938 29.721874Q96.15938 30.065624 96.37813 30.346874Q96.58125 30.628124 97.05 30.815624Q97.31563 30.909374 98.59688 31.253124Q100.47188 31.753124 101.20625 32.08125Q101.94063 32.39375 102.3625 33.003124Q102.78438 33.596874 102.78438 34.503124Q102.78438 35.378124 102.26875 36.159374Q101.75313 36.940624 100.78438 37.3625Q99.81563 37.784374 98.59688 37.784374Q96.58125 37.784374 95.51875 36.940624Q94.45625 36.096874 94.15938 34.45625ZM117.64375 36.26875Q116.65938 37.096874 115.75313 37.440624Q114.84688 37.784374 113.81563 37.784374Q112.1125 37.784374 111.19063 36.95625Q110.26875 36.1125 110.26875 34.815624Q110.26875 34.05 110.6125 33.425Q110.97188 32.8 111.53438 32.425Q112.09688 32.034374 112.8 31.83125Q113.31563 31.70625 114.3625 31.565624Q116.4875 31.315624 117.4875 30.971874Q117.50313 30.6125 117.50313 30.503124Q117.50313 29.440624 117.00313 28.9875Q116.33125 28.39375 115.00313 28.39375Q113.75313 28.39375 113.15938 28.83125Q112.58125 29.26875 112.3 30.378124L110.58125 30.14375Q110.81563 29.034374 111.34688 28.3625Q111.87813 27.675 112.89375 27.315624Q113.90938 26.940624 115.25313 26.940624Q116.58125 26.940624 117.40938 27.253124Q118.2375 27.565624 118.62813 28.05Q119.01875 28.51875 119.175 29.2375Q119.26875 29.690624 119.26875 30.8625L119.26875 33.20625Q119.26875 35.659374 119.37813 36.315624Q119.4875 36.95625 119.83125 37.55L117.9875 37.55Q117.72188 37.003124 117.64375 36.26875ZM117.4875 32.346874Q116.53438 32.7375 114.6125 33.003124Q113.53438 33.159374 113.08125 33.3625Q112.64375 33.55 112.39375 33.925Q112.14375 34.3 112.14375 34.76875Q112.14375 35.471874 112.675 35.940624Q113.20625 36.409374 114.2375 36.409374Q115.25313 36.409374 116.03438 35.971874Q116.83125 35.51875 117.20625 34.753124Q117.4875 34.14375 117.4875 32.9875L117.4875 32.346874ZM128.28438 37.55L128.28438 28.55L126.7375 28.55L126.7375 27.175L128.28438 27.175L128.28438 26.08125Q128.28438 25.034374 128.47188 24.51875Q128.72188 23.83125 129.3625 23.409374Q130.00313 22.9875 131.15938 22.9875Q131.90938 22.9875 132.8 23.159374L132.53438 24.690624Q131.9875 24.596874 131.50313 24.596874Q130.70625 24.596874 130.3625 24.940624Q130.03438 25.284374 130.03438 26.221874L130.03438 27.175L132.06563 27.175L132.06563 28.55L130.03438 28.55L130.03438 37.55L128.28438 37.55ZM140.65938 37.55L140.65938 36.01875Q139.45625 37.784374 137.37813 37.784374Q136.45625 37.784374 135.65938 37.440624Q134.8625 37.08125 134.47188 36.55Q134.09688 36.01875 133.94063 35.2375Q133.83125 34.721874 133.83125 33.596874L133.83125 27.175L135.58125 27.175L135.58125 32.925Q135.58125 34.3 135.69063 34.784374Q135.8625 35.471874 136.39375 35.878124Q136.94063 36.26875 137.72188 36.26875Q138.51875 36.26875 139.20625 35.8625Q139.90938 35.45625 140.19063 34.76875Q140.4875 34.065624 140.4875 32.7375L140.4875 27.175L142.2375 27.175L142.2375 37.55L140.65938 37.55ZM143.8625 37.55L143.8625 27.175L145.45625 27.175L145.45625 28.659374Q146.59688 26.940624 148.75313 26.940624Q149.69063 26.940624 150.47188 27.284374Q151.26875 27.6125 151.65938 28.159374Q152.05 28.70625 152.20625 29.45625Q152.3 29.95625 152.3 31.175L152.3 37.55L150.53438 37.55L150.53438 31.2375Q150.53438 30.159374 150.33125 29.628124Q150.12813 29.096874 149.59688 28.784374Q149.08125 28.471874 148.37813 28.471874Q147.25313 28.471874 146.44063 29.190624Q145.62813 29.89375 145.62813 31.878124L145.62813 37.55L143.8625 37.55ZM160.64375 33.753124L162.3625 33.971874Q162.08125 35.76875 160.90938 36.784374Q159.75313 37.784374 158.05 37.784374Q155.925 37.784374 154.62813 36.39375Q153.33125 35.003124 153.33125 32.409374Q153.33125 30.721874 153.87813 29.471874Q154.44063 28.20625 155.58125 27.58125Q156.72188 26.940624 158.06563 26.940624Q159.75313 26.940624 160.81563 27.8Q161.89375 28.659374 162.20625 30.221874L160.4875 30.4875Q160.25313 29.440624 159.62813 28.925Q159.00313 28.39375 158.12813 28.39375Q156.8 28.39375 155.97188 29.346874Q155.14375 30.3 155.14375 32.346874Q155.14375 34.440624 155.94063 35.39375Q156.7375 36.33125 158.03438 36.33125Q159.06563 36.33125 159.75313 35.70625Q160.45625 35.065624 160.64375 33.753124ZM167.70625 35.971874L167.95625 37.534374Q167.22188 37.690624 166.62813 37.690624Q165.675 37.690624 165.14375 37.39375Q164.62813 37.08125 164.40938 36.596874Q164.19063 36.096874 164.19063 34.51875L164.19063 28.55L162.90938 28.55L162.90938 27.175L164.19063 27.175L164.19063 24.6125L165.94063 23.55L165.94063 27.175L167.70625 27.175L167.70625 28.55L165.94063 28.55L165.94063 34.6125Q165.94063 35.3625 166.03438 35.58125Q166.12813 35.784374 166.33125 35.925Q166.55 36.05 166.94063 36.05Q167.22188 36.05 167.70625 35.971874ZM169.87813 25.253124L169.87813 23.2375L171.64375 23.2375L171.64375 25.253124L169.87813 25.253124ZM169.87813 37.55L169.87813 27.175L171.64375 27.175L171.64375 37.55L169.87813 37.55ZM173.22188 32.3625Q173.22188 29.4875 174.81563 28.096874Q176.15938 26.940624 178.08125 26.940624Q180.22188 26.940624 181.56563 28.346874Q182.925 29.753124 182.925 32.221874Q182.925 34.221874 182.33125 35.378124Q181.7375 36.51875 180.58125 37.159374Q179.44063 37.784374 178.08125 37.784374Q175.89375 37.784374 174.55 36.39375Q173.22188 34.9875 173.22188 32.3625ZM175.01875 32.3625Q175.01875 34.3625 175.87813 35.346874Q176.75313 36.33125 178.08125 36.33125Q179.39375 36.33125 180.25313 35.346874Q181.12813 34.346874 181.12813 32.3Q181.12813 30.378124 180.25313 29.39375Q179.37813 28.39375 178.08125 28.39375Q176.75313 28.39375 175.87813 29.39375Q175.01875 30.378124 175.01875 32.3625ZM184.8625 37.55L184.8625 27.175L186.45625 27.175L186.45625 28.659374Q187.59688 26.940624 189.75313 26.940624Q190.69063 26.940624 191.47188 27.284374Q192.26875 27.6125 192.65938 28.159374Q193.05 28.70625 193.20625 29.45625Q193.3 29.95625 193.3 31.175L193.3 37.55L191.53438 37.55L191.53438 31.2375Q191.53438 30.159374 191.33125 29.628124Q191.12813 29.096874 190.59688 28.784374Q190.08125 28.471874 189.37813 28.471874Q188.25313 28.471874 187.44063 29.190624Q186.62813 29.89375 186.62813 31.878124L186.62813 37.55L184.8625 37.55ZM200.22188 32.3625Q200.22188 29.4875 201.81563 28.096874Q203.15938 26.940624 205.08125 26.940624Q207.22188 26.940624 208.56563 28.346874Q209.925 29.753124 209.925 32.221874Q209.925 34.221874 209.33125 35.378124Q208.7375 36.51875 207.58125 37.159374Q206.44063 37.784374 205.08125 37.784374Q202.89375 37.784374 201.55 36.39375Q200.22188 34.9875 200.22188 32.3625ZM202.01875 32.3625Q202.01875 34.3625 202.87813 35.346874Q203.75313 36.33125 205.08125 36.33125Q206.39375 36.33125 207.25313 35.346874Q208.12813 34.346874 208.12813 32.3Q208.12813 30.378124 207.25313 29.39375Q206.37813 28.39375 205.08125 28.39375Q203.75313 28.39375 202.87813 29.39375Q202.01875 30.378124 202.01875 32.3625ZM212.28438 37.55L212.28438 28.55L210.7375 28.55L210.7375 27.175L212.28438 27.175L212.28438 26.08125Q212.28438 25.034374 212.47188 24.51875Q212.72188 23.83125 213.3625 23.409374Q214.00313 22.9875 215.15938 22.9875Q215.90938 22.9875 216.8 23.159374L216.53438 24.690624Q215.9875 24.596874 215.50313 24.596874Q214.70625 24.596874 214.3625 24.940624Q214.03438 25.284374 214.03438 26.221874L214.03438 27.175L216.06563 27.175L216.06563 28.55L214.03438 28.55L214.03438 37.55L212.28438 37.55ZM227.70625 35.971874L227.95625 37.534374Q227.22188 37.690624 226.62813 37.690624Q225.675 37.690624 225.14375 37.39375Q224.62813 37.08125 224.40938 36.596874Q224.19063 36.096874 224.19063 34.51875L224.19063 28.55L222.90938 28.55L222.90938 27.175L224.19063 27.175L224.19063 24.6125L225.94063 23.55L225.94063 27.175L227.70625 27.175L227.70625 28.55L225.94063 28.55L225.94063 34.6125Q225.94063 35.3625 226.03438 35.58125Q226.12813 35.784374 226.33125 35.925Q226.55 36.05 226.94063 36.05Q227.22188 36.05 227.70625 35.971874ZM229.8625 37.55L229.8625 23.2375L231.62813 23.2375L231.62813 28.3625Q232.8625 26.940624 234.7375 26.940624Q235.87813 26.940624 236.72188 27.39375Q237.58125 27.846874 237.94063 28.659374Q238.31563 29.45625 238.31563 30.971874L238.31563 37.55L236.56563 37.55L236.56563 30.971874Q236.56563 29.659374 235.9875 29.065624Q235.40938 28.45625 234.37813 28.45625Q233.59688 28.45625 232.89375 28.8625Q232.20625 29.26875 231.90938 29.971874Q231.62813 30.659374 231.62813 31.878124L231.62813 37.55L229.8625 37.55ZM246.97188 34.20625L248.78438 34.440624Q248.3625 36.01875 247.19063 36.909374Q246.03438 37.784374 244.22188 37.784374Q241.95625 37.784374 240.6125 36.39375Q239.28438 34.9875 239.28438 32.45625Q239.28438 29.83125 240.62813 28.39375Q241.97188 26.940624 244.12813 26.940624Q246.20625 26.940624 247.51875 28.3625Q248.84688 29.76875 248.84688 32.346874Q248.84688 32.503124 248.83125 32.815624L241.09688 32.815624Q241.19063 34.51875 242.06563 35.425Q242.94063 36.33125 244.2375 36.33125Q245.20625 36.33125 245.87813 35.83125Q246.56563 35.315624 246.97188 34.20625ZM241.19063 31.3625L246.9875 31.3625Q246.87813 30.065624 246.33125 29.409374Q245.4875 28.39375 244.14375 28.39375Q242.94063 28.39375 242.1125 29.20625Q241.28438 30.003124 241.19063 31.3625ZM263.59686 37.55L263.59686 36.2375Q262.6125 37.784374 260.6906 37.784374Q259.45624 37.784374 258.40936 37.096874Q257.3781 36.409374 256.8 35.190624Q256.2375 33.971874 256.2375 32.378124Q256.2375 30.815624 256.7531 29.55Q257.26874 28.284374 258.3 27.6125Q259.34686 26.940624 260.6125 26.940624Q261.55 26.940624 262.28436 27.346874Q263.01874 27.7375 263.4875 28.3625L263.4875 23.2375L265.22186 23.2375L265.22186 37.55L263.59686 37.55ZM258.03436 32.378124Q258.03436 34.3625 258.8781 35.346874Q259.72186 36.33125 260.8625 36.33125Q262.01874 36.33125 262.8156 35.39375Q263.6281 34.45625 263.6281 32.51875Q263.6281 30.39375 262.8 29.39375Q261.9875 28.39375 260.78436 28.39375Q259.6125 28.39375 258.8156 29.3625Q258.03436 30.315624 258.03436 32.378124ZM267.8781 25.253124L267.8781 23.2375L269.64374 23.2375L269.64374 25.253124L267.8781 25.253124ZM267.8781 37.55L267.8781 27.175L269.64374 27.175L269.64374 37.55L267.8781 37.55ZM271.15936 34.45625L272.90936 34.175Q273.05 35.221874 273.72186 35.784374Q274.39374 36.33125 275.59686 36.33125Q276.8 36.33125 277.3781 35.846874Q277.97186 35.346874 277.97186 34.690624Q277.97186 34.096874 277.45624 33.753124Q277.09686 33.51875 275.65936 33.159374Q273.72186 32.659374 272.97186 32.315624Q272.2375 31.95625 271.84686 31.33125Q271.45624 30.690624 271.45624 29.925Q271.45624 29.2375 271.76874 28.64375Q272.09686 28.05 272.64374 27.659374Q273.05 27.3625 273.7531 27.159374Q274.47186 26.940624 275.28436 26.940624Q276.5031 26.940624 277.425 27.3Q278.34686 27.64375 278.78436 28.253124Q279.22186 28.846874 279.39374 29.846874L277.675 30.08125Q277.55 29.284374 276.9875 28.846874Q276.425 28.39375 275.40936 28.39375Q274.1906 28.39375 273.675 28.8Q273.15936 29.190624 273.15936 29.721874Q273.15936 30.065624 273.3781 30.346874Q273.58124 30.628124 274.05 30.815624Q274.3156 30.909374 275.59686 31.253124Q277.47186 31.753124 278.20624 32.08125Q278.9406 32.39375 279.3625 33.003124Q279.78436 33.596874 279.78436 34.503124Q279.78436 35.378124 279.26874 36.159374Q278.7531 36.940624 277.78436 37.3625Q276.8156 37.784374 275.59686 37.784374Q273.58124 37.784374 272.51874 36.940624Q271.45624 36.096874 271.15936 34.45625ZM285.70624 35.971874L285.95624 37.534374Q285.22186 37.690624 284.6281 37.690624Q283.675 37.690624 283.14374 37.39375Q282.6281 37.08125 282.40936 36.596874Q282.1906 36.096874 282.1906 34.51875L282.1906 28.55L280.90936 28.55L280.90936 27.175L282.1906 27.175L282.1906 24.6125L283.9406 23.55L283.9406 27.175L285.70624 27.175L285.70624 28.55L283.9406 28.55L283.9406 34.6125Q283.9406 35.3625 284.03436 35.58125Q284.1281 35.784374 284.33124 35.925Q284.55 36.05 284.9406 36.05Q285.22186 36.05 285.70624 35.971874ZM294.64374 36.26875Q293.65936 37.096874 292.7531 37.440624Q291.84686 37.784374 290.8156 37.784374Q289.1125 37.784374 288.1906 36.95625Q287.26874 36.1125 287.26874 34.815624Q287.26874 34.05 287.6125 33.425Q287.97186 32.8 288.53436 32.425Q289.09686 32.034374 289.8 31.83125Q290.3156 31.70625 291.3625 31.565624Q293.4875 31.315624 294.4875 30.971874Q294.5031 30.6125 294.5031 30.503124Q294.5031 29.440624 294.0031 28.9875Q293.33124 28.39375 292.0031 28.39375Q290.7531 28.39375 290.15936 28.83125Q289.58124 29.26875 289.3 30.378124L287.58124 30.14375Q287.8156 29.034374 288.34686 28.3625Q288.8781 27.675 289.89374 27.315624Q290.90936 26.940624 292.2531 26.940624Q293.58124 26.940624 294.40936 27.253124Q295.2375 27.565624 295.6281 28.05Q296.01874 28.51875 296.175 29.2375Q296.26874 29.690624 296.26874 30.8625L296.26874 33.20625Q296.26874 35.659374 296.3781 36.315624Q296.4875 36.95625 296.83124 37.55L294.9875 37.55Q294.72186 37.003124 294.64374 36.26875ZM294.4875 32.346874Q293.53436 32.7375 291.6125 33.003124Q290.53436 33.159374 290.08124 33.3625Q289.64374 33.55 289.39374 33.925Q289.14374 34.3 289.14374 34.76875Q289.14374 35.471874 289.675 35.940624Q290.20624 36.409374 291.2375 36.409374Q292.2531 36.409374 293.03436 35.971874Q293.83124 35.51875 294.20624 34.753124Q294.4875 34.14375 294.4875 32.9875L294.4875 32.346874ZM298.8625 37.55L298.8625 27.175L300.45624 27.175L300.45624 28.659374Q301.59686 26.940624 303.7531 26.940624Q304.6906 26.940624 305.47186 27.284374Q306.26874 27.6125 306.65936 28.159374Q307.05 28.70625 307.20624 29.45625Q307.3 29.95625 307.3 31.175L307.3 37.55L305.53436 37.55L305.53436 31.2375Q305.53436 30.159374 305.33124 29.628124Q305.1281 29.096874 304.59686 28.784374Q304.08124 28.471874 303.3781 28.471874Q302.2531 28.471874 301.4406 29.190624Q300.6281 29.89375 300.6281 31.878124L300.6281 37.55L298.8625 37.55ZM315.64374 33.753124L317.3625 33.971874Q317.08124 35.76875 315.90936 36.784374Q314.7531 37.784374 313.05 37.784374Q310.925 37.784374 309.6281 36.39375Q308.33124 35.003124 308.33124 32.409374Q308.33124 30.721874 308.8781 29.471874Q309.4406 28.20625 310.58124 27.58125Q311.72186 26.940624 313.0656 26.940624Q314.7531 26.940624 315.8156 27.8Q316.89374 28.659374 317.20624 30.221874L315.4875 30.4875Q315.2531 29.440624 314.6281 28.925Q314.0031 28.39375 313.1281 28.39375Q311.8 28.39375 310.97186 29.346874Q310.14374 30.3 310.14374 32.346874Q310.14374 34.440624 310.9406 35.39375Q311.7375 36.33125 313.03436 36.33125Q314.0656 36.33125 314.7531 35.70625Q315.45624 35.065624 315.64374 33.753124ZM325.97186 34.20625L327.78436 34.440624Q327.3625 36.01875 326.1906 36.909374Q325.03436 37.784374 323.22186 37.784374Q320.95624 37.784374 319.6125 36.39375Q318.28436 34.9875 318.28436 32.45625Q318.28436 29.83125 319.6281 28.39375Q320.97186 26.940624 323.1281 26.940624Q325.20624 26.940624 326.51874 28.3625Q327.84686 29.76875 327.84686 32.346874Q327.84686 32.503124 327.83124 32.815624L320.09686 32.815624Q320.1906 34.51875 321.0656 35.425Q321.9406 36.33125 323.2375 36.33125Q324.20624 36.33125 324.8781 35.83125Q325.5656 35.315624 325.97186 34.20625ZM320.1906 31.3625L325.9875 31.3625Q325.8781 30.065624 325.33124 29.409374Q324.4875 28.39375 323.14374 28.39375Q321.9406 28.39375 321.1125 29.20625Q320.28436 30.003124 320.1906 31.3625ZM339.22186 41.753124Q337.76874 39.925 336.76874 37.471874Q335.76874 35.003124 335.76874 32.3625Q335.76874 30.034374 336.51874 27.909374Q337.39374 25.440624 339.22186 22.9875L340.4875 22.9875Q339.3 25.01875 338.925 25.89375Q338.33124 27.2375 337.9875 28.70625Q337.5656 30.534374 337.5656 32.378124Q337.5656 37.065624 340.4875 41.753124L339.22186 41.753124ZM343.1906 37.55L343.1906 23.2375L352.84686 23.2375L352.84686 24.925L345.08124 24.925L345.08124 29.3625L351.8 29.3625L351.8 31.05L345.08124 31.05L345.08124 37.55L343.1906 37.55ZM354.84686 37.55L354.84686 27.175L356.425 27.175L356.425 28.753124Q357.03436 27.64375 357.55 27.3Q358.0656 26.940624 358.675 26.940624Q359.5656 26.940624 360.4875 27.503124L359.8781 29.14375Q359.2375 28.753124 358.59686 28.753124Q358.01874 28.753124 357.55 29.1125Q357.09686 29.45625 356.89374 30.065624Q356.6125 31.003124 356.6125 32.1125L356.6125 37.55L354.84686 37.55ZM361.8781 25.253124L361.8781 23.2375L363.64374 23.2375L363.64374 25.253124L361.8781 25.253124ZM361.8781 37.55L361.8781 27.175L363.64374 27.175L363.64374 37.55L361.8781 37.55ZM365.8781 25.253124L365.8781 23.2375L367.64374 23.2375L367.64374 25.253124L365.8781 25.253124ZM365.8781 37.55L365.8781 27.175L367.64374 27.175L367.64374 37.55L365.8781 37.55ZM369.15936 34.45625L370.90936 34.175Q371.05 35.221874 371.72186 35.784374Q372.39374 36.33125 373.59686 36.33125Q374.8 36.33125 375.3781 35.846874Q375.97186 35.346874 375.97186 34.690624Q375.97186 34.096874 375.45624 33.753124Q375.09686 33.51875 373.65936 33.159374Q371.72186 32.659374 370.97186 32.315624Q370.2375 31.95625 369.84686 31.33125Q369.45624 30.690624 369.45624 29.925Q369.45624 29.2375 369.76874 28.64375Q370.09686 28.05 370.64374 27.659374Q371.05 27.3625 371.7531 27.159374Q372.47186 26.940624 373.28436 26.940624Q374.5031 26.940624 375.425 27.3Q376.34686 27.64375 376.78436 28.253124Q377.22186 28.846874 377.39374 29.846874L375.675 30.08125Q375.55 29.284374 374.9875 28.846874Q374.425 28.39375 373.40936 28.39375Q372.1906 28.39375 371.675 28.8Q371.15936 29.190624 371.15936 29.721874Q371.15936 30.065624 371.3781 30.346874Q371.58124 30.628124 372.05 30.815624Q372.3156 30.909374 373.59686 31.253124Q375.47186 31.753124 376.20624 32.08125Q376.9406 32.39375 377.3625 33.003124Q377.78436 33.596874 377.78436 34.503124Q377.78436 35.378124 377.26874 36.159374Q376.7531 36.940624 375.78436 37.3625Q374.8156 37.784374 373.59686 37.784374Q371.58124 37.784374 370.51874 36.940624Q369.45624 36.096874 369.15936 34.45625ZM385.8625 37.55L385.8625 27.175L387.4406 27.175L387.4406 28.628124Q387.925 27.878124 388.7375 27.409374Q389.55 26.940624 390.58124 26.940624Q391.7375 26.940624 392.47186 27.425Q393.20624 27.89375 393.51874 28.753124Q394.7531 26.940624 396.72186 26.940624Q398.26874 26.940624 399.09686 27.8Q399.925 28.659374 399.925 30.425L399.925 37.55L398.175 37.55L398.175 31.01875Q398.175 29.95625 398.0031 29.503124Q397.83124 29.034374 397.3781 28.753124Q396.9406 28.471874 396.33124 28.471874Q395.2375 28.471874 394.5031 29.20625Q393.78436 29.925 393.78436 31.51875L393.78436 37.55L392.03436 37.55L392.03436 30.815624Q392.03436 29.64375 391.59686 29.065624Q391.175 28.471874 390.1906 28.471874Q389.45624 28.471874 388.8156 28.8625Q388.1906 29.253124 387.90936 30.003124Q387.6281 30.753124 387.6281 32.175L387.6281 37.55L385.8625 37.55ZM401.22186 32.3625Q401.22186 29.4875 402.8156 28.096874Q404.15936 26.940624 406.08124 26.940624Q408.22186 26.940624 409.5656 28.346874Q410.925 29.753124 410.925 32.221874Q410.925 34.221874 410.33124 35.378124Q409.7375 36.51875 408.58124 37.159374Q407.4406 37.784374 406.08124 37.784374Q403.89374 37.784374 402.55 36.39375Q401.22186 34.9875 401.22186 32.3625ZM403.01874 32.3625Q403.01874 34.3625 403.8781 35.346874Q404.7531 36.33125 406.08124 36.33125Q407.39374 36.33125 408.2531 35.346874Q409.1281 34.346874 409.1281 32.3Q409.1281 30.378124 408.2531 29.39375Q407.3781 28.39375 406.08124 28.39375Q404.7531 28.39375 403.8781 29.39375Q403.01874 30.378124 403.01874 32.3625ZM419.59686 37.55L419.59686 36.2375Q418.6125 37.784374 416.6906 37.784374Q415.45624 37.784374 414.40936 37.096874Q413.3781 36.409374 412.8 35.190624Q412.2375 33.971874 412.2375 32.378124Q412.2375 30.815624 412.7531 29.55Q413.26874 28.284374 414.3 27.6125Q415.34686 26.940624 416.6125 26.940624Q417.55 26.940624 418.28436 27.346874Q419.01874 27.7375 419.4875 28.3625L419.4875 23.2375L421.22186 23.2375L421.22186 37.55L419.59686 37.55ZM414.03436 32.378124Q414.03436 34.3625 414.8781 35.346874Q415.72186 36.33125 416.8625 36.33125Q418.01874 36.33125 418.8156 35.39375Q419.6281 34.45625 419.6281 32.51875Q419.6281 30.39375 418.8 29.39375Q417.9875 28.39375 416.78436 28.39375Q415.6125 28.39375 414.8156 29.3625Q414.03436 30.315624 414.03436 32.378124ZM430.97186 34.20625L432.78436 34.440624Q432.3625 36.01875 431.1906 36.909374Q430.03436 37.784374 428.22186 37.784374Q425.95624 37.784374 424.6125 36.39375Q423.28436 34.9875 423.28436 32.45625Q423.28436 29.83125 424.6281 28.39375Q425.97186 26.940624 428.1281 26.940624Q430.20624 26.940624 431.51874 28.3625Q432.84686 29.76875 432.84686 32.346874Q432.84686 32.503124 432.83124 32.815624L425.09686 32.815624Q425.1906 34.51875 426.0656 35.425Q426.9406 36.33125 428.2375 36.33125Q429.20624 36.33125 429.8781 35.83125Q430.5656 35.315624 430.97186 34.20625ZM425.1906 31.3625L430.9875 31.3625Q430.8781 30.065624 430.33124 29.409374Q429.4875 28.39375 428.14374 28.39375Q426.9406 28.39375 426.1125 29.20625Q425.28436 30.003124 425.1906 31.3625ZM434.83124 37.55L434.83124 23.2375L436.58124 23.2375L436.58124 37.55L434.83124 37.55ZM440.01874 41.753124L438.76874 41.753124Q441.675 37.065624 441.675 32.378124Q441.675 30.534374 441.26874 28.7375Q440.925 27.26875 440.33124 25.925Q439.95624 25.034374 438.76874 22.9875L440.01874 22.9875Q441.8625 25.440624 442.7375 27.909374Q443.4875 30.034374 443.4875 32.3625Q443.4875 35.003124 442.47186 37.471874Q441.47186 39.925 440.01874 41.753124Z" fill-rule="nonzero"/></svg>