<svg version="1.1" viewBox="0.0 0.0 643.0 396.0" fill="none" stroke="none" stroke-linecap="square" stroke-miterlimit="10" width="643" height="396" xmlns:xlink="http://www.w3.org/1999/xlink" xmlns="http://www.w3.org/2000/svg"><path fill="#ffffff" d="M0 0L643.0 0L643.0 396.0L0 396.0L0 0Z" fill-rule="nonzero"/><path stroke="#cccccc" stroke-width="1.0" stroke-linecap="butt" d="M182.5 64.5L182.5 324.5" fill-rule="nonzero"/><path stroke="#cccccc" stroke-width="1.0" stroke-linecap="butt" d="M292.5 64.5L292.5 324.5" fill-rule="nonzero"/><path stroke="#cccccc" stroke-width="1.0" stroke-linecap="butt" d="M402.5 64.5L402.5 324.5" fill-rule="nonzero"/><path stroke="#cccccc" stroke-width="1.0" stroke-linecap="butt" d="M512.5 64.5L512.5 324.5" fill-rule="nonzero"/><path stroke="#cccccc" stroke-width="1.0" stroke-linecap="butt" d="M623.5 64.5L623.5 324.5" fill-rule="nonzero"/><path stroke="#cccccc" stroke-width="1.0" stroke-linecap="butt" d="M82.5 324.5L623.5 324.5" fill-rule="nonzero"/><path stroke="#cccccc" stroke-width="1.0" stroke-linecap="butt" d="M82.5 259.5L623.5 259.5" fill-rule="nonzero"/><path stroke="#cccccc" stroke-width="1.0" stroke-linecap="butt" d="M82.5 194.5L623.5 194.5" fill-rule="nonzero"/><path stroke="#cccccc" stroke-width="1.0" stroke-linecap="butt" d="M82.5 129.5L623.5 129.5" fill-rule="nonzero"/><path stroke="#333333" stroke-width="1.0" stroke-linecap="butt" d="M82.5 64.5L623.5 64.5" fill-rule="nonzero"/><clipPath id="id_0"><path d="M82.8 64.0L623.2 64.0L623.2 324.2L82.8 324.2L82.8 64.0Z" clip-rule="nonzero"/></clipPath><path stroke="#4285f4" stroke-width="2.0" stroke-linecap="butt" clip-path="url(#id_0)" d="M82.8 186.294L93.828575 194.1L104.85714 186.294L115.88571 214.916L126.91428 233.13L137.94286 204.508L148.97144 209.712L160.0 225.324L171.02856 214.916L182.05714 225.324L193.08571 253.946L204.11429 212.314L215.14285 209.712L226.17143 227.926L237.2 225.324L248.22858 238.334L259.25714 235.732L270.2857 204.508L281.3143 204.508L292.34286 240.936L303.37143 209.712L314.4 243.538L325.42856 222.722L336.45715 246.14L347.48572 230.528L358.51428 253.946L369.54285 214.916L380.57144 240.936L391.6 243.538L402.62857 214.916L413.65714 209.712L424.6857 238.334L435.7143 266.956L446.74286 248.742L457.77142 277.364L468.8 243.538L479.82858 264.354L490.85715 300.782L501.8857 311.19L512.9143 311.19L523.9429 298.18L534.97144 295.578L546.0 300.782L557.02856 300.782L568.0571 277.364L579.0857 298.18L590.11426 277.364L601.1429 298.18L612.17145 285.17L623.2 295.578" fill-rule="nonzero"/><path fill="#000000" fill-opacity="0.0" clip-path="url(#id_0)" d="M85.8 186.294C85.8 187.95085 84.456856 189.294 82.8 189.294C81.14314 189.294 79.8 187.95085 79.8 186.294C79.8 184.63715 81.14314 183.294 82.8 183.294C84.456856 183.294 85.8 184.63715 85.8 186.294Z" fill-rule="nonzero"/><path fill="#000000" fill-opacity="0.0" clip-path="url(#id_0)" d="M96.828575 194.1C96.828575 195.75685 95.48543 197.1 93.828575 197.1C92.171715 197.1 90.828575 195.75685 90.828575 194.1C90.828575 192.44315 92.171715 191.1 93.828575 191.1C95.48543 191.1 96.828575 192.44315 96.828575 194.1Z" fill-rule="nonzero"/><path fill="#000000" fill-opacity="0.0" clip-path="url(#id_0)" d="M107.85714 186.294C107.85714 187.95085 106.514 189.294 104.85714 189.294C103.20029 189.294 101.85714 187.95085 101.85714 186.294C101.85714 184.63715 103.20029 183.294 104.85714 183.294C106.514 183.294 107.85714 184.63715 107.85714 186.294Z" fill-rule="nonzero"/><path fill="#000000" fill-opacity="0.0" clip-path="url(#id_0)" d="M118.88571 214.916C118.88571 216.57286 117.54257 217.916 115.88571 217.916C114.22886 217.916 112.88571 216.57286 112.88571 214.916C112.88571 213.25914 114.22886 211.916 115.88571 211.916C117.54257 211.916 118.88571 213.25914 118.88571 214.916Z" fill-rule="nonzero"/><path fill="#000000" fill-opacity="0.0" clip-path="url(#id_0)" d="M129.91429 233.13C129.91429 234.78685 128.57114 236.13 126.91428 236.13C125.25743 236.13 123.91428 234.78685 123.91428 233.13C123.91428 231.47314 125.25743 230.13 126.91428 230.13C128.57114 230.13 129.91429 231.47314 129.91429 233.13Z" fill-rule="nonzero"/><path fill="#000000" fill-opacity="0.0" clip-path="url(#id_0)" d="M140.94286 204.508C140.94286 206.16486 139.59972 207.508 137.94286 207.508C136.286 207.508 134.94286 206.16486 134.94286 204.508C134.94286 202.85115 136.286 201.508 137.94286 201.508C139.59972 201.508 140.94286 202.85115 140.94286 204.508Z" fill-rule="nonzero"/><path fill="#000000" fill-opacity="0.0" clip-path="url(#id_0)" d="M151.97144 209.712C151.97144 211.36885 150.62828 212.712 148.97144 212.712C147.31458 212.712 145.97144 211.36885 145.97144 209.712C145.97144 208.05515 147.31458 206.712 148.97144 206.712C150.62828 206.712 151.97144 208.05515 151.97144 209.712Z" fill-rule="nonzero"/><path fill="#000000" fill-opacity="0.0" clip-path="url(#id_0)" d="M163.0 225.324C163.0 226.98085 161.65686 228.324 160.0 228.324C158.34314 228.324 157.0 226.98085 157.0 225.324C157.0 223.66714 158.34314 222.324 160.0 222.324C161.65686 222.324 163.0 223.66714 163.0 225.324Z" fill-rule="nonzero"/><path fill="#000000" fill-opacity="0.0" clip-path="url(#id_0)" d="M174.02856 214.916C174.02856 216.57286 172.68542 217.916 171.02856 217.916C169.37172 217.916 168.02856 216.57286 168.02856 214.916C168.02856 213.25914 169.37172 211.916 171.02856 211.916C172.68542 211.916 174.02856 213.25914 174.02856 214.916Z" fill-rule="nonzero"/><path fill="#000000" fill-opacity="0.0" clip-path="url(#id_0)" d="M185.05714 225.324C185.05714 226.98085 183.714 228.324 182.05714 228.324C180.40028 228.324 179.05714 226.98085 179.05714 225.324C179.05714 223.66714 180.40028 222.324 182.05714 222.324C183.714 222.324 185.05714 223.66714 185.05714 225.324Z" fill-rule="nonzero"/><path fill="#000000" fill-opacity="0.0" clip-path="url(#id_0)" d="M196.08571 253.946C196.08571 255.60286 194.74257 256.946 193.08571 256.946C191.42886 256.946 190.08571 255.60286 190.08571 253.946C190.08571 252.28914 191.42886 250.946 193.08571 250.946C194.74257 250.946 196.08571 252.28914 196.08571 253.946Z" fill-rule="nonzero"/><path fill="#000000" fill-opacity="0.0" clip-path="url(#id_0)" d="M207.11429 212.314C207.11429 213.97086 205.77113 215.314 204.11429 215.314C202.45743 215.314 201.11429 213.97086 201.11429 212.314C201.11429 210.65715 202.45743 209.314 204.11429 209.314C205.77113 209.314 207.11429 210.65715 207.11429 212.314Z" fill-rule="nonzero"/><path fill="#000000" fill-opacity="0.0" clip-path="url(#id_0)" d="M218.14285 209.712C218.14285 211.36885 216.79971 212.712 215.14285 212.712C213.48601 212.712 212.14285 211.36885 212.14285 209.712C212.14285 208.05515 213.48601 206.712 215.14285 206.712C216.79971 206.712 218.14285 208.05515 218.14285 209.712Z" fill-rule="nonzero"/><path fill="#000000" fill-opacity="0.0" clip-path="url(#id_0)" d="M229.17143 227.926C229.17143 229.58286 227.82828 230.926 226.17143 230.926C224.51457 230.926 223.17143 229.58286 223.17143 227.926C223.17143 226.26915 224.51457 224.926 226.17143 224.926C227.82828 224.926 229.17143 226.26915 229.17143 227.926Z" fill-rule="nonzero"/><path fill="#000000" fill-opacity="0.0" clip-path="url(#id_0)" d="M240.2 225.324C240.2 226.98085 238.85686 228.324 237.2 228.324C235.54315 228.324 234.2 226.98085 234.2 225.324C234.2 223.66714 235.54315 222.324 237.2 222.324C238.85686 222.324 240.2 223.66714 240.2 225.324Z" fill-rule="nonzero"/><path fill="#000000" fill-opacity="0.0" clip-path="url(#id_0)" d="M251.22858 238.334C251.22858 239.99086 249.88542 241.334 248.22858 241.334C246.57172 241.334 245.22858 239.99086 245.22858 238.334C245.22858 236.67714 246.57172 235.334 248.22858 235.334C249.88542 235.334 251.22858 236.67714 251.22858 238.334Z" fill-rule="nonzero"/><path fill="#000000" fill-opacity="0.0" clip-path="url(#id_0)" d="M262.25714 235.732C262.25714 237.38885 260.914 238.732 259.25714 238.732C257.60028 238.732 256.25714 237.38885 256.25714 235.732C256.25714 234.07515 257.60028 232.732 259.25714 232.732C260.914 232.732 262.25714 234.07515 262.25714 235.732Z" fill-rule="nonzero"/><path fill="#000000" fill-opacity="0.0" clip-path="url(#id_0)" d="M273.2857 204.508C273.2857 206.16486 271.94257 207.508 270.2857 207.508C268.62885 207.508 267.2857 206.16486 267.2857 204.508C267.2857 202.85115 268.62885 201.508 270.2857 201.508C271.94257 201.508 273.2857 202.85115 273.2857 204.508Z" fill-rule="nonzero"/><path fill="#000000" fill-opacity="0.0" clip-path="url(#id_0)" d="M284.3143 204.508C284.3143 206.16486 282.97113 207.508 281.3143 207.508C279.65744 207.508 278.3143 206.16486 278.3143 204.508C278.3143 202.85115 279.65744 201.508 281.3143 201.508C282.97113 201.508 284.3143 202.85115 284.3143 204.508Z" fill-rule="nonzero"/><path fill="#000000" fill-opacity="0.0" clip-path="url(#id_0)" d="M295.34286 240.936C295.34286 242.59285 293.99973 243.936 292.34286 243.936C290.686 243.936 289.34286 242.59285 289.34286 240.936C289.34286 239.27914 290.686 237.936 292.34286 237.936C293.99973 237.936 295.34286 239.27914 295.34286 240.936Z" fill-rule="nonzero"/><path fill="#000000" fill-opacity="0.0" clip-path="url(#id_0)" d="M306.37143 209.712C306.37143 211.36885 305.0283 212.712 303.37143 212.712C301.71457 212.712 300.37143 211.36885 300.37143 209.712C300.37143 208.05515 301.71457 206.712 303.37143 206.712C305.0283 206.712 306.37143 208.05515 306.37143 209.712Z" fill-rule="nonzero"/><path fill="#000000" fill-opacity="0.0" clip-path="url(#id_0)" d="M317.4 243.538C317.4 245.19485 316.05685 246.538 314.4 246.538C312.74313 246.538 311.4 245.19485 311.4 243.538C311.4 241.88115 312.74313 240.538 314.4 240.538C316.05685 240.538 317.4 241.88115 317.4 243.538Z" fill-rule="nonzero"/><path fill="#000000" fill-opacity="0.0" clip-path="url(#id_0)" d="M328.42856 222.722C328.42856 224.37886 327.08542 225.722 325.42856 225.722C323.77173 225.722 322.42856 224.37886 322.42856 222.722C322.42856 221.06514 323.77173 219.722 325.42856 219.722C327.08542 219.722 328.42856 221.06514 328.42856 222.722Z" fill-rule="nonzero"/><path fill="#000000" fill-opacity="0.0" clip-path="url(#id_0)" d="M339.45715 246.14C339.45715 247.79686 338.11398 249.14 336.45715 249.14C334.8003 249.14 333.45715 247.79686 333.45715 246.14C333.45715 244.48314 334.8003 243.14 336.45715 243.14C338.11398 243.14 339.45715 244.48314 339.45715 246.14Z" fill-rule="nonzero"/><path fill="#000000" fill-opacity="0.0" clip-path="url(#id_0)" d="M350.48572 230.528C350.48572 232.18486 349.14258 233.528 347.48572 233.528C345.82886 233.528 344.48572 232.18486 344.48572 230.528C344.48572 228.87114 345.82886 227.528 347.48572 227.528C349.14258 227.528 350.48572 228.87114 350.48572 230.528Z" fill-rule="nonzero"/><path fill="#000000" fill-opacity="0.0" clip-path="url(#id_0)" d="M361.51428 253.946C361.51428 255.60286 360.17114 256.946 358.51428 256.946C356.85742 256.946 355.51428 255.60286 355.51428 253.946C355.51428 252.28914 356.85742 250.946 358.51428 250.946C360.17114 250.946 361.51428 252.28914 361.51428 253.946Z" fill-rule="nonzero"/><path fill="#000000" fill-opacity="0.0" clip-path="url(#id_0)" d="M372.54285 214.916C372.54285 216.57286 371.1997 217.916 369.54285 217.916C367.88602 217.916 366.54285 216.57286 366.54285 214.916C366.54285 213.25914 367.88602 211.916 369.54285 211.916C371.1997 211.916 372.54285 213.25914 372.54285 214.916Z" fill-rule="nonzero"/><path fill="#000000" fill-opacity="0.0" clip-path="url(#id_0)" d="M383.57144 240.936C383.57144 242.59285 382.22827 243.936 380.57144 243.936C378.91458 243.936 377.57144 242.59285 377.57144 240.936C377.57144 239.27914 378.91458 237.936 380.57144 237.936C382.22827 237.936 383.57144 239.27914 383.57144 240.936Z" fill-rule="nonzero"/><path fill="#000000" fill-opacity="0.0" clip-path="url(#id_0)" d="M394.6 243.538C394.6 245.19485 393.25687 246.538 391.6 246.538C389.94315 246.538 388.6 245.19485 388.6 243.538C388.6 241.88115 389.94315 240.538 391.6 240.538C393.25687 240.538 394.6 241.88115 394.6 243.538Z" fill-rule="nonzero"/><path fill="#000000" fill-opacity="0.0" clip-path="url(#id_0)" d="M405.62857 214.916C405.62857 216.57286 404.28543 217.916 402.62857 217.916C400.9717 217.916 399.62857 216.57286 399.62857 214.916C399.62857 213.25914 400.9717 211.916 402.62857 211.916C404.28543 211.916 405.62857 213.25914 405.62857 214.916Z" fill-rule="nonzero"/><path fill="#000000" fill-opacity="0.0" clip-path="url(#id_0)" d="M416.65714 209.712C416.65714 211.36885 415.314 212.712 413.65714 212.712C412.00027 212.712 410.65714 211.36885 410.65714 209.712C410.65714 208.05515 412.00027 206.712 413.65714 206.712C415.314 206.712 416.65714 208.05515 416.65714 209.712Z" fill-rule="nonzero"/><path fill="#000000" fill-opacity="0.0" clip-path="url(#id_0)" d="M427.6857 238.334C427.6857 239.99086 426.34256 241.334 424.6857 241.334C423.02887 241.334 421.6857 239.99086 421.6857 238.334C421.6857 236.67714 423.02887 235.334 424.6857 235.334C426.34256 235.334 427.6857 236.67714 427.6857 238.334Z" fill-rule="nonzero"/><path fill="#000000" fill-opacity="0.0" clip-path="url(#id_0)" d="M438.7143 266.956C438.7143 268.61285 437.37115 269.956 435.7143 269.956C434.05743 269.956 432.7143 268.61285 432.7143 266.956C432.7143 265.29913 434.05743 263.956 435.7143 263.956C437.37115 263.956 438.7143 265.29913 438.7143 266.956Z" fill-rule="nonzero"/><path fill="#000000" fill-opacity="0.0" clip-path="url(#id_0)" d="M449.74286 248.742C449.74286 250.39885 448.39972 251.742 446.74286 251.742C445.086 251.742 443.74286 250.39885 443.74286 248.742C443.74286 247.08514 445.086 245.742 446.74286 245.742C448.39972 245.742 449.74286 247.08514 449.74286 248.742Z" fill-rule="nonzero"/><path fill="#000000" fill-opacity="0.0" clip-path="url(#id_0)" d="M460.77142 277.364C460.77142 279.02084 459.42828 280.364 457.77142 280.364C456.11456 280.364 454.77142 279.02084 454.77142 277.364C454.77142 275.70715 456.11456 274.364 457.77142 274.364C459.42828 274.364 460.77142 275.70715 460.77142 277.364Z" fill-rule="nonzero"/><path fill="#000000" fill-opacity="0.0" clip-path="url(#id_0)" d="M471.8 243.538C471.8 245.19485 470.45685 246.538 468.8 246.538C467.14316 246.538 465.8 245.19485 465.8 243.538C465.8 241.88115 467.14316 240.538 468.8 240.538C470.45685 240.538 471.8 241.88115 471.8 243.538Z" fill-rule="nonzero"/><path fill="#000000" fill-opacity="0.0" clip-path="url(#id_0)" d="M482.82858 264.354C482.82858 266.01086 481.4854 267.354 479.82858 267.354C478.17172 267.354 476.82858 266.01086 476.82858 264.354C476.82858 262.69714 478.17172 261.354 479.82858 261.354C481.4854 261.354 482.82858 262.69714 482.82858 264.354Z" fill-rule="nonzero"/><path fill="#000000" fill-opacity="0.0" clip-path="url(#id_0)" d="M493.85715 300.782C493.85715 302.43884 492.514 303.782 490.85715 303.782C489.2003 303.782 487.85715 302.43884 487.85715 300.782C487.85715 299.12515 489.2003 297.782 490.85715 297.782C492.514 297.782 493.85715 299.12515 493.85715 300.782Z" fill-rule="nonzero"/><path fill="#000000" fill-opacity="0.0" clip-path="url(#id_0)" d="M504.8857 311.19C504.8857 312.84686 503.54257 314.19 501.8857 314.19C500.22885 314.19 498.8857 312.84686 498.8857 311.19C498.8857 309.53314 500.22885 308.19 501.8857 308.19C503.54257 308.19 504.8857 309.53314 504.8857 311.19Z" fill-rule="nonzero"/><path fill="#000000" fill-opacity="0.0" clip-path="url(#id_0)" d="M515.9143 311.19C515.9143 312.84686 514.57117 314.19 512.9143 314.19C511.25745 314.19 509.91428 312.84686 509.91428 311.19C509.91428 309.53314 511.25745 308.19 512.9143 308.19C514.57117 308.19 515.9143 309.53314 515.9143 311.19Z" fill-rule="nonzero"/><path fill="#000000" fill-opacity="0.0" clip-path="url(#id_0)" d="M526.9429 298.18C526.9429 299.83685 525.59973 301.18 523.9429 301.18C522.286 301.18 520.9429 299.83685 520.9429 298.18C520.9429 296.52313 522.286 295.18 523.9429 295.18C525.59973 295.18 526.9429 296.52313 526.9429 298.18Z" fill-rule="nonzero"/><path fill="#000000" fill-opacity="0.0" clip-path="url(#id_0)" d="M537.97144 295.578C537.97144 297.23486 536.6283 298.578 534.97144 298.578C533.3146 298.578 531.97144 297.23486 531.97144 295.578C531.97144 293.92114 533.3146 292.578 534.97144 292.578C536.6283 292.578 537.97144 293.92114 537.97144 295.578Z" fill-rule="nonzero"/><path fill="#000000" fill-opacity="0.0" clip-path="url(#id_0)" d="M549.0 300.782C549.0 302.43884 547.65686 303.782 546.0 303.782C544.34314 303.782 543.0 302.43884 543.0 300.782C543.0 299.12515 544.34314 297.782 546.0 297.782C547.65686 297.782 549.0 299.12515 549.0 300.782Z" fill-rule="nonzero"/><path fill="#000000" fill-opacity="0.0" clip-path="url(#id_0)" d="M560.02856 300.782C560.02856 302.43884 558.6854 303.782 557.02856 303.782C555.3717 303.782 554.02856 302.43884 554.02856 300.782C554.02856 299.12515 555.3717 297.782 557.02856 297.782C558.6854 297.782 560.02856 299.12515 560.02856 300.782Z" fill-rule="nonzero"/><path fill="#000000" fill-opacity="0.0" clip-path="url(#id_0)" d="M571.0571 277.364C571.0571 279.02084 569.714 280.364 568.0571 280.364C566.40027 280.364 565.0571 279.02084 565.0571 277.364C565.0571 275.70715 566.40027 274.364 568.0571 274.364C569.714 274.364 571.0571 275.70715 571.0571 277.364Z" fill-rule="nonzero"/><path fill="#000000" fill-opacity="0.0" clip-path="url(#id_0)" d="M582.0857 298.18C582.0857 299.83685 580.74255 301.18 579.0857 301.18C577.42883 301.18 576.0857 299.83685 576.0857 298.18C576.0857 296.52313 577.42883 295.18 579.0857 295.18C580.74255 295.18 582.0857 296.52313 582.0857 298.18Z" fill-rule="nonzero"/><path fill="#000000" fill-opacity="0.0" clip-path="url(#id_0)" d="M593.11426 277.364C593.11426 279.02084 591.7711 280.364 590.11426 280.364C588.45746 280.364 587.11426 279.02084 587.11426 277.364C587.11426 275.70715 588.45746 274.364 590.11426 274.364C591.7711 274.364 593.11426 275.70715 593.11426 277.364Z" fill-rule="nonzero"/><path fill="#000000" fill-opacity="0.0" clip-path="url(#id_0)" d="M604.1429 298.18C604.1429 299.83685 602.7997 301.18 601.1429 301.18C599.486 301.18 598.1429 299.83685 598.1429 298.18C598.1429 296.52313 599.486 295.18 601.1429 295.18C602.7997 295.18 604.1429 296.52313 604.1429 298.18Z" fill-rule="nonzero"/><path fill="#000000" fill-opacity="0.0" clip-path="url(#id_0)" d="M615.17145 285.17C615.17145 286.82684 613.8283 288.17 612.17145 288.17C610.5146 288.17 609.17145 286.82684 609.17145 285.17C609.17145 283.51315 610.5146 282.17 612.17145 282.17C613.8283 282.17 615.17145 283.51315 615.17145 285.17Z" fill-rule="nonzero"/><path fill="#000000" fill-opacity="0.0" clip-path="url(#id_0)" d="M626.2 295.578C626.2 297.23486 624.8569 298.578 623.2 298.578C621.54315 298.578 620.2 297.23486 620.2 295.578C620.2 293.92114 621.54315 292.578 623.2 292.578C624.8569 292.578 626.2 293.92114 626.2 295.578Z" fill-rule="nonzero"/><path fill="#000000" d="M343.32812 373.2L343.32812 372.41876Q342.73438 373.34064 341.59375 373.34064Q340.84375 373.34064 340.21875 372.9344Q339.59375 372.5125 339.25 371.77814Q338.90625 371.04376 338.90625 370.09064Q338.90625 369.16876 339.21875 368.40314Q339.53125 367.6375 340.15625 367.2469Q340.78125 366.84064 341.54688 366.84064Q342.10938 366.84064 342.54688 367.075Q342.98438 367.3094 343.26562 367.6844L343.26562 364.60626L344.3125 364.60626L344.3125 373.2L343.32812 373.2ZM340.0 370.09064Q340.0 371.29376 340.5 371.8875Q341.0 372.46564 341.6875 372.46564Q342.375 372.46564 342.85938 371.90314Q343.34375 371.34064 343.34375 370.1844Q343.34375 368.90314 342.84375 368.3094Q342.35938 367.71564 341.64062 367.71564Q340.9375 367.71564 340.46875 368.29376Q340.0 368.85626 340.0 370.09064ZM351.3125 375.73126Q350.4375 374.6219 349.82812 373.15314Q349.23438 371.66876 349.23438 370.09064Q349.23438 368.7 349.67188 367.41876Q350.20312 365.9344 351.3125 364.46564L352.0625 364.46564Q351.35938 365.6844 351.125 366.2Q350.76562 367.0125 350.5625 367.8875Q350.3125 368.98126 350.3125 370.09064Q350.3125 372.91876 352.0625 375.73126L351.3125 375.73126ZM353.29688 373.2L353.29688 366.98126L354.23438 366.98126L354.23438 367.85626Q354.53125 367.3875 355.01562 367.1219Q355.5 366.84064 356.125 366.84064Q356.8125 366.84064 357.25 367.1219Q357.70312 367.40314 357.875 367.91876Q358.625 366.84064 359.79688 366.84064Q360.73438 366.84064 361.21875 367.35626Q361.71875 367.85626 361.71875 368.9344L361.71875 373.2L360.67188 373.2L360.67188 369.27814Q360.67188 368.65314 360.5625 368.3719Q360.46875 368.09064 360.20312 367.91876Q359.9375 367.7469 359.5625 367.7469Q358.90625 367.7469 358.46875 368.1844Q358.04688 368.6219 358.04688 369.59064L358.04688 373.2L356.98438 373.2L356.98438 369.15314Q356.98438 368.45 356.71875 368.10626Q356.46875 367.7469 355.89062 367.7469Q355.4375 367.7469 355.0625 367.98126Q354.6875 368.21564 354.51562 368.66876Q354.34375 369.1219 354.34375 369.96564L354.34375 373.2L353.29688 373.2ZM364.98438 375.73126L364.23438 375.73126Q365.98438 372.91876 365.98438 370.09064Q365.98438 368.9969 365.73438 367.90314Q365.53125 367.02814 365.17188 366.21564Q364.9375 365.7 364.23438 364.46564L364.98438 364.46564Q366.07812 365.9344 366.60938 367.41876Q367.0625 368.7 367.0625 370.09064Q367.0625 371.66876 366.45312 373.15314Q365.84375 374.6219 364.98438 375.73126Z" fill-rule="nonzero"/><path fill="#000000" d="M30.800013 224.17813L22.206263 224.17813L22.206263 220.92813Q22.206263 220.08438 22.284388 219.63126Q22.393763 218.99063 22.690638 218.56876Q22.987513 218.13126 23.518763 217.88126Q24.050013 217.61563 24.690638 217.61563Q25.784388 217.61563 26.550013 218.31876Q27.300013 219.00626 27.300013 220.83438L27.300013 223.0375L30.800013 223.0375L30.800013 224.17813ZM26.300013 223.0375L26.300013 220.81876Q26.300013 219.70938 25.893763 219.25626Q25.471888 218.7875 24.721888 218.7875Q24.190638 218.7875 23.815638 219.06876Q23.425013 219.33438 23.300013 219.77188Q23.221888 220.06876 23.221888 220.83438L23.221888 223.0375L26.300013 223.0375ZM30.800013 216.31876L24.581263 216.31876L24.581263 215.36563L25.518763 215.36563Q24.862513 215.00626 24.659388 214.70938Q24.440638 214.39688 24.440638 214.02188Q24.440638 213.49063 24.768763 212.94376L25.753138 213.30313Q25.518763 213.69376 25.518763 214.06876Q25.518763 214.42813 25.737513 214.70938Q25.940638 214.975 26.315638 215.08438Q26.878138 215.27188 27.534388 215.27188L30.800013 215.27188L30.800013 216.31876ZM33.33126 207.2875Q32.221886 208.1625 30.753138 208.77188Q29.268763 209.36563 27.690638 209.36563Q26.300013 209.36563 25.018763 208.92813Q23.534388 208.39688 22.065638 207.2875L22.065638 206.5375Q23.284388 207.24063 23.800013 207.475Q24.612513 207.83438 25.487513 208.0375Q26.581263 208.2875 27.690638 208.2875Q30.518763 208.2875 33.33126 206.5375L33.33126 207.2875ZM30.800013 201.27188L30.018763 201.27188Q30.940638 201.86563 30.940638 203.00626Q30.940638 203.75626 30.534388 204.38126Q30.112513 205.00626 29.378138 205.35Q28.643763 205.69376 27.690638 205.69376Q26.768763 205.69376 26.003138 205.38126Q25.237513 205.06876 24.846888 204.44376Q24.440638 203.81876 24.440638 203.05313Q24.440638 202.49063 24.675013 202.05313Q24.909388 201.61563 25.284388 201.33438L22.206263 201.33438L22.206263 200.2875L30.800013 200.2875L30.800013 201.27188ZM27.690638 204.6Q28.893763 204.6 29.487513 204.1Q30.065638 203.6 30.065638 202.9125Q30.065638 202.225 29.503138 201.74063Q28.940638 201.25626 27.784388 201.25626Q26.503138 201.25626 25.909388 201.75626Q25.315638 202.24063 25.315638 202.95938Q25.315638 203.6625 25.893763 204.13126Q26.456263 204.6 27.690638 204.6ZM30.800013 198.225L22.206263 198.225L22.206263 194.99063Q22.206263 194.00626 22.471888 193.4125Q22.737513 192.81876 23.284388 192.49063Q23.815638 192.14688 24.409388 192.14688Q24.956263 192.14688 25.440638 192.44376Q25.925013 192.74063 26.221888 193.35Q26.456263 192.56876 27.018763 192.1625Q27.565638 191.74063 28.315638 191.74063Q28.909388 191.74063 29.440638 191.99063Q29.956263 192.24063 30.237513 192.61563Q30.518763 192.99063 30.659388 193.56876Q30.800013 194.13126 30.800013 194.94376L30.800013 198.225ZM25.815638 197.08438L25.815638 195.225Q25.815638 194.475 25.721888 194.14688Q25.596888 193.70938 25.300013 193.49063Q24.987513 193.27188 24.534388 193.27188Q24.112513 193.27188 23.784388 193.475Q23.456263 193.67813 23.346888 194.06876Q23.221888 194.44376 23.221888 195.36563L23.221888 197.08438L25.815638 197.08438ZM29.784388 197.08438L29.784388 194.94376Q29.784388 194.39688 29.737513 194.17813Q29.675013 193.77188 29.518763 193.52188Q29.346888 193.25626 29.034388 193.08438Q28.721888 192.9125 28.315638 192.9125Q27.831263 192.9125 27.471888 193.1625Q27.112513 193.39688 26.971888 193.83438Q26.831263 194.27188 26.831263 195.1L26.831263 197.08438L29.784388 197.08438ZM30.800013 190.30313L24.581263 190.30313L24.581263 189.36563L25.456263 189.36563Q24.987513 189.06876 24.721888 188.58438Q24.440638 188.1 24.440638 187.475Q24.440638 186.7875 24.721888 186.35Q25.003138 185.89688 25.518763 185.725Q24.440638 184.975 24.440638 183.80313Q24.440638 182.86563 24.956263 182.38126Q25.456263 181.88126 26.534388 181.88126L30.800013 181.88126L30.800013 182.92813L26.878138 182.92813Q26.253138 182.92813 25.971888 183.0375Q25.690638 183.13126 25.518763 183.39688Q25.346888 183.6625 25.346888 184.0375Q25.346888 184.69376 25.784388 185.13126Q26.221888 185.55313 27.190638 185.55313L30.800013 185.55313L30.800013 186.61563L26.753138 186.61563Q26.050013 186.61563 25.706263 186.88126Q25.346888 187.13126 25.346888 187.70938Q25.346888 188.1625 25.581263 188.5375Q25.815638 188.9125 26.268763 189.08438Q26.721888 189.25626 27.565638 189.25626L30.800013 189.25626L30.800013 190.30313ZM33.33126 178.61563L33.33126 179.36563Q30.518763 177.61563 27.690638 177.61563Q26.596888 177.61563 25.503138 177.86563Q24.628138 178.06876 23.815638 178.42813Q23.300013 178.6625 22.065638 179.36563L22.065638 178.61563Q23.534388 177.52188 25.018763 176.99063Q26.300013 176.5375 27.690638 176.5375Q29.268763 176.5375 30.753138 177.14688Q32.221886 177.75626 33.33126 178.61563Z" fill-rule="nonzero"/><path fill="#000000" d="M52.175 325.6219L52.175 324.5594L55.425 324.5594L55.425 325.6219L52.175 325.6219ZM60.26875 328.2L59.221874 328.2L59.221874 321.48126Q58.83125 321.84064 58.20625 322.21564Q57.596874 322.575 57.1125 322.7469L57.1125 321.73126Q57.9875 321.3094 58.64375 320.73126Q59.315624 320.1375 59.596874 319.575L60.26875 319.575L60.26875 328.2ZM63.3 323.96564Q63.3 322.4344 63.6125 321.5125Q63.925 320.575 64.53438 320.075Q65.15938 319.575 66.09688 319.575Q66.78438 319.575 67.3 319.85626Q67.83125 320.1375 68.175 320.66876Q68.51875 321.1844 68.70625 321.9344Q68.89375 322.6844 68.89375 323.96564Q68.89375 325.48126 68.58125 326.40314Q68.28438 327.325 67.65938 327.84064Q67.05 328.34064 66.09688 328.34064Q64.8625 328.34064 64.14375 327.45Q63.3 326.3875 63.3 323.96564ZM64.37813 323.96564Q64.37813 326.075 64.87813 326.77814Q65.37813 327.48126 66.09688 327.48126Q66.83125 327.48126 67.31563 326.77814Q67.81563 326.075 67.81563 323.96564Q67.81563 321.84064 67.31563 321.15314Q66.83125 320.45 66.08125 320.45Q65.3625 320.45 64.925 321.0594Q64.37813 321.84064 64.37813 323.96564ZM70.3 323.96564Q70.3 322.4344 70.6125 321.5125Q70.925 320.575 71.53438 320.075Q72.15938 319.575 73.09688 319.575Q73.78438 319.575 74.3 319.85626Q74.83125 320.1375 75.175 320.66876Q75.51875 321.1844 75.70625 321.9344Q75.89375 322.6844 75.89375 323.96564Q75.89375 325.48126 75.58125 326.40314Q75.28438 327.325 74.65938 327.84064Q74.05 328.34064 73.09688 328.34064Q71.8625 328.34064 71.14375 327.45Q70.3 326.3875 70.3 323.96564ZM71.37813 323.96564Q71.37813 326.075 71.87813 326.77814Q72.37813 327.48126 73.09688 327.48126Q73.83125 327.48126 74.31563 326.77814Q74.81563 326.075 74.81563 323.96564Q74.81563 321.84064 74.31563 321.15314Q73.83125 320.45 73.08125 320.45Q72.3625 320.45 71.925 321.0594Q71.37813 321.84064 71.37813 323.96564Z" fill-rule="nonzero"/><path fill="#000000" d="M59.175 260.57187L59.175 259.50937L62.425 259.50937L62.425 260.57187L59.175 260.57187ZM63.3625 255.68124L63.3625 254.66562L68.925 254.66562L68.925 255.49374Q68.1125 256.36874 67.3 257.82187Q66.50313 259.25937 66.06563 260.79062Q65.7375 261.86874 65.65938 263.15L64.56563 263.15Q64.58125 262.13437 64.95625 260.69687Q65.34688 259.25937 66.05 257.93124Q66.76875 256.60312 67.58125 255.68124L63.3625 255.68124ZM70.3 260.9L71.40938 260.80624Q71.53438 261.61874 71.97188 262.025Q72.425 262.43124 73.06563 262.43124Q73.81563 262.43124 74.34688 261.85312Q74.87813 261.275 74.87813 260.3375Q74.87813 259.43124 74.3625 258.91562Q73.8625 258.38437 73.03438 258.38437Q72.53438 258.38437 72.1125 258.61874Q71.70625 258.85312 71.47188 259.2125L70.4875 259.0875L71.31563 254.68124L75.59688 254.68124L75.59688 255.68124L72.15938 255.68124L71.70625 257.99374Q72.47188 257.44687 73.31563 257.44687Q74.44063 257.44687 75.20625 258.22812Q75.9875 259.00937 75.9875 260.24374Q75.9875 261.4 75.31563 262.25937Q74.4875 263.29062 73.06563 263.29062Q71.89375 263.29062 71.14375 262.63437Q70.40938 261.97812 70.3 260.9Z" fill-rule="nonzero"/><path fill="#000000" d="M59.175 195.52188L59.175 194.45938L62.425 194.45938L62.425 195.52188L59.175 195.52188ZM63.3 195.85L64.40938 195.75626Q64.53438 196.56876 64.97188 196.975Q65.425 197.38126 66.06563 197.38126Q66.81563 197.38126 67.34688 196.80313Q67.87813 196.225 67.87813 195.2875Q67.87813 194.38126 67.3625 193.86563Q66.8625 193.33438 66.03438 193.33438Q65.53438 193.33438 65.1125 193.56876Q64.70625 193.80313 64.47188 194.1625L63.4875 194.0375L64.31563 189.63126L68.59688 189.63126L68.59688 190.63126L65.15938 190.63126L64.70625 192.94376Q65.47188 192.39688 66.31563 192.39688Q67.44063 192.39688 68.20625 193.17813Q68.9875 193.95938 68.9875 195.19376Q68.9875 196.35 68.31563 197.20938Q67.4875 198.24063 66.06563 198.24063Q64.89375 198.24063 64.14375 197.58438Q63.409374 196.92813 63.3 195.85ZM70.3 193.86563Q70.3 192.33438 70.6125 191.4125Q70.925 190.475 71.53438 189.975Q72.15938 189.475 73.09688 189.475Q73.78438 189.475 74.3 189.75626Q74.83125 190.0375 75.175 190.56876Q75.51875 191.08438 75.70625 191.83438Q75.89375 192.58438 75.89375 193.86563Q75.89375 195.38126 75.58125 196.30313Q75.28438 197.225 74.65938 197.74063Q74.05 198.24063 73.09688 198.24063Q71.8625 198.24063 71.14375 197.35Q70.3 196.2875 70.3 193.86563ZM71.37813 193.86563Q71.37813 195.975 71.87813 196.67813Q72.37813 197.38126 73.09688 197.38126Q73.83125 197.38126 74.31563 196.67813Q74.81563 195.975 74.81563 193.86563Q74.81563 191.74063 74.31563 191.05313Q73.83125 190.35 73.08125 190.35Q72.3625 190.35 71.925 190.95938Q71.37813 191.74063 71.37813 193.86563Z" fill-rule="nonzero"/><path fill="#000000" d="M59.175 130.47188L59.175 129.40938L62.425 129.40938L62.425 130.47188L59.175 130.47188ZM68.84688 132.03438L68.84688 133.05L63.159374 133.05Q63.159374 132.675 63.284374 132.31563Q63.503124 131.7375 63.971874 131.175Q64.45625 130.6125 65.3625 129.87813Q66.76875 128.72188 67.25313 128.05Q67.75313 127.37813 67.75313 126.78438Q67.75313 126.15938 67.3 125.7375Q66.84688 125.3 66.12813 125.3Q65.3625 125.3 64.90938 125.75313Q64.45625 126.20625 64.44063 127.01875L63.3625 126.90938Q63.471874 125.69063 64.19063 125.06563Q64.925 124.425 66.15938 124.425Q67.39375 124.425 68.1125 125.1125Q68.83125 125.8 68.83125 126.81563Q68.83125 127.33125 68.6125 127.83125Q68.40938 128.31563 67.90938 128.87813Q67.425 129.425 66.3 130.37813Q65.34688 131.175 65.06563 131.47188Q64.8 131.75313 64.62813 132.03438L68.84688 132.03438ZM70.3 130.8L71.40938 130.70625Q71.53438 131.51875 71.97188 131.925Q72.425 132.33125 73.06563 132.33125Q73.81563 132.33125 74.34688 131.75313Q74.87813 131.175 74.87813 130.2375Q74.87813 129.33125 74.3625 128.81563Q73.8625 128.28438 73.03438 128.28438Q72.53438 128.28438 72.1125 128.51875Q71.70625 128.75313 71.47188 129.1125L70.4875 128.9875L71.31563 124.58125L75.59688 124.58125L75.59688 125.58125L72.15938 125.58125L71.70625 127.89375Q72.47188 127.34688 73.31563 127.34688Q74.44063 127.34688 75.20625 128.12813Q75.9875 128.90938 75.9875 130.14375Q75.9875 131.3 75.31563 132.15938Q74.4875 133.19063 73.06563 133.19063Q71.89375 133.19063 71.14375 132.53438Q70.40938 131.87813 70.3 130.8Z" fill-rule="nonzero"/><path fill="#000000" d="M70.3 63.765625Q70.3 62.234375 70.6125 61.3125Q70.925 60.375 71.53438 59.875Q72.15938 59.375 73.09688 59.375Q73.78438 59.375 74.3 59.65625Q74.83125 59.9375 75.175 60.46875Q75.51875 60.984375 75.70625 61.734375Q75.89375 62.484375 75.89375 63.765625Q75.89375 65.28125 75.58125 66.203125Q75.28438 67.125 74.65938 67.640625Q74.05 68.140625 73.09688 68.140625Q71.8625 68.140625 71.14375 67.25Q70.3 66.1875 70.3 63.765625ZM71.37813 63.765625Q71.37813 65.875 71.87813 66.578125Q72.37813 67.28125 73.09688 67.28125Q73.83125 67.28125 74.31563 66.578125Q74.81563 65.875 74.81563 63.765625Q74.81563 61.640625 74.31563 60.953125Q73.83125 60.25 73.08125 60.25Q72.3625 60.25 71.925 60.859375Q71.37813 61.640625 71.37813 63.765625Z" fill-rule="nonzero"/><path fill="#000000" d="M179.5259 341.2L178.47902 341.2L178.47902 334.48126Q178.0884 334.84064 177.4634 335.21564Q176.85402 335.575 176.36964 335.7469L176.36964 334.73126Q177.24464 334.3094 177.9009 333.73126Q178.57277 333.1375 178.85402 332.575L179.5259 332.575L179.5259 341.2ZM182.55714 336.96564Q182.55714 335.4344 182.86964 334.5125Q183.18214 333.575 183.79152 333.075Q184.41652 332.575 185.35402 332.575Q186.04152 332.575 186.55714 332.85626Q187.0884 333.1375 187.43214 333.66876Q187.7759 334.1844 187.9634 334.9344Q188.1509 335.6844 188.1509 336.96564Q188.1509 338.48126 187.8384 339.40314Q187.54152 340.325 186.91652 340.84064Q186.30714 341.34064 185.35402 341.34064Q184.11964 341.34064 183.4009 340.45Q182.55714 339.3875 182.55714 336.96564ZM183.63527 336.96564Q183.63527 339.075 184.13527 339.77814Q184.63527 340.48126 185.35402 340.48126Q186.0884 340.48126 186.57277 339.77814Q187.07277 339.075 187.07277 336.96564Q187.07277 334.84064 186.57277 334.15314Q186.0884 333.45 185.3384 333.45Q184.61964 333.45 184.18214 334.0594Q183.63527 334.84064 183.63527 336.96564Z" fill-rule="nonzero"/><path fill="#000000" d="M291.38974 340.1844L291.38974 341.2L285.70224 341.2Q285.70224 340.825 285.82724 340.46564Q286.046 339.8875 286.51474 339.325Q286.9991 338.7625 287.90536 338.02814Q289.3116 336.8719 289.796 336.2Q290.296 335.52814 290.296 334.9344Q290.296 334.3094 289.84286 333.8875Q289.38974 333.45 288.671 333.45Q287.90536 333.45 287.45224 333.90314Q286.9991 334.35626 286.9835 335.16876L285.90536 335.0594Q286.01474 333.84064 286.7335 333.21564Q287.46786 332.575 288.70224 332.575Q289.9366 332.575 290.65536 333.2625Q291.3741 333.95 291.3741 334.96564Q291.3741 335.48126 291.15536 335.98126Q290.95224 336.46564 290.45224 337.02814Q289.96786 337.575 288.84286 338.52814Q287.88974 339.325 287.6085 339.6219Q287.34286 339.90314 287.171 340.1844L291.38974 340.1844ZM292.84286 336.96564Q292.84286 335.4344 293.15536 334.5125Q293.46786 333.575 294.07724 333.075Q294.70224 332.575 295.63974 332.575Q296.32724 332.575 296.84286 332.85626Q297.3741 333.1375 297.71786 333.66876Q298.0616 334.1844 298.2491 334.9344Q298.4366 335.6844 298.4366 336.96564Q298.4366 338.48126 298.1241 339.40314Q297.82724 340.325 297.20224 340.84064Q296.59286 341.34064 295.63974 341.34064Q294.40536 341.34064 293.6866 340.45Q292.84286 339.3875 292.84286 336.96564ZM293.921 336.96564Q293.921 339.075 294.421 339.77814Q294.921 340.48126 295.63974 340.48126Q296.3741 340.48126 296.8585 339.77814Q297.3585 339.075 297.3585 336.96564Q297.3585 334.84064 296.8585 334.15314Q296.3741 333.45 295.6241 333.45Q294.90536 333.45 294.46786 334.0594Q293.921 334.84064 293.921 336.96564Z" fill-rule="nonzero"/><path fill="#000000" d="M396.12857 338.9344L397.19107 338.79376Q397.36295 339.6844 397.80045 340.09064Q398.23795 340.48126 398.86295 340.48126Q399.61295 340.48126 400.12857 339.96564Q400.6442 339.45 400.6442 338.6844Q400.6442 337.96564 400.15982 337.4969Q399.69107 337.0125 398.9567 337.0125Q398.65982 337.0125 398.2067 337.1375L398.3317 336.2Q398.44107 336.21564 398.50357 336.21564Q399.17545 336.21564 399.7067 335.8719Q400.25357 335.5125 400.25357 334.77814Q400.25357 334.2 399.86295 333.825Q399.47232 333.4344 398.84732 333.4344Q398.23795 333.4344 397.81607 333.825Q397.40982 334.21564 397.30045 334.98126L396.23795 334.79376Q396.42545 333.7469 397.11295 333.16876Q397.80045 332.575 398.81607 332.575Q399.5192 332.575 400.11295 332.8875Q400.7067 333.1844 401.0192 333.7Q401.3317 334.21564 401.3317 334.8094Q401.3317 335.35626 401.03482 335.825Q400.73795 336.27814 400.15982 336.54376Q400.90982 336.71564 401.3317 337.27814Q401.75357 337.825 401.75357 338.66876Q401.75357 339.79376 400.92545 340.575Q400.11295 341.35626 398.86295 341.35626Q397.73795 341.35626 396.98795 340.6844Q396.23795 339.9969 396.12857 338.9344ZM403.12857 336.96564Q403.12857 335.4344 403.44107 334.5125Q403.75357 333.575 404.36295 333.075Q404.98795 332.575 405.92545 332.575Q406.61295 332.575 407.12857 332.85626Q407.65982 333.1375 408.00357 333.66876Q408.34732 334.1844 408.53482 334.9344Q408.72232 335.6844 408.72232 336.96564Q408.72232 338.48126 408.40982 339.40314Q408.11295 340.325 407.48795 340.84064Q406.87857 341.34064 405.92545 341.34064Q404.69107 341.34064 403.97232 340.45Q403.12857 339.3875 403.12857 336.96564ZM404.2067 336.96564Q404.2067 339.075 404.7067 339.77814Q405.2067 340.48126 405.92545 340.48126Q406.65982 340.48126 407.1442 339.77814Q407.6442 339.075 407.6442 336.96564Q407.6442 334.84064 407.1442 334.15314Q406.65982 333.45 405.90982 333.45Q405.19107 333.45 404.75357 334.0594Q404.2067 334.84064 404.2067 336.96564Z" fill-rule="nonzero"/><path fill="#000000" d="M509.78928 341.2L509.78928 339.1375L506.07053 339.1375L506.07053 338.16876L509.9924 332.60626L510.85178 332.60626L510.85178 338.16876L512.00806 338.16876L512.00806 339.1375L510.85178 339.1375L510.85178 341.2L509.78928 341.2ZM509.78928 338.16876L509.78928 334.3094L507.10178 338.16876L509.78928 338.16876ZM513.4143 336.96564Q513.4143 335.4344 513.7268 334.5125Q514.0393 333.575 514.6487 333.075Q515.2737 332.575 516.2112 332.575Q516.8987 332.575 517.4143 332.85626Q517.94556 333.1375 518.2893 333.66876Q518.63306 334.1844 518.82056 334.9344Q519.00806 335.6844 519.00806 336.96564Q519.00806 338.48126 518.69556 339.40314Q518.3987 340.325 517.7737 340.84064Q517.1643 341.34064 516.2112 341.34064Q514.9768 341.34064 514.25806 340.45Q513.4143 339.3875 513.4143 336.96564ZM514.49243 336.96564Q514.49243 339.075 514.99243 339.77814Q515.49243 340.48126 516.2112 340.48126Q516.94556 340.48126 517.42993 339.77814Q517.92993 339.075 517.92993 336.96564Q517.92993 334.84064 517.42993 334.15314Q516.94556 333.45 516.19556 333.45Q515.4768 333.45 515.0393 334.0594Q514.49243 334.84064 514.49243 336.96564Z" fill-rule="nonzero"/><path fill="#000000" d="M616.7 338.95L617.8094 338.85626Q617.9344 339.66876 618.3719 340.075Q618.825 340.48126 619.46564 340.48126Q620.21564 340.48126 620.7469 339.90314Q621.27814 339.325 621.27814 338.3875Q621.27814 337.48126 620.7625 336.96564Q620.2625 336.4344 619.4344 336.4344Q618.9344 336.4344 618.5125 336.66876Q618.10626 336.90314 617.8719 337.2625L616.8875 337.1375L617.71564 332.73126L621.9969 332.73126L621.9969 333.73126L618.5594 333.73126L618.10626 336.04376Q618.8719 335.4969 619.71564 335.4969Q620.84064 335.4969 621.60626 336.27814Q622.3875 337.0594 622.3875 338.29376Q622.3875 339.45 621.71564 340.3094Q620.8875 341.34064 619.46564 341.34064Q618.29376 341.34064 617.54376 340.6844Q616.8094 340.02814 616.7 338.95ZM623.7 336.96564Q623.7 335.4344 624.0125 334.5125Q624.325 333.575 624.9344 333.075Q625.5594 332.575 626.4969 332.575Q627.1844 332.575 627.7 332.85626Q628.23126 333.1375 628.575 333.66876Q628.91876 334.1844 629.10626 334.9344Q629.29376 335.6844 629.29376 336.96564Q629.29376 338.48126 628.98126 339.40314Q628.6844 340.325 628.0594 340.84064Q627.45 341.34064 626.4969 341.34064Q625.2625 341.34064 624.54376 340.45Q623.7 339.3875 623.7 336.96564ZM624.77814 336.96564Q624.77814 339.075 625.27814 339.77814Q625.77814 340.48126 626.4969 340.48126Q627.23126 340.48126 627.71564 339.77814Q628.21564 339.075 628.21564 336.96564Q628.21564 334.84064 627.71564 334.15314Q627.23126 333.45 626.48126 333.45Q625.7625 333.45 625.325 334.0594Q624.77814 334.84064 624.77814 336.96564Z" fill-rule="nonzero"/><path fill="#757575" d="M21.378124 38.8L21.378124 24.4875L27.721874 24.4875Q29.628124 24.4875 30.628124 24.878124Q31.628124 25.253124 32.221874 26.2375Q32.815624 27.20625 32.815624 28.39375Q32.815624 29.909374 31.83125 30.95625Q30.846874 32.003124 28.784374 32.284374Q29.534374 32.64375 29.925 33.003124Q30.753124 33.753124 31.503124 34.909374L33.9875 38.8L31.6125 38.8L29.70625 35.815624Q28.878124 34.534374 28.346874 33.846874Q27.815624 33.159374 27.378124 32.89375Q26.95625 32.6125 26.51875 32.503124Q26.190624 32.440624 25.471874 32.440624L23.26875 32.440624L23.26875 38.8L21.378124 38.8ZM23.26875 30.8L27.346874 30.8Q28.64375 30.8 29.3625 30.534374Q30.096874 30.26875 30.471874 29.675Q30.8625 29.08125 30.8625 28.39375Q30.8625 27.378124 30.128124 26.721874Q29.39375 26.065624 27.8 26.065624L23.26875 26.065624L23.26875 30.8ZM42.221874 35.45625L44.034374 35.690624Q43.6125 37.26875 42.440624 38.159374Q41.284374 39.034374 39.471874 39.034374Q37.20625 39.034374 35.8625 37.64375Q34.534374 36.2375 34.534374 33.70625Q34.534374 31.08125 35.878124 29.64375Q37.221874 28.190624 39.378124 28.190624Q41.45625 28.190624 42.76875 29.6125Q44.096874 31.01875 44.096874 33.596874Q44.096874 33.753124 44.08125 34.065624L36.346874 34.065624Q36.440624 35.76875 37.315624 36.675Q38.190624 37.58125 39.4875 37.58125Q40.45625 37.58125 41.128124 37.08125Q41.815624 36.565624 42.221874 35.45625ZM36.440624 32.6125L42.2375 32.6125Q42.128124 31.315624 41.58125 30.659374Q40.7375 29.64375 39.39375 29.64375Q38.190624 29.64375 37.3625 30.45625Q36.534374 31.253124 36.440624 32.6125ZM52.89375 35.003124L54.6125 35.221874Q54.33125 37.01875 53.159374 38.034374Q52.003124 39.034374 50.3 39.034374Q48.175 39.034374 46.878124 37.64375Q45.58125 36.253124 45.58125 33.659374Q45.58125 31.971874 46.128124 30.721874Q46.690624 29.45625 47.83125 28.83125Q48.971874 28.190624 50.315624 28.190624Q52.003124 28.190624 53.065624 29.05Q54.14375 29.909374 54.45625 31.471874L52.7375 31.7375Q52.503124 30.690624 51.878124 30.175Q51.253124 29.64375 50.378124 29.64375Q49.05 29.64375 48.221874 30.596874Q47.39375 31.55 47.39375 33.596874Q47.39375 35.690624 48.190624 36.64375Q48.9875 37.58125 50.284374 37.58125Q51.315624 37.58125 52.003124 36.95625Q52.70625 36.315624 52.89375 35.003124ZM63.221874 35.45625L65.03438 35.690624Q64.6125 37.26875 63.440624 38.159374Q62.284374 39.034374 60.471874 39.034374Q58.20625 39.034374 56.8625 37.64375Q55.534374 36.2375 55.534374 33.70625Q55.534374 31.08125 56.878124 29.64375Q58.221874 28.190624 60.378124 28.190624Q62.45625 28.190624 63.76875 29.6125Q65.09688 31.01875 65.09688 33.596874Q65.09688 33.753124 65.08125 34.065624L57.346874 34.065624Q57.440624 35.76875 58.315624 36.675Q59.190624 37.58125 60.4875 37.58125Q61.45625 37.58125 62.128124 37.08125Q62.815624 36.565624 63.221874 35.45625ZM57.440624 32.6125L63.2375 32.6125Q63.128124 31.315624 62.58125 30.659374Q61.7375 29.64375 60.39375 29.64375Q59.190624 29.64375 58.3625 30.45625Q57.534374 31.253124 57.440624 32.6125ZM67.1125 42.76875L67.1125 28.425L68.72188 28.425L68.72188 29.76875Q69.28438 28.9875 69.9875 28.596874Q70.70625 28.190624 71.72188 28.190624Q73.05 28.190624 74.06563 28.878124Q75.08125 29.565624 75.59688 30.815624Q76.12813 32.05 76.12813 33.534374Q76.12813 35.128124 75.55 36.409374Q74.9875 37.675 73.89375 38.3625Q72.8 39.034374 71.59688 39.034374Q70.72188 39.034374 70.01875 38.659374Q69.33125 38.284374 68.87813 37.721874L68.87813 42.76875L67.1125 42.76875ZM68.70625 33.675Q68.70625 35.675 69.51875 36.628124Q70.33125 37.58125 71.4875 37.58125Q72.65938 37.58125 73.4875 36.596874Q74.33125 35.6125 74.33125 33.51875Q74.33125 31.55 73.50313 30.565624Q72.69063 29.565624 71.56563 29.565624Q70.44063 29.565624 69.56563 30.628124Q68.70625 31.675 68.70625 33.675ZM81.95625 37.221874L82.20625 38.784374Q81.47188 38.940624 80.87813 38.940624Q79.925 38.940624 79.39375 38.64375Q78.87813 38.33125 78.65938 37.846874Q78.44063 37.346874 78.44063 35.76875L78.44063 29.8L77.15938 29.8L77.15938 28.425L78.44063 28.425L78.44063 25.8625L80.19063 24.8L80.19063 28.425L81.95625 28.425L81.95625 29.8L80.19063 29.8L80.19063 35.8625Q80.19063 36.6125 80.28438 36.83125Q80.37813 37.034374 80.58125 37.175Q80.8 37.3 81.19063 37.3Q81.47188 37.3 81.95625 37.221874ZM84.12813 26.503124L84.12813 24.4875L85.89375 24.4875L85.89375 26.503124L84.12813 26.503124ZM84.12813 38.8L84.12813 28.425L85.89375 28.425L85.89375 38.8L84.12813 38.8ZM87.47188 33.6125Q87.47188 30.7375 89.06563 29.346874Q90.40938 28.190624 92.33125 28.190624Q94.47188 28.190624 95.81563 29.596874Q97.175 31.003124 97.175 33.471874Q97.175 35.471874 96.58125 36.628124Q95.9875 37.76875 94.83125 38.409374Q93.69063 39.034374 92.33125 39.034374Q90.14375 39.034374 88.8 37.64375Q87.47188 36.2375 87.47188 33.6125ZM89.26875 33.6125Q89.26875 35.6125 90.12813 36.596874Q91.00313 37.58125 92.33125 37.58125Q93.64375 37.58125 94.50313 36.596874Q95.37813 35.596874 95.37813 33.55Q95.37813 31.628124 94.50313 30.64375Q93.62813 29.64375 92.33125 29.64375Q91.00313 29.64375 90.12813 30.64375Q89.26875 31.628124 89.26875 33.6125ZM99.1125 38.8L99.1125 28.425L100.70625 28.425L100.70625 29.909374Q101.84688 28.190624 104.00313 28.190624Q104.94063 28.190624 105.72188 28.534374Q106.51875 28.8625 106.90938 29.409374Q107.3 29.95625 107.45625 30.70625Q107.55 31.20625 107.55 32.425L107.55 38.8L105.78438 38.8L105.78438 32.4875Q105.78438 31.409374 105.58125 30.878124Q105.37813 30.346874 104.84688 30.034374Q104.33125 29.721874 103.62813 29.721874Q102.50313 29.721874 101.69063 30.440624Q100.87813 31.14375 100.87813 33.128124L100.87813 38.8L99.1125 38.8ZM115.1125 42.76875L115.1125 28.425L116.72188 28.425L116.72188 29.76875Q117.28438 28.9875 117.9875 28.596874Q118.70625 28.190624 119.72188 28.190624Q121.05 28.190624 122.06563 28.878124Q123.08125 29.565624 123.59688 30.815624Q124.12813 32.05 124.12813 33.534374Q124.12813 35.128124 123.55 36.409374Q122.9875 37.675 121.89375 38.3625Q120.8 39.034374 119.59688 39.034374Q118.72188 39.034374 118.01875 38.659374Q117.33125 38.284374 116.87813 37.721874L116.87813 42.76875L115.1125 42.76875ZM116.70625 33.675Q116.70625 35.675 117.51875 36.628124Q118.33125 37.58125 119.4875 37.58125Q120.65938 37.58125 121.4875 36.596874Q122.33125 35.6125 122.33125 33.51875Q122.33125 31.55 121.50313 30.565624Q120.69063 29.565624 119.56563 29.565624Q118.44063 29.565624 117.56563 30.628124Q116.70625 31.675 116.70625 33.675ZM125.47188 33.6125Q125.47188 30.7375 127.06563 29.346874Q128.40938 28.190624 130.33125 28.190624Q132.47188 28.190624 133.81563 29.596874Q135.175 31.003124 135.175 33.471874Q135.175 35.471874 134.58125 36.628124Q133.9875 37.76875 132.83125 38.409374Q131.69063 39.034374 130.33125 39.034374Q128.14375 39.034374 126.8 37.64375Q125.47188 36.2375 125.47188 33.6125ZM127.26875 33.6125Q127.26875 35.6125 128.12813 36.596874Q129.00313 37.58125 130.33125 37.58125Q131.64375 37.58125 132.50313 36.596874Q133.37813 35.596874 133.37813 33.55Q133.37813 31.628124 132.50313 30.64375Q131.62813 29.64375 130.33125 29.64375Q129.00313 29.64375 128.12813 30.64375Q127.26875 31.628124 127.26875 33.6125ZM139.03438 38.8L135.8625 28.425L137.675 28.425L139.33125 34.409374L139.94063 36.64375Q139.9875 36.471874 140.47188 34.503124L142.12813 28.425L143.94063 28.425L145.4875 34.440624L146.00313 36.425L146.59688 34.425L148.37813 28.425L150.08125 28.425L146.84688 38.8L145.01875 38.8L143.3625 32.58125L142.97188 30.815624L140.8625 38.8L139.03438 38.8ZM159.22188 35.45625L161.03438 35.690624Q160.6125 37.26875 159.44063 38.159374Q158.28438 39.034374 156.47188 39.034374Q154.20625 39.034374 152.8625 37.64375Q151.53438 36.2375 151.53438 33.70625Q151.53438 31.08125 152.87813 29.64375Q154.22188 28.190624 156.37813 28.190624Q158.45625 28.190624 159.76875 29.6125Q161.09688 31.01875 161.09688 33.596874Q161.09688 33.753124 161.08125 34.065624L153.34688 34.065624Q153.44063 35.76875 154.31563 36.675Q155.19063 37.58125 156.4875 37.58125Q157.45625 37.58125 158.12813 37.08125Q158.81563 36.565624 159.22188 35.45625ZM153.44063 32.6125L159.2375 32.6125Q159.12813 31.315624 158.58125 30.659374Q157.7375 29.64375 156.39375 29.64375Q155.19063 29.64375 154.3625 30.45625Q153.53438 31.253124 153.44063 32.6125ZM163.09688 38.8L163.09688 28.425L164.675 28.425L164.675 30.003124Q165.28438 28.89375 165.8 28.55Q166.31563 28.190624 166.925 28.190624Q167.81563 28.190624 168.7375 28.753124L168.12813 30.39375Q167.4875 30.003124 166.84688 30.003124Q166.26875 30.003124 165.8 30.3625Q165.34688 30.70625 165.14375 31.315624Q164.8625 32.253124 164.8625 33.3625L164.8625 38.8L163.09688 38.8ZM178.03438 38.8L174.8625 28.425L176.675 28.425L178.33125 34.409374L178.94063 36.64375Q178.9875 36.471874 179.47188 34.503124L181.12813 28.425L182.94063 28.425L184.4875 34.440624L185.00313 36.425L185.59688 34.425L187.37813 28.425L189.08125 28.425L185.84688 38.8L184.01875 38.8L182.3625 32.58125L181.97188 30.815624L179.8625 38.8L178.03438 38.8ZM191.12813 26.503124L191.12813 24.4875L192.89375 24.4875L192.89375 26.503124L191.12813 26.503124ZM191.12813 38.8L191.12813 28.425L192.89375 28.425L192.89375 38.8L191.12813 38.8ZM198.95625 37.221874L199.20625 38.784374Q198.47188 38.940624 197.87813 38.940624Q196.925 38.940624 196.39375 38.64375Q195.87813 38.33125 195.65938 37.846874Q195.44063 37.346874 195.44063 35.76875L195.44063 29.8L194.15938 29.8L194.15938 28.425L195.44063 28.425L195.44063 25.8625L197.19063 24.8L197.19063 28.425L198.95625 28.425L198.95625 29.8L197.19063 29.8L197.19063 35.8625Q197.19063 36.6125 197.28438 36.83125Q197.37813 37.034374 197.58125 37.175Q197.8 37.3 198.19063 37.3Q198.47188 37.3 198.95625 37.221874ZM201.1125 38.8L201.1125 24.4875L202.87813 24.4875L202.87813 29.6125Q204.1125 28.190624 205.9875 28.190624Q207.12813 28.190624 207.97188 28.64375Q208.83125 29.096874 209.19063 29.909374Q209.56563 30.70625 209.56563 32.221874L209.56563 38.8L207.81563 38.8L207.81563 32.221874Q207.81563 30.909374 207.2375 30.315624Q206.65938 29.70625 205.62813 29.70625Q204.84688 29.70625 204.14375 30.1125Q203.45625 30.51875 203.15938 31.221874Q202.87813 31.909374 202.87813 33.128124L202.87813 38.8L201.1125 38.8ZM217.09688 38.8L217.09688 28.425L218.675 28.425L218.675 30.003124Q219.28438 28.89375 219.8 28.55Q220.31563 28.190624 220.925 28.190624Q221.81563 28.190624 222.7375 28.753124L222.12813 30.39375Q221.4875 30.003124 220.84688 30.003124Q220.26875 30.003124 219.8 30.3625Q219.34688 30.70625 219.14375 31.315624Q218.8625 32.253124 218.8625 33.3625L218.8625 38.8L217.09688 38.8ZM231.22188 35.45625L233.03438 35.690624Q232.6125 37.26875 231.44063 38.159374Q230.28438 39.034374 228.47188 39.034374Q226.20625 39.034374 224.8625 37.64375Q223.53438 36.2375 223.53438 33.70625Q223.53438 31.08125 224.87813 29.64375Q226.22188 28.190624 228.37813 28.190624Q230.45625 28.190624 231.76875 29.6125Q233.09688 31.01875 233.09688 33.596874Q233.09688 33.753124 233.08125 34.065624L225.34688 34.065624Q225.44063 35.76875 226.31563 36.675Q227.19063 37.58125 228.4875 37.58125Q229.45625 37.58125 230.12813 37.08125Q230.81563 36.565624 231.22188 35.45625ZM225.44063 32.6125L231.2375 32.6125Q231.12813 31.315624 230.58125 30.659374Q229.7375 29.64375 228.39375 29.64375Q227.19063 29.64375 226.3625 30.45625Q225.53438 31.253124 225.44063 32.6125ZM234.8 39.659374L236.50313 39.909374Q236.6125 40.70625 237.09688 41.065624Q237.75313 41.55 238.89375 41.55Q240.1125 41.55 240.76875 41.065624Q241.44063 40.58125 241.675 39.70625Q241.81563 39.159374 241.8 37.440624Q240.64375 38.8 238.925 38.8Q236.78438 38.8 235.6125 37.253124Q234.44063 35.70625 234.44063 33.55Q234.44063 32.065624 234.97188 30.815624Q235.51875 29.565624 236.53438 28.878124Q237.56563 28.190624 238.94063 28.190624Q240.76875 28.190624 241.97188 29.675L241.97188 28.425L243.58125 28.425L243.58125 37.39375Q243.58125 39.815624 243.08125 40.815624Q242.59688 41.83125 241.51875 42.409374Q240.45625 43.003124 238.89375 43.003124Q237.05 43.003124 235.89375 42.175Q234.75313 41.346874 234.8 39.659374ZM236.25313 33.425Q236.25313 35.471874 237.06563 36.409374Q237.87813 37.346874 239.09688 37.346874Q240.3 37.346874 241.1125 36.409374Q241.94063 35.471874 241.94063 33.4875Q241.94063 31.58125 241.09688 30.6125Q240.25313 29.64375 239.06563 29.64375Q237.89375 29.64375 237.06563 30.596874Q236.25313 31.55 236.25313 33.425ZM252.89375 37.51875Q251.90938 38.346874 251.00313 38.690624Q250.09688 39.034374 249.06563 39.034374Q247.3625 39.034374 246.44063 38.20625Q245.51875 37.3625 245.51875 36.065624Q245.51875 35.3 245.8625 34.675Q246.22188 34.05 246.78438 33.675Q247.34688 33.284374 248.05 33.08125Q248.56563 32.95625 249.6125 32.815624Q251.7375 32.565624 252.7375 32.221874Q252.75313 31.8625 252.75313 31.753124Q252.75313 30.690624 252.25313 30.2375Q251.58125 29.64375 250.25313 29.64375Q249.00313 29.64375 248.40938 30.08125Q247.83125 30.51875 247.55 31.628124L245.83125 31.39375Q246.06563 30.284374 246.59688 29.6125Q247.12813 28.925 248.14375 28.565624Q249.15938 28.190624 250.50313 28.190624Q251.83125 28.190624 252.65938 28.503124Q253.4875 28.815624 253.87813 29.3Q254.26875 29.76875 254.425 30.4875Q254.51875 30.940624 254.51875 32.1125L254.51875 34.45625Q254.51875 36.909374 254.62813 37.565624Q254.7375 38.20625 255.08125 38.8L253.2375 38.8Q252.97188 38.253124 252.89375 37.51875ZM252.7375 33.596874Q251.78438 33.9875 249.8625 34.253124Q248.78438 34.409374 248.33125 34.6125Q247.89375 34.8 247.64375 35.175Q247.39375 35.55 247.39375 36.01875Q247.39375 36.721874 247.925 37.190624Q248.45625 37.659374 249.4875 37.659374Q250.50313 37.659374 251.28438 37.221874Q252.08125 36.76875 252.45625 36.003124Q252.7375 35.39375 252.7375 34.2375L252.7375 33.596874ZM257.09686 38.8L257.09686 28.425L258.675 28.425L258.675 30.003124Q259.28436 28.89375 259.8 28.55Q260.3156 28.190624 260.925 28.190624Q261.8156 28.190624 262.7375 28.753124L262.1281 30.39375Q261.4875 30.003124 260.84686 30.003124Q260.26874 30.003124 259.8 30.3625Q259.34686 30.70625 259.14374 31.315624Q258.8625 32.253124 258.8625 33.3625L258.8625 38.8L257.09686 38.8ZM270.84686 38.8L270.84686 37.4875Q269.8625 39.034374 267.9406 39.034374Q266.70624 39.034374 265.65936 38.346874Q264.6281 37.659374 264.05 36.440624Q263.4875 35.221874 263.4875 33.628124Q263.4875 32.065624 264.0031 30.8Q264.51874 29.534374 265.55 28.8625Q266.59686 28.190624 267.8625 28.190624Q268.8 28.190624 269.53436 28.596874Q270.26874 28.9875 270.7375 29.6125L270.7375 24.4875L272.47186 24.4875L272.47186 38.8L270.84686 38.8ZM265.28436 33.628124Q265.28436 35.6125 266.1281 36.596874Q266.97186 37.58125 268.1125 37.58125Q269.26874 37.58125 270.0656 36.64375Q270.8781 35.70625 270.8781 33.76875Q270.8781 31.64375 270.05 30.64375Q269.2375 29.64375 268.03436 29.64375Q266.8625 29.64375 266.0656 30.6125Q265.28436 31.565624 265.28436 33.628124ZM274.40936 35.70625L276.15936 35.425Q276.3 36.471874 276.97186 37.034374Q277.64374 37.58125 278.84686 37.58125Q280.05 37.58125 280.6281 37.096874Q281.22186 36.596874 281.22186 35.940624Q281.22186 35.346874 280.70624 35.003124Q280.34686 34.76875 278.90936 34.409374Q276.97186 33.909374 276.22186 33.565624Q275.4875 33.20625 275.09686 32.58125Q274.70624 31.940624 274.70624 31.175Q274.70624 30.4875 275.01874 29.89375Q275.34686 29.3 275.89374 28.909374Q276.3 28.6125 277.0031 28.409374Q277.72186 28.190624 278.53436 28.190624Q279.7531 28.190624 280.675 28.55Q281.59686 28.89375 282.03436 29.503124Q282.47186 30.096874 282.64374 31.096874L280.925 31.33125Q280.8 30.534374 280.2375 30.096874Q279.675 29.64375 278.65936 29.64375Q277.4406 29.64375 276.925 30.05Q276.40936 30.440624 276.40936 30.971874Q276.40936 31.315624 276.6281 31.596874Q276.83124 31.878124 277.3 32.065624Q277.5656 32.159374 278.84686 32.503124Q280.72186 33.003124 281.45624 33.33125Q282.1906 33.64375 282.6125 34.253124Q283.03436 34.846874 283.03436 35.753124Q283.03436 36.628124 282.51874 37.409374Q282.0031 38.190624 281.03436 38.6125Q280.0656 39.034374 278.84686 39.034374Q276.83124 39.034374 275.76874 38.190624Q274.70624 37.346874 274.40936 35.70625ZM294.95624 37.221874L295.20624 38.784374Q294.47186 38.940624 293.8781 38.940624Q292.925 38.940624 292.39374 38.64375Q291.8781 38.33125 291.65936 37.846874Q291.4406 37.346874 291.4406 35.76875L291.4406 29.8L290.15936 29.8L290.15936 28.425L291.4406 28.425L291.4406 25.8625L293.1906 24.8L293.1906 28.425L294.95624 28.425L294.95624 29.8L293.1906 29.8L293.1906 35.8625Q293.1906 36.6125 293.28436 36.83125Q293.3781 37.034374 293.58124 37.175Q293.8 37.3 294.1906 37.3Q294.47186 37.3 294.95624 37.221874ZM296.47186 33.6125Q296.47186 30.7375 298.0656 29.346874Q299.40936 28.190624 301.33124 28.190624Q303.47186 28.190624 304.8156 29.596874Q306.175 31.003124 306.175 33.471874Q306.175 35.471874 305.58124 36.628124Q304.9875 37.76875 303.83124 38.409374Q302.6906 39.034374 301.33124 39.034374Q299.14374 39.034374 297.8 37.64375Q296.47186 36.2375 296.47186 33.6125ZM298.26874 33.6125Q298.26874 35.6125 299.1281 36.596874Q300.0031 37.58125 301.33124 37.58125Q302.64374 37.58125 303.5031 36.596874Q304.3781 35.596874 304.3781 33.55Q304.3781 31.628124 303.5031 30.64375Q302.6281 29.64375 301.33124 29.64375Q300.0031 29.64375 299.1281 30.64375Q298.26874 31.628124 298.26874 33.6125ZM317.95624 37.221874L318.20624 38.784374Q317.47186 38.940624 316.8781 38.940624Q315.925 38.940624 315.39374 38.64375Q314.8781 38.33125 314.65936 37.846874Q314.4406 37.346874 314.4406 35.76875L314.4406 29.8L313.15936 29.8L313.15936 28.425L314.4406 28.425L314.4406 25.8625L316.1906 24.8L316.1906 28.425L317.95624 28.425L317.95624 29.8L316.1906 29.8L316.1906 35.8625Q316.1906 36.6125 316.28436 36.83125Q316.3781 37.034374 316.58124 37.175Q316.8 37.3 317.1906 37.3Q317.47186 37.3 317.95624 37.221874ZM320.1125 38.8L320.1125 24.4875L321.8781 24.4875L321.8781 29.6125Q323.1125 28.190624 324.9875 28.190624Q326.1281 28.190624 326.97186 28.64375Q327.83124 29.096874 328.1906 29.909374Q328.5656 30.70625 328.5656 32.221874L328.5656 38.8L326.8156 38.8L326.8156 32.221874Q326.8156 30.909374 326.2375 30.315624Q325.65936 29.70625 324.6281 29.70625Q323.84686 29.70625 323.14374 30.1125Q322.45624 30.51875 322.15936 31.221874Q321.8781 31.909374 321.8781 33.128124L321.8781 38.8L320.1125 38.8ZM337.22186 35.45625L339.03436 35.690624Q338.6125 37.26875 337.4406 38.159374Q336.28436 39.034374 334.47186 39.034374Q332.20624 39.034374 330.8625 37.64375Q329.53436 36.2375 329.53436 33.70625Q329.53436 31.08125 330.8781 29.64375Q332.22186 28.190624 334.3781 28.190624Q336.45624 28.190624 337.76874 29.6125Q339.09686 31.01875 339.09686 33.596874Q339.09686 33.753124 339.08124 34.065624L331.34686 34.065624Q331.4406 35.76875 332.3156 36.675Q333.1906 37.58125 334.4875 37.58125Q335.45624 37.58125 336.1281 37.08125Q336.8156 36.565624 337.22186 35.45625ZM331.4406 32.6125L337.2375 32.6125Q337.1281 31.315624 336.58124 30.659374Q335.7375 29.64375 334.39374 29.64375Q333.1906 29.64375 332.3625 30.45625Q331.53436 31.253124 331.4406 32.6125ZM353.84686 38.8L353.84686 37.4875Q352.8625 39.034374 350.9406 39.034374Q349.70624 39.034374 348.65936 38.346874Q347.6281 37.659374 347.05 36.440624Q346.4875 35.221874 346.4875 33.628124Q346.4875 32.065624 347.0031 30.8Q347.51874 29.534374 348.55 28.8625Q349.59686 28.190624 350.8625 28.190624Q351.8 28.190624 352.53436 28.596874Q353.26874 28.9875 353.7375 29.6125L353.7375 24.4875L355.47186 24.4875L355.47186 38.8L353.84686 38.8ZM348.28436 33.628124Q348.28436 35.6125 349.1281 36.596874Q349.97186 37.58125 351.1125 37.58125Q352.26874 37.58125 353.0656 36.64375Q353.8781 35.70625 353.8781 33.76875Q353.8781 31.64375 353.05 30.64375Q352.2375 29.64375 351.03436 29.64375Q349.8625 29.64375 349.0656 30.6125Q348.28436 31.565624 348.28436 33.628124ZM358.1281 26.503124L358.1281 24.4875L359.89374 24.4875L359.89374 26.503124L358.1281 26.503124ZM358.1281 38.8L358.1281 28.425L359.89374 28.425L359.89374 38.8L358.1281 38.8ZM361.40936 35.70625L363.15936 35.425Q363.3 36.471874 363.97186 37.034374Q364.64374 37.58125 365.84686 37.58125Q367.05 37.58125 367.6281 37.096874Q368.22186 36.596874 368.22186 35.940624Q368.22186 35.346874 367.70624 35.003124Q367.34686 34.76875 365.90936 34.409374Q363.97186 33.909374 363.22186 33.565624Q362.4875 33.20625 362.09686 32.58125Q361.70624 31.940624 361.70624 31.175Q361.70624 30.4875 362.01874 29.89375Q362.34686 29.3 362.89374 28.909374Q363.3 28.6125 364.0031 28.409374Q364.72186 28.190624 365.53436 28.190624Q366.7531 28.190624 367.675 28.55Q368.59686 28.89375 369.03436 29.503124Q369.47186 30.096874 369.64374 31.096874L367.925 31.33125Q367.8 30.534374 367.2375 30.096874Q366.675 29.64375 365.65936 29.64375Q364.4406 29.64375 363.925 30.05Q363.40936 30.440624 363.40936 30.971874Q363.40936 31.315624 363.6281 31.596874Q363.83124 31.878124 364.3 32.065624Q364.5656 32.159374 365.84686 32.503124Q367.72186 33.003124 368.45624 33.33125Q369.1906 33.64375 369.6125 34.253124Q370.03436 34.846874 370.03436 35.753124Q370.03436 36.628124 369.51874 37.409374Q369.0031 38.190624 368.03436 38.6125Q367.0656 39.034374 365.84686 39.034374Q363.83124 39.034374 362.76874 38.190624Q361.70624 37.346874 361.40936 35.70625ZM375.95624 37.221874L376.20624 38.784374Q375.47186 38.940624 374.8781 38.940624Q373.925 38.940624 373.39374 38.64375Q372.8781 38.33125 372.65936 37.846874Q372.4406 37.346874 372.4406 35.76875L372.4406 29.8L371.15936 29.8L371.15936 28.425L372.4406 28.425L372.4406 25.8625L374.1906 24.8L374.1906 28.425L375.95624 28.425L375.95624 29.8L374.1906 29.8L374.1906 35.8625Q374.1906 36.6125 374.28436 36.83125Q374.3781 37.034374 374.58124 37.175Q374.8 37.3 375.1906 37.3Q375.47186 37.3 375.95624 37.221874ZM384.89374 37.51875Q383.90936 38.346874 383.0031 38.690624Q382.09686 39.034374 381.0656 39.034374Q379.3625 39.034374 378.4406 38.20625Q377.51874 37.3625 377.51874 36.065624Q377.51874 35.3 377.8625 34.675Q378.22186 34.05 378.78436 33.675Q379.34686 33.284374 380.05 33.08125Q380.5656 32.95625 381.6125 32.815624Q383.7375 32.565624 384.7375 32.221874Q384.7531 31.8625 384.7531 31.753124Q384.7531 30.690624 384.2531 30.2375Q383.58124 29.64375 382.2531 29.64375Q381.0031 29.64375 380.40936 30.08125Q379.83124 30.51875 379.55 31.628124L377.83124 31.39375Q378.0656 30.284374 378.59686 29.6125Q379.1281 28.925 380.14374 28.565624Q381.15936 28.190624 382.5031 28.190624Q383.83124 28.190624 384.65936 28.503124Q385.4875 28.815624 385.8781 29.3Q386.26874 29.76875 386.425 30.4875Q386.51874 30.940624 386.51874 32.1125L386.51874 34.45625Q386.51874 36.909374 386.6281 37.565624Q386.7375 38.20625 387.08124 38.8L385.2375 38.8Q384.97186 38.253124 384.89374 37.51875ZM384.7375 33.596874Q383.78436 33.9875 381.8625 34.253124Q380.78436 34.409374 380.33124 34.6125Q379.89374 34.8 379.64374 35.175Q379.39374 35.55 379.39374 36.01875Q379.39374 36.721874 379.925 37.190624Q380.45624 37.659374 381.4875 37.659374Q382.5031 37.659374 383.28436 37.221874Q384.08124 36.76875 384.45624 36.003124Q384.7375 35.39375 384.7375 34.2375L384.7375 33.596874ZM389.1125 38.8L389.1125 28.425L390.70624 28.425L390.70624 29.909374Q391.84686 28.190624 394.0031 28.190624Q394.9406 28.190624 395.72186 28.534374Q396.51874 28.8625 396.90936 29.409374Q397.3 29.95625 397.45624 30.70625Q397.55 31.20625 397.55 32.425L397.55 38.8L395.78436 38.8L395.78436 32.4875Q395.78436 31.409374 395.58124 30.878124Q395.3781 30.346874 394.84686 30.034374Q394.33124 29.721874 393.6281 29.721874Q392.5031 29.721874 391.6906 30.440624Q390.8781 31.14375 390.8781 33.128124L390.8781 38.8L389.1125 38.8ZM405.89374 35.003124L407.6125 35.221874Q407.33124 37.01875 406.15936 38.034374Q405.0031 39.034374 403.3 39.034374Q401.175 39.034374 399.8781 37.64375Q398.58124 36.253124 398.58124 33.659374Q398.58124 31.971874 399.1281 30.721874Q399.6906 29.45625 400.83124 28.83125Q401.97186 28.190624 403.3156 28.190624Q405.0031 28.190624 406.0656 29.05Q407.14374 29.909374 407.45624 31.471874L405.7375 31.7375Q405.5031 30.690624 404.8781 30.175Q404.2531 29.64375 403.3781 29.64375Q402.05 29.64375 401.22186 30.596874Q400.39374 31.55 400.39374 33.596874Q400.39374 35.690624 401.1906 36.64375Q401.9875 37.58125 403.28436 37.58125Q404.3156 37.58125 405.0031 36.95625Q405.70624 36.315624 405.89374 35.003124ZM416.22186 35.45625L418.03436 35.690624Q417.6125 37.26875 416.4406 38.159374Q415.28436 39.034374 413.47186 39.034374Q411.20624 39.034374 409.8625 37.64375Q408.53436 36.2375 408.53436 33.70625Q408.53436 31.08125 409.8781 29.64375Q411.22186 28.190624 413.3781 28.190624Q415.45624 28.190624 416.76874 29.6125Q418.09686 31.01875 418.09686 33.596874Q418.09686 33.753124 418.08124 34.065624L410.34686 34.065624Q410.4406 35.76875 411.3156 36.675Q412.1906 37.58125 413.4875 37.58125Q414.45624 37.58125 415.1281 37.08125Q415.8156 36.565624 416.22186 35.45625ZM410.4406 32.6125L416.2375 32.6125Q416.1281 31.315624 415.58124 30.659374Q414.7375 29.64375 413.39374 29.64375Q412.1906 29.64375 411.3625 30.45625Q410.53436 31.253124 410.4406 32.6125Z" fill-rule="nonzero"/></svg>