<svg version="1.1" viewBox="0.0 0.0 634.0 371.0" fill="none" stroke="none" stroke-linecap="square" stroke-miterlimit="10" width="634" height="371" xmlns:xlink="http://www.w3.org/1999/xlink" xmlns="http://www.w3.org/2000/svg"><path fill="#ffffff" d="M0 0L634.0 0L634.0 371.0L0 371.0L0 0Z" fill-rule="nonzero"/><path stroke="#cccccc" stroke-width="1.0" stroke-linecap="butt" d="M87.5 61.5L87.5 300.5" fill-rule="nonzero"/><path stroke="#cccccc" stroke-width="1.0" stroke-linecap="butt" d="M263.5 61.5L263.5 300.5" fill-rule="nonzero"/><path stroke="#cccccc" stroke-width="1.0" stroke-linecap="butt" d="M439.5 61.5L439.5 300.5" fill-rule="nonzero"/><path stroke="#cccccc" stroke-width="1.0" stroke-linecap="butt" d="M615.5 61.5L615.5 300.5" fill-rule="nonzero"/><path stroke="#333333" stroke-width="1.0" stroke-linecap="butt" d="M87.5 300.5L615.5 300.5" fill-rule="nonzero"/><path stroke="#cccccc" stroke-width="1.0" stroke-linecap="butt" d="M87.5 240.5L615.5 240.5" fill-rule="nonzero"/><path stroke="#cccccc" stroke-width="1.0" stroke-linecap="butt" d="M87.5 181.5L615.5 181.5" fill-rule="nonzero"/><path stroke="#cccccc" stroke-width="1.0" stroke-linecap="butt" d="M87.5 121.5L615.5 121.5" fill-rule="nonzero"/><path stroke="#cccccc" stroke-width="1.0" stroke-linecap="butt" d="M87.5 61.5L615.5 61.5" fill-rule="nonzero"/><clipPath id="id_0"><path d="M87.55 61.916668L615.45 61.916668L615.45 300.45L87.55 300.45L87.55 61.916668Z" clip-rule="nonzero"/></clipPath><path stroke="#4285f4" stroke-width="2.0" stroke-linecap="butt" clip-path="url(#id_0)" d="M87.55 111.42153L263.51666 186.34456L439.48334 222.87662L615.45 244.66258" fill-rule="nonzero"/><path fill="#000000" fill-opacity="0.0" clip-path="url(#id_0)" d="M90.55 111.42153C90.55 113.078384 89.206856 114.42153 87.55 114.42153C85.89314 114.42153 84.55 113.078384 84.55 111.42153C84.55 109.76468 85.89314 108.42153 87.55 108.42153C89.206856 108.42153 90.55 109.76468 90.55 111.42153Z" fill-rule="nonzero"/><path fill="#000000" fill-opacity="0.0" clip-path="url(#id_0)" d="M266.51666 186.34456C266.51666 188.00142 265.17352 189.34456 263.51666 189.34456C261.8598 189.34456 260.51666 188.00142 260.51666 186.34456C260.51666 184.68771 261.8598 183.34456 263.51666 183.34456C265.17352 183.34456 266.51666 184.68771 266.51666 186.34456Z" fill-rule="nonzero"/><path fill="#000000" fill-opacity="0.0" clip-path="url(#id_0)" d="M442.48334 222.87662C442.48334 224.53348 441.1402 225.87662 439.48334 225.87662C437.82648 225.87662 436.48334 224.53348 436.48334 222.87662C436.48334 221.21977 437.82648 219.87662 439.48334 219.87662C441.1402 219.87662 442.48334 221.21977 442.48334 222.87662Z" fill-rule="nonzero"/><path fill="#000000" fill-opacity="0.0" clip-path="url(#id_0)" d="M618.45 244.66258C618.45 246.31944 617.1069 247.66258 615.45 247.66258C613.79315 247.66258 612.45 246.31944 612.45 244.66258C612.45 243.00574 613.79315 241.66258 615.45 241.66258C617.1069 241.66258 618.45 243.00574 618.45 244.66258Z" fill-rule="nonzero"/><path fill="#000000" d="M299.92188 349.45L299.92188 340.85626L301.07812 340.85626L305.59375 347.60626L305.59375 340.85626L306.6875 340.85626L306.6875 349.45L305.51562 349.45L301.0 342.7L301.0 349.45L299.92188 349.45ZM312.875 349.45L312.875 348.52814Q312.14062 349.59064 310.89062 349.59064Q310.34375 349.59064 309.85938 349.3875Q309.39062 349.16876 309.15625 348.85626Q308.92188 348.52814 308.82812 348.0594Q308.76562 347.7625 308.76562 347.075L308.76562 343.23126L309.82812 343.23126L309.82812 346.6844Q309.82812 347.4969 309.89062 347.79376Q309.98438 348.2 310.29688 348.45Q310.625 348.6844 311.10938 348.6844Q311.57812 348.6844 311.98438 348.45Q312.40625 348.2 312.57812 347.77814Q312.76562 347.35626 312.76562 346.5594L312.76562 343.23126L313.8125 343.23126L313.8125 349.45L312.875 349.45ZM315.79688 349.45L315.79688 343.23126L316.73438 343.23126L316.73438 344.10626Q317.03125 343.6375 317.51562 343.3719Q318.0 343.09064 318.625 343.09064Q319.3125 343.09064 319.75 343.3719Q320.20312 343.65314 320.375 344.16876Q321.125 343.09064 322.29688 343.09064Q323.23438 343.09064 323.71875 343.60626Q324.21875 344.10626 324.21875 345.1844L324.21875 349.45L323.17188 349.45L323.17188 345.52814Q323.17188 344.90314 323.0625 344.6219Q322.96875 344.34064 322.70312 344.16876Q322.4375 343.9969 322.0625 343.9969Q321.40625 343.9969 320.96875 344.4344Q320.54688 344.8719 320.54688 345.84064L320.54688 349.45L319.48438 349.45L319.48438 345.40314Q319.48438 344.7 319.21875 344.35626Q318.96875 343.9969 318.39062 343.9969Q317.9375 343.9969 317.5625 344.23126Q317.1875 344.46564 317.01562 344.91876Q316.84375 345.3719 316.84375 346.21564L316.84375 349.45L315.79688 349.45ZM327.76562 349.45L326.78125 349.45L326.78125 340.85626L327.84375 340.85626L327.84375 343.91876Q328.51562 343.09064 329.54688 343.09064Q330.125 343.09064 330.625 343.325Q331.14062 343.54376 331.46875 343.96564Q331.8125 344.3875 332.0 344.98126Q332.1875 345.575 332.1875 346.2469Q332.1875 347.84064 331.39062 348.71564Q330.59375 349.59064 329.5 349.59064Q328.39062 349.59064 327.76562 348.66876L327.76562 349.45ZM327.75 346.29376Q327.75 347.40314 328.0625 347.90314Q328.5625 348.71564 329.40625 348.71564Q330.09375 348.71564 330.59375 348.1219Q331.10938 347.52814 331.10938 346.325Q331.10938 345.10626 330.625 344.52814Q330.14062 343.95 329.45312 343.95Q328.76562 343.95 328.25 344.5594Q327.75 345.15314 327.75 346.29376ZM338.04688 347.45L339.14062 347.575Q338.89062 348.52814 338.1875 349.0594Q337.48438 349.59064 336.40625 349.59064Q335.04688 349.59064 334.23438 348.7469Q333.4375 347.90314 333.4375 346.3875Q333.4375 344.825 334.25 343.96564Q335.0625 343.09064 336.34375 343.09064Q337.59375 343.09064 338.375 343.9344Q339.17188 344.77814 339.17188 346.325Q339.17188 346.41876 339.17188 346.60626L334.53125 346.60626Q334.59375 347.6375 335.10938 348.1844Q335.625 348.71564 336.40625 348.71564Q336.98438 348.71564 337.39062 348.41876Q337.8125 348.10626 338.04688 347.45ZM334.59375 345.7469L338.0625 345.7469Q338.0 344.95 337.67188 344.5594Q337.15625 343.95 336.35938 343.95Q335.625 343.95 335.125 344.4344Q334.64062 344.91876 334.59375 345.7469ZM340.78125 349.45L340.78125 343.23126L341.73438 343.23126L341.73438 344.16876Q342.09375 343.5125 342.39062 343.3094Q342.70312 343.09064 343.07812 343.09064Q343.60938 343.09064 344.15625 343.41876L343.79688 344.40314Q343.40625 344.16876 343.03125 344.16876Q342.67188 344.16876 342.39062 344.3875Q342.125 344.59064 342.01562 344.96564Q341.82812 345.52814 341.82812 346.1844L341.82812 349.45L340.78125 349.45ZM347.40625 346.34064Q347.40625 344.60626 348.35938 343.77814Q349.15625 343.09064 350.3125 343.09064Q351.59375 343.09064 352.40625 343.9344Q353.23438 344.7625 353.23438 346.2469Q353.23438 347.45 352.875 348.1375Q352.51562 348.825 351.8125 349.21564Q351.125 349.59064 350.3125 349.59064Q349.01562 349.59064 348.20312 348.7625Q347.40625 347.91876 347.40625 346.34064ZM348.48438 346.34064Q348.48438 347.52814 349.0 348.1219Q349.53125 348.71564 350.3125 348.71564Q351.10938 348.71564 351.625 348.1219Q352.14062 347.52814 352.14062 346.3094Q352.14062 345.15314 351.60938 344.5594Q351.09375 343.96564 350.3125 343.96564Q349.53125 343.96564 349.0 344.5594Q348.48438 345.1375 348.48438 346.34064ZM355.04688 349.45L355.04688 344.04376L354.10938 344.04376L354.10938 343.23126L355.04688 343.23126L355.04688 342.5594Q355.04688 341.9344 355.15625 341.6375Q355.3125 341.21564 355.6875 340.96564Q356.07812 340.71564 356.76562 340.71564Q357.21875 340.71564 357.75 340.825L357.59375 341.73126Q357.26562 341.6844 356.96875 341.6844Q356.48438 341.6844 356.28125 341.8875Q356.09375 342.09064 356.09375 342.65314L356.09375 343.23126L357.3125 343.23126L357.3125 344.04376L356.09375 344.04376L356.09375 349.45L355.04688 349.45ZM360.375 347.59064L361.40625 347.4344Q361.5 348.0594 361.89062 348.3875Q362.29688 348.71564 363.03125 348.71564Q363.75 348.71564 364.09375 348.4344Q364.45312 348.1375 364.45312 347.73126Q364.45312 347.3719 364.14062 347.16876Q363.92188 347.02814 363.0625 346.8094Q361.90625 346.5125 361.45312 346.3094Q361.01562 346.09064 360.78125 345.71564Q360.54688 345.34064 360.54688 344.8719Q360.54688 344.46564 360.73438 344.10626Q360.92188 343.7469 361.25 343.5125Q361.5 343.34064 361.92188 343.21564Q362.34375 343.09064 362.84375 343.09064Q363.5625 343.09064 364.10938 343.3094Q364.67188 343.5125 364.9375 343.8719Q365.20312 344.23126 365.29688 344.825L364.26562 344.96564Q364.20312 344.4969 363.85938 344.23126Q363.53125 343.95 362.90625 343.95Q362.1875 343.95 361.875 344.2Q361.5625 344.4344 361.5625 344.7625Q361.5625 344.96564 361.6875 345.1219Q361.82812 345.29376 362.09375 345.40314Q362.25 345.46564 363.03125 345.66876Q364.15625 345.98126 364.59375 346.16876Q365.03125 346.35626 365.28125 346.71564Q365.53125 347.075 365.53125 347.6219Q365.53125 348.15314 365.21875 348.6219Q364.92188 349.075 364.34375 349.34064Q363.76562 349.59064 363.03125 349.59064Q361.8125 349.59064 361.17188 349.09064Q360.54688 348.575 360.375 347.59064ZM370.09375 348.5125L370.25 349.4344Q369.79688 349.52814 369.45312 349.52814Q368.875 349.52814 368.5625 349.35626Q368.25 349.16876 368.10938 348.8719Q367.98438 348.575 367.98438 347.6219L367.98438 344.04376L367.21875 344.04376L367.21875 343.23126L367.98438 343.23126L367.98438 341.6844L369.03125 341.0594L369.03125 343.23126L370.09375 343.23126L370.09375 344.04376L369.03125 344.04376L369.03125 347.6844Q369.03125 348.1375 369.07812 348.2625Q369.14062 348.3875 369.26562 348.46564Q369.39062 348.54376 369.625 348.54376Q369.8125 348.54376 370.09375 348.5125ZM374.85938 348.6844Q374.26562 349.1844 373.71875 349.3875Q373.1875 349.59064 372.5625 349.59064Q371.53125 349.59064 370.98438 349.09064Q370.4375 348.59064 370.4375 347.8094Q370.4375 347.35626 370.64062 346.98126Q370.84375 346.59064 371.1875 346.3719Q371.53125 346.1375 371.95312 346.02814Q372.25 345.9344 372.89062 345.85626Q374.15625 345.71564 374.76562 345.4969Q374.76562 345.27814 374.76562 345.23126Q374.76562 344.575 374.46875 344.3094Q374.0625 343.96564 373.26562 343.96564Q372.53125 343.96564 372.17188 344.23126Q371.8125 344.48126 371.64062 345.1375L370.60938 344.9969Q370.75 344.34064 371.07812 343.9344Q371.40625 343.52814 372.01562 343.3094Q372.625 343.09064 373.42188 343.09064Q374.21875 343.09064 374.71875 343.27814Q375.21875 343.46564 375.45312 343.7469Q375.6875 344.02814 375.78125 344.46564Q375.82812 344.73126 375.82812 345.4344L375.82812 346.84064Q375.82812 348.3094 375.89062 348.7Q375.96875 349.09064 376.17188 349.45L375.0625 349.45Q374.90625 349.1219 374.85938 348.6844ZM374.76562 346.325Q374.1875 346.5594 373.04688 346.73126Q372.39062 346.825 372.125 346.95Q371.85938 347.0594 371.70312 347.27814Q371.5625 347.4969 371.5625 347.77814Q371.5625 348.2 371.875 348.48126Q372.20312 348.7625 372.8125 348.7625Q373.42188 348.7625 373.89062 348.4969Q374.375 348.23126 374.59375 347.7625Q374.76562 347.40314 374.76562 346.71564L374.76562 346.325ZM380.09375 348.5125L380.25 349.4344Q379.79688 349.52814 379.45312 349.52814Q378.875 349.52814 378.5625 349.35626Q378.25 349.16876 378.10938 348.8719Q377.98438 348.575 377.98438 347.6219L377.98438 344.04376L377.21875 344.04376L377.21875 343.23126L377.98438 343.23126L377.98438 341.6844L379.03125 341.0594L379.03125 343.23126L380.09375 343.23126L380.09375 344.04376L379.03125 344.04376L379.03125 347.6844Q379.03125 348.1375 379.07812 348.2625Q379.14062 348.3875 379.26562 348.46564Q379.39062 348.54376 379.625 348.54376Q379.8125 348.54376 380.09375 348.5125ZM380.79688 342.075L380.79688 340.85626L381.85938 340.85626L381.85938 342.075L380.79688 342.075ZM380.79688 349.45L380.79688 343.23126L381.85938 343.23126L381.85938 349.45L380.79688 349.45ZM383.40625 346.34064Q383.40625 344.60626 384.35938 343.77814Q385.15625 343.09064 386.3125 343.09064Q387.59375 343.09064 388.40625 343.9344Q389.23438 344.7625 389.23438 346.2469Q389.23438 347.45 388.875 348.1375Q388.51562 348.825 387.8125 349.21564Q387.125 349.59064 386.3125 349.59064Q385.01562 349.59064 384.20312 348.7625Q383.40625 347.91876 383.40625 346.34064ZM384.48438 346.34064Q384.48438 347.52814 385.0 348.1219Q385.53125 348.71564 386.3125 348.71564Q387.10938 348.71564 387.625 348.1219Q388.14062 347.52814 388.14062 346.3094Q388.14062 345.15314 387.60938 344.5594Q387.09375 343.96564 386.3125 343.96564Q385.53125 343.96564 385.0 344.5594Q384.48438 345.1375 384.48438 346.34064ZM390.79688 349.45L390.79688 343.23126L391.73438 343.23126L391.73438 344.10626Q392.42188 343.09064 393.71875 343.09064Q394.28125 343.09064 394.75 343.29376Q395.23438 343.4969 395.46875 343.825Q395.70312 344.15314 395.79688 344.59064Q395.84375 344.8875 395.84375 345.6219L395.84375 349.45L394.79688 349.45L394.79688 345.66876Q394.79688 345.0125 394.67188 344.7Q394.54688 344.3875 394.23438 344.2Q393.92188 343.9969 393.5 343.9969Q392.82812 343.9969 392.32812 344.4344Q391.84375 344.85626 391.84375 346.04376L391.84375 349.45L390.79688 349.45ZM397.375 347.59064L398.40625 347.4344Q398.5 348.0594 398.89062 348.3875Q399.29688 348.71564 400.03125 348.71564Q400.75 348.71564 401.09375 348.4344Q401.45312 348.1375 401.45312 347.73126Q401.45312 347.3719 401.14062 347.16876Q400.92188 347.02814 400.0625 346.8094Q398.90625 346.5125 398.45312 346.3094Q398.01562 346.09064 397.78125 345.71564Q397.54688 345.34064 397.54688 344.8719Q397.54688 344.46564 397.73438 344.10626Q397.92188 343.7469 398.25 343.5125Q398.5 343.34064 398.92188 343.21564Q399.34375 343.09064 399.84375 343.09064Q400.5625 343.09064 401.10938 343.3094Q401.67188 343.5125 401.9375 343.8719Q402.20312 344.23126 402.29688 344.825L401.26562 344.96564Q401.20312 344.4969 400.85938 344.23126Q400.53125 343.95 399.90625 343.95Q399.1875 343.95 398.875 344.2Q398.5625 344.4344 398.5625 344.7625Q398.5625 344.96564 398.6875 345.1219Q398.82812 345.29376 399.09375 345.40314Q399.25 345.46564 400.03125 345.66876Q401.15625 345.98126 401.59375 346.16876Q402.03125 346.35626 402.28125 346.71564Q402.53125 347.075 402.53125 347.6219Q402.53125 348.15314 402.21875 348.6219Q401.92188 349.075 401.34375 349.34064Q400.76562 349.59064 400.03125 349.59064Q398.8125 349.59064 398.17188 349.09064Q397.54688 348.575 397.375 347.59064Z" fill-rule="nonzero"/><path fill="#000000" d="M29.550013 269.69897L20.956263 266.4021L20.956263 265.18335L29.550013 261.66772L29.550013 262.94897L26.940638 263.9646L26.940638 267.54272L29.550013 268.49585L29.550013 269.69897ZM26.018763 267.2146L26.018763 264.30835L23.643763 265.19897Q22.565638 265.62085 21.862513 265.80835Q22.690638 265.98022 23.503138 266.2771L26.018763 267.2146ZM31.940638 261.88647L23.331263 261.88647L23.331263 260.93335L24.128138 260.93335Q23.659388 260.5896 23.425013 260.16772Q23.190638 259.73022 23.190638 259.12085Q23.190638 258.32397 23.596888 257.7146Q24.003138 257.10522 24.753138 256.80835Q25.503138 256.49585 26.393763 256.49585Q27.346888 256.49585 28.112513 256.8396Q28.878138 257.16772 29.284388 257.82397Q29.690638 258.48022 29.690638 259.19897Q29.690638 259.73022 29.471888 260.1521Q29.237513 260.57397 28.909388 260.8396L31.940638 260.8396L31.940638 261.88647ZM26.471888 260.93335Q27.675013 260.93335 28.253138 260.44897Q28.815638 259.9646 28.815638 259.2771Q28.815638 258.57397 28.221888 258.07397Q27.628138 257.57397 26.378138 257.57397Q25.190638 257.57397 24.612513 258.05835Q24.018763 258.54272 24.018763 259.23022Q24.018763 259.9021 24.643763 260.41772Q25.268763 260.93335 26.471888 260.93335ZM31.940638 254.88646L23.331263 254.88646L23.331263 253.93333L24.128138 253.93333Q23.659388 253.58958 23.425013 253.16771Q23.190638 252.73021 23.190638 252.12083Q23.190638 251.32396 23.596888 250.71458Q24.003138 250.10521 24.753138 249.80833Q25.503138 249.49583 26.393763 249.49583Q27.346888 249.49583 28.112513 249.83958Q28.878138 250.16771 29.284388 250.82396Q29.690638 251.48021 29.690638 252.19896Q29.690638 252.73021 29.471888 253.15208Q29.237513 253.57396 28.909388 253.83958L31.940638 253.83958L31.940638 254.88646ZM26.471888 253.93333Q27.675013 253.93333 28.253138 253.44896Q28.815638 252.96458 28.815638 252.27708Q28.815638 251.57396 28.221888 251.07396Q27.628138 250.57396 26.378138 250.57396Q25.190638 250.57396 24.612513 251.05833Q24.018763 251.54271 24.018763 252.23021Q24.018763 252.90208 24.643763 253.41771Q25.268763 253.93333 26.471888 253.93333ZM29.550013 247.91771L20.956263 247.91771L20.956263 246.85521L29.550013 246.85521L29.550013 247.91771ZM22.175013 244.88646L20.956263 244.88646L20.956263 243.82396L22.175013 243.82396L22.175013 244.88646ZM29.550013 244.88646L23.331263 244.88646L23.331263 243.82396L29.550013 243.82396L29.550013 244.88646ZM27.268763 237.82396L27.409388 236.79271Q28.471888 236.96458 29.081263 237.66771Q29.690638 238.37083 29.690638 239.38646Q29.690638 240.66771 28.862513 241.44896Q28.018763 242.21458 26.456263 242.21458Q25.456263 242.21458 24.706263 241.88646Q23.940638 241.54271 23.565638 240.87083Q23.190638 240.18333 23.190638 239.37083Q23.190638 238.37083 23.706263 237.73021Q24.206263 237.07396 25.159388 236.88646L25.315638 237.91771Q24.690638 238.05833 24.378138 238.43333Q24.050013 238.80833 24.050013 239.33958Q24.050013 240.13646 24.628138 240.63646Q25.190638 241.13646 26.425013 241.13646Q27.690638 241.13646 28.253138 240.65208Q28.815638 240.16771 28.815638 239.40208Q28.815638 238.77708 28.440638 238.37083Q28.065638 237.94896 27.268763 237.82396ZM28.784388 231.82396Q29.284388 232.41771 29.487513 232.96458Q29.690638 233.49583 29.690638 234.12083Q29.690638 235.15208 29.190638 235.69896Q28.690638 236.24583 27.909388 236.24583Q27.456263 236.24583 27.081263 236.04271Q26.690638 235.83958 26.471888 235.49583Q26.237513 235.15208 26.128138 234.73021Q26.034388 234.43333 25.956263 233.79271Q25.815638 232.52708 25.596888 231.91771Q25.378138 231.91771 25.331263 231.91771Q24.675013 231.91771 24.409388 232.21458Q24.065638 232.62083 24.065638 233.41771Q24.065638 234.15208 24.331263 234.51146Q24.581263 234.87083 25.237513 235.04271L25.096888 236.07396Q24.440638 235.93333 24.034388 235.60521Q23.628138 235.27708 23.409388 234.66771Q23.190638 234.05833 23.190638 233.26146Q23.190638 232.46458 23.378138 231.96458Q23.565638 231.46458 23.846888 231.23021Q24.128138 230.99583 24.565638 230.90208Q24.831263 230.85521 25.534388 230.85521L26.940638 230.85521Q28.409388 230.85521 28.800013 230.79271Q29.190638 230.71458 29.550013 230.51146L29.550013 231.62083Q29.221888 231.77708 28.784388 231.82396ZM26.425013 231.91771Q26.659388 232.49583 26.831263 233.63646Q26.925013 234.29271 27.050013 234.55833Q27.159388 234.82396 27.378138 234.98021Q27.596888 235.12083 27.878138 235.12083Q28.300013 235.12083 28.581263 234.80833Q28.862513 234.48021 28.862513 233.87083Q28.862513 233.26146 28.596888 232.79271Q28.331263 232.30833 27.862513 232.08958Q27.503138 231.91771 26.815638 231.91771L26.425013 231.91771ZM28.612513 226.58958L29.534388 226.43333Q29.628138 226.88646 29.628138 227.23021Q29.628138 227.80833 29.456263 228.12083Q29.268763 228.43333 28.971888 228.57396Q28.675013 228.69896 27.721888 228.69896L24.143763 228.69896L24.143763 229.46458L23.331263 229.46458L23.331263 228.69896L21.784388 228.69896L21.159388 227.65208L23.331263 227.65208L23.331263 226.58958L24.143763 226.58958L24.143763 227.65208L27.784388 227.65208Q28.237513 227.65208 28.362513 227.60521Q28.487513 227.54271 28.565638 227.41771Q28.643763 227.29271 28.643763 227.05833Q28.643763 226.87083 28.612513 226.58958ZM22.175013 225.88646L20.956263 225.88646L20.956263 224.82396L22.175013 224.82396L22.175013 225.88646ZM29.550013 225.88646L23.331263 225.88646L23.331263 224.82396L29.550013 224.82396L29.550013 225.88646ZM26.440638 223.27708Q24.706263 223.27708 23.878138 222.32396Q23.190638 221.52708 23.190638 220.37083Q23.190638 219.08958 24.034388 218.27708Q24.862513 217.44896 26.346888 217.44896Q27.550013 217.44896 28.237513 217.80833Q28.925013 218.16771 29.315638 218.87083Q29.690638 219.55833 29.690638 220.37083Q29.690638 221.66771 28.862513 222.48021Q28.018763 223.27708 26.440638 223.27708ZM26.440638 222.19896Q27.628138 222.19896 28.221888 221.68333Q28.815638 221.15208 28.815638 220.37083Q28.815638 219.57396 28.221888 219.05833Q27.628138 218.54271 26.409388 218.54271Q25.253138 218.54271 24.659388 219.07396Q24.065638 219.58958 24.065638 220.37083Q24.065638 221.15208 24.659388 221.68333Q25.237513 222.19896 26.440638 222.19896ZM29.550013 215.88646L23.331263 215.88646L23.331263 214.94896L24.206263 214.94896Q23.190638 214.26146 23.190638 212.96458Q23.190638 212.40208 23.393763 211.93333Q23.596888 211.44896 23.925013 211.21458Q24.253138 210.98021 24.690638 210.88646Q24.987513 210.83958 25.721888 210.83958L29.550013 210.83958L29.550013 211.88646L25.768763 211.88646Q25.112513 211.88646 24.800013 212.01146Q24.487513 212.13646 24.300013 212.44896Q24.096888 212.76146 24.096888 213.18333Q24.096888 213.85521 24.534388 214.35521Q24.956263 214.83958 26.143763 214.83958L29.550013 214.83958L29.550013 215.88646ZM29.550013 203.57396L21.971888 203.57396L21.971888 206.40208L20.956263 206.40208L20.956263 199.58958L21.971888 199.58958L21.971888 202.43333L29.550013 202.43333L29.550013 203.57396ZM29.550013 198.88646L20.956263 198.88646L20.956263 197.83958L24.034388 197.83958Q23.190638 197.10521 23.190638 195.98021Q23.190638 195.27708 23.471888 194.77708Q23.737513 194.26146 24.221888 194.04271Q24.690638 193.82396 25.612513 193.82396L29.550013 193.82396L29.550013 194.87083L25.612513 194.87083Q24.815638 194.87083 24.456263 195.21458Q24.096888 195.55833 24.096888 196.18333Q24.096888 196.65208 24.346888 197.07396Q24.581263 197.48021 25.003138 197.66771Q25.409388 197.83958 26.143763 197.83958L29.550013 197.83958L29.550013 198.88646ZM29.550013 191.90208L23.331263 191.90208L23.331263 190.94896L24.268763 190.94896Q23.612513 190.58958 23.409388 190.29271Q23.190638 189.98021 23.190638 189.60521Q23.190638 189.07396 23.518763 188.52708L24.503138 188.88646Q24.268763 189.27708 24.268763 189.65208Q24.268763 190.01146 24.487513 190.29271Q24.690638 190.55833 25.065638 190.66771Q25.628138 190.85521 26.284388 190.85521L29.550013 190.85521L29.550013 191.90208ZM26.440638 188.27708Q24.706263 188.27708 23.878138 187.32396Q23.190638 186.52708 23.190638 185.37083Q23.190638 184.08958 24.034388 183.27708Q24.862513 182.44896 26.346888 182.44896Q27.550013 182.44896 28.237513 182.80833Q28.925013 183.16771 29.315638 183.87083Q29.690638 184.55833 29.690638 185.37083Q29.690638 186.66771 28.862513 187.48021Q28.018763 188.27708 26.440638 188.27708ZM26.440638 187.19896Q27.628138 187.19896 28.221888 186.68333Q28.815638 186.15208 28.815638 185.37083Q28.815638 184.57396 28.221888 184.05833Q27.628138 183.54271 26.409388 183.54271Q25.253138 183.54271 24.659388 184.07396Q24.065638 184.58958 24.065638 185.37083Q24.065638 186.15208 24.659388 186.68333Q25.237513 187.19896 26.440638 187.19896ZM29.550013 176.80833L28.628138 176.80833Q29.690638 177.54271 29.690638 178.79271Q29.690638 179.33958 29.487513 179.82396Q29.268763 180.29271 28.956263 180.52708Q28.628138 180.76146 28.159388 180.85521Q27.862513 180.91771 27.175013 180.91771L23.331263 180.91771L23.331263 179.85521L26.784388 179.85521Q27.596888 179.85521 27.893763 179.79271Q28.300013 179.69896 28.550013 179.38646Q28.784388 179.05833 28.784388 178.57396Q28.784388 178.10521 28.550013 177.69896Q28.300013 177.27708 27.878138 177.10521Q27.456263 176.91771 26.659388 176.91771L23.331263 176.91771L23.331263 175.87083L29.550013 175.87083L29.550013 176.80833ZM30.065638 174.08958L30.221888 173.05833Q30.690638 172.99583 30.909388 172.69896Q31.206263 172.30833 31.206263 171.63646Q31.206263 170.90208 30.909388 170.51146Q30.612513 170.10521 30.096888 169.96458Q29.768763 169.87083 28.737513 169.88646Q29.550013 170.57396 29.550013 171.60521Q29.550013 172.88646 28.628138 173.58958Q27.690638 174.29271 26.409388 174.29271Q25.518763 174.29271 24.768763 173.98021Q24.003138 173.65208 23.596888 173.04271Q23.190638 172.43333 23.190638 171.60521Q23.190638 170.49583 24.081263 169.77708L23.331263 169.77708L23.331263 168.80833L28.706263 168.80833Q30.159388 168.80833 30.768763 169.10521Q31.378138 169.40208 31.721888 170.04271Q32.08126 170.68333 32.08126 171.62083Q32.08126 172.73021 31.581263 173.41771Q31.081263 174.10521 30.065638 174.08958ZM26.331263 173.21458Q27.550013 173.21458 28.112513 172.73021Q28.675013 172.24583 28.675013 171.51146Q28.675013 170.77708 28.112513 170.29271Q27.550013 169.79271 26.362513 169.79271Q25.221888 169.79271 24.643763 170.30833Q24.065638 170.80833 24.065638 171.52708Q24.065638 172.23021 24.643763 172.73021Q25.206263 173.21458 26.331263 173.21458ZM29.550013 166.88646L20.956263 166.88646L20.956263 165.83958L24.034388 165.83958Q23.190638 165.10521 23.190638 163.98021Q23.190638 163.27708 23.471888 162.77708Q23.737513 162.26146 24.221888 162.04271Q24.690638 161.82396 25.612513 161.82396L29.550013 161.82396L29.550013 162.87083L25.612513 162.87083Q24.815638 162.87083 24.456263 163.21458Q24.096888 163.55833 24.096888 164.18333Q24.096888 164.65208 24.346888 165.07396Q24.581263 165.48021 25.003138 165.66771Q25.409388 165.83958 26.143763 165.83958L29.550013 165.83958L29.550013 166.88646ZM31.940638 159.88646L23.331263 159.88646L23.331263 158.93333L24.128138 158.93333Q23.659388 158.58958 23.425013 158.16771Q23.190638 157.73021 23.190638 157.12083Q23.190638 156.32396 23.596888 155.71458Q24.003138 155.10521 24.753138 154.80833Q25.503138 154.49583 26.393763 154.49583Q27.346888 154.49583 28.112513 154.83958Q28.878138 155.16771 29.284388 155.82396Q29.690638 156.48021 29.690638 157.19896Q29.690638 157.73021 29.471888 158.15208Q29.237513 158.57396 28.909388 158.83958L31.940638 158.83958L31.940638 159.88646ZM26.471888 158.93333Q27.675013 158.93333 28.253138 158.44896Q28.815638 157.96458 28.815638 157.27708Q28.815638 156.57396 28.221888 156.07396Q27.628138 155.57396 26.378138 155.57396Q25.190638 155.57396 24.612513 156.05833Q24.018763 156.54271 24.018763 157.23021Q24.018763 157.90208 24.643763 158.41771Q25.268763 158.93333 26.471888 158.93333ZM29.550013 148.80833L28.628138 148.80833Q29.690638 149.54271 29.690638 150.79271Q29.690638 151.33958 29.487513 151.82396Q29.268763 152.29271 28.956263 152.52708Q28.628138 152.76146 28.159388 152.85521Q27.862513 152.91771 27.175013 152.91771L23.331263 152.91771L23.331263 151.85521L26.784388 151.85521Q27.596888 151.85521 27.893763 151.79271Q28.300013 151.69896 28.550013 151.38646Q28.784388 151.05833 28.784388 150.57396Q28.784388 150.10521 28.550013 149.69896Q28.300013 149.27708 27.878138 149.10521Q27.456263 148.91771 26.659388 148.91771L23.331263 148.91771L23.331263 147.87083L29.550013 147.87083L29.550013 148.80833ZM28.612513 143.58958L29.534388 143.43333Q29.628138 143.88646 29.628138 144.23021Q29.628138 144.80833 29.456263 145.12083Q29.268763 145.43333 28.971888 145.57396Q28.675013 145.69896 27.721888 145.69896L24.143763 145.69896L24.143763 146.46458L23.331263 146.46458L23.331263 145.69896L21.784388 145.69896L21.159388 144.65208L23.331263 144.65208L23.331263 143.58958L24.143763 143.58958L24.143763 144.65208L27.784388 144.65208Q28.237513 144.65208 28.362513 144.60521Q28.487513 144.54271 28.565638 144.41771Q28.643763 144.29271 28.643763 144.05833Q28.643763 143.87083 28.612513 143.58958ZM32.08126 137.87083Q30.971888 138.74583 29.503138 139.35521Q28.018763 139.94896 26.440638 139.94896Q25.050013 139.94896 23.768763 139.51146Q22.284388 138.98021 20.815638 137.87083L20.815638 137.12083Q22.034388 137.82396 22.550013 138.05833Q23.362513 138.41771 24.237513 138.62083Q25.331263 138.87083 26.440638 138.87083Q29.268763 138.87083 32.08126 137.12083L32.08126 137.87083ZM29.550013 135.88646L20.956263 135.88646L20.956263 134.82396L25.862513 134.82396L23.331263 132.33958L23.331263 130.96458L25.628138 133.35521L29.550013 130.73021L29.550013 132.02708L26.362513 134.08958L27.081263 134.82396L29.550013 134.82396L29.550013 135.88646ZM29.550013 128.91771L29.550013 129.90208L20.956263 129.90208L20.956263 128.83958L24.018763 128.83958Q23.190638 128.16771 23.190638 127.13646Q23.190638 126.558334 23.425013 126.058334Q23.643763 125.54271 24.065638 125.214584Q24.487513 124.870834 25.081263 124.683334Q25.675013 124.495834 26.346888 124.495834Q27.940638 124.495834 28.815638 125.29271Q29.690638 126.089584 29.690638 127.183334Q29.690638 128.29271 28.768763 128.91771L29.550013 128.91771ZM26.393763 128.93333Q27.503138 128.93333 28.003138 128.62083Q28.815638 128.12083 28.815638 127.277084Q28.815638 126.589584 28.221888 126.089584Q27.628138 125.57396 26.425013 125.57396Q25.206263 125.57396 24.628138 126.058334Q24.050013 126.54271 24.050013 127.23021Q24.050013 127.91771 24.659388 128.43333Q25.253138 128.93333 26.393763 128.93333ZM31.940638 122.88646L23.331263 122.88646L23.331263 121.933334L24.128138 121.933334Q23.659388 121.589584 23.425013 121.16771Q23.190638 120.73021 23.190638 120.120834Q23.190638 119.32396 23.596888 118.714584Q24.003138 118.10521 24.753138 117.808334Q25.503138 117.495834 26.393763 117.495834Q27.346888 117.495834 28.112513 117.839584Q28.878138 118.16771 29.284388 118.82396Q29.690638 119.48021 29.690638 120.19896Q29.690638 120.73021 29.471888 121.152084Q29.237513 121.57396 28.909388 121.839584L31.940638 121.839584L31.940638 122.88646ZM26.471888 121.933334Q27.675013 121.933334 28.253138 121.44896Q28.815638 120.964584 28.815638 120.277084Q28.815638 119.57396 28.221888 119.07396Q27.628138 118.57396 26.378138 118.57396Q25.190638 118.57396 24.612513 119.058334Q24.018763 119.54271 24.018763 120.23021Q24.018763 120.902084 24.643763 121.41771Q25.268763 121.933334 26.471888 121.933334ZM27.690638 116.308334L27.534388 115.277084Q28.159388 115.183334 28.487513 114.79271Q28.815638 114.38646 28.815638 113.652084Q28.815638 112.933334 28.534388 112.589584Q28.237513 112.23021 27.831263 112.23021Q27.471888 112.23021 27.268763 112.54271Q27.128138 112.76146 26.909388 113.620834Q26.612513 114.777084 26.409388 115.23021Q26.190638 115.66771 25.815638 115.902084Q25.440638 116.13646 24.971888 116.13646Q24.565638 116.13646 24.206263 115.94896Q23.846888 115.76146 23.612513 115.433334Q23.440638 115.183334 23.315638 114.76146Q23.190638 114.339584 23.190638 113.839584Q23.190638 113.120834 23.409388 112.57396Q23.612513 112.01146 23.971888 111.745834Q24.331263 111.48021 24.925013 111.38646L25.065638 112.41771Q24.596888 112.48021 24.331263 112.82396Q24.050013 113.152084 24.050013 113.777084Q24.050013 114.495834 24.300013 114.808334Q24.534388 115.120834 24.862513 115.120834Q25.065638 115.120834 25.221888 114.995834Q25.393763 114.85521 25.503138 114.589584Q25.565638 114.433334 25.768763 113.652084Q26.081263 112.527084 26.268763 112.089584Q26.456263 111.652084 26.815638 111.402084Q27.175013 111.152084 27.721888 111.152084Q28.253138 111.152084 28.721888 111.464584Q29.175013 111.76146 29.440638 112.339584Q29.690638 112.91771 29.690638 113.652084Q29.690638 114.870834 29.190638 115.51146Q28.675013 116.13646 27.690638 116.308334ZM32.08126 108.19896L32.08126 108.94896Q29.268763 107.19896 26.440638 107.19896Q25.346888 107.19896 24.253138 107.44896Q23.378138 107.652084 22.565638 108.01146Q22.050013 108.245834 20.815638 108.94896L20.815638 108.19896Q22.284388 107.10521 23.768763 106.57396Q25.050013 106.120834 26.440638 106.120834Q28.018763 106.120834 29.503138 106.73021Q30.971888 107.339584 32.08126 108.19896Z" fill-rule="nonzero"/><path fill="#000000" d="M65.05 300.21564Q65.05 298.6844 65.3625 297.7625Q65.675 296.825 66.28438 296.325Q66.90938 295.825 67.84688 295.825Q68.53438 295.825 69.05 296.10626Q69.58125 296.3875 69.925 296.91876Q70.26875 297.4344 70.45625 298.1844Q70.64375 298.9344 70.64375 300.21564Q70.64375 301.73126 70.33125 302.65314Q70.03438 303.575 69.40938 304.09064Q68.8 304.59064 67.84688 304.59064Q66.6125 304.59064 65.89375 303.7Q65.05 302.6375 65.05 300.21564ZM66.12813 300.21564Q66.12813 302.325 66.62813 303.02814Q67.12813 303.73126 67.84688 303.73126Q68.58125 303.73126 69.06563 303.02814Q69.56563 302.325 69.56563 300.21564Q69.56563 298.09064 69.06563 297.40314Q68.58125 296.7 67.83125 296.7Q67.1125 296.7 66.675 297.3094Q66.12813 298.09064 66.12813 300.21564ZM72.6125 304.45L72.6125 303.2469L73.81563 303.2469L73.81563 304.45Q73.81563 305.10626 73.58125 305.5125Q73.34688 305.9344 72.84688 306.15314L72.55 305.7Q72.87813 305.5594 73.03438 305.2625Q73.19063 304.98126 73.22188 304.45L72.6125 304.45ZM75.05 300.21564Q75.05 298.6844 75.3625 297.7625Q75.675 296.825 76.28438 296.325Q76.90938 295.825 77.84688 295.825Q78.53438 295.825 79.05 296.10626Q79.58125 296.3875 79.925 296.91876Q80.26875 297.4344 80.45625 298.1844Q80.64375 298.9344 80.64375 300.21564Q80.64375 301.73126 80.33125 302.65314Q80.03438 303.575 79.40938 304.09064Q78.8 304.59064 77.84688 304.59064Q76.6125 304.59064 75.89375 303.7Q75.05 302.6375 75.05 300.21564ZM76.12813 300.21564Q76.12813 302.325 76.62813 303.02814Q77.12813 303.73126 77.84688 303.73126Q78.58125 303.73126 79.06563 303.02814Q79.56563 302.325 79.56563 300.21564Q79.56563 298.09064 79.06563 297.40314Q78.58125 296.7 77.83125 296.7Q77.1125 296.7 76.675 297.3094Q76.12813 298.09064 76.12813 300.21564Z" fill-rule="nonzero"/><path fill="#000000" d="M55.01875 244.81667L53.971874 244.81667L53.971874 238.09792Q53.58125 238.45729 52.95625 238.83229Q52.346874 239.19167 51.8625 239.36354L51.8625 238.34792Q52.7375 237.92604 53.39375 237.34792Q54.065624 236.75417 54.346874 236.19167L55.01875 236.19167L55.01875 244.81667ZM58.05 240.58229Q58.05 239.05104 58.3625 238.12917Q58.675 237.19167 59.284374 236.69167Q59.909374 236.19167 60.846874 236.19167Q61.534374 236.19167 62.05 236.47292Q62.58125 236.75417 62.925 237.28542Q63.26875 237.80104 63.45625 238.55104Q63.64375 239.30104 63.64375 240.58229Q63.64375 242.09792 63.33125 243.01979Q63.034374 243.94167 62.409374 244.45729Q61.8 244.95729 60.846874 244.95729Q59.6125 244.95729 58.89375 244.06667Q58.05 243.00417 58.05 240.58229ZM59.128124 240.58229Q59.128124 242.69167 59.628124 243.39479Q60.128124 244.09792 60.846874 244.09792Q61.58125 244.09792 62.065624 243.39479Q62.565624 242.69167 62.565624 240.58229Q62.565624 238.45729 62.065624 237.76979Q61.58125 237.06667 60.83125 237.06667Q60.1125 237.06667 59.675 237.67604Q59.128124 238.45729 59.128124 240.58229ZM65.05 240.58229Q65.05 239.05104 65.3625 238.12917Q65.675 237.19167 66.28438 236.69167Q66.90938 236.19167 67.84688 236.19167Q68.53438 236.19167 69.05 236.47292Q69.58125 236.75417 69.925 237.28542Q70.26875 237.80104 70.45625 238.55104Q70.64375 239.30104 70.64375 240.58229Q70.64375 242.09792 70.33125 243.01979Q70.03438 243.94167 69.40938 244.45729Q68.8 244.95729 67.84688 244.95729Q66.6125 244.95729 65.89375 244.06667Q65.05 243.00417 65.05 240.58229ZM66.12813 240.58229Q66.12813 242.69167 66.62813 243.39479Q67.12813 244.09792 67.84688 244.09792Q68.58125 244.09792 69.06563 243.39479Q69.56563 242.69167 69.56563 240.58229Q69.56563 238.45729 69.06563 237.76979Q68.58125 237.06667 67.83125 237.06667Q67.1125 237.06667 66.675 237.67604Q66.12813 238.45729 66.12813 240.58229ZM72.6125 244.81667L72.6125 243.61354L73.81563 243.61354L73.81563 244.81667Q73.81563 245.47292 73.58125 245.87917Q73.34688 246.30104 72.84688 246.51979L72.55 246.06667Q72.87813 245.92604 73.03438 245.62917Q73.19063 245.34792 73.22188 244.81667L72.6125 244.81667ZM75.05 240.58229Q75.05 239.05104 75.3625 238.12917Q75.675 237.19167 76.28438 236.69167Q76.90938 236.19167 77.84688 236.19167Q78.53438 236.19167 79.05 236.47292Q79.58125 236.75417 79.925 237.28542Q80.26875 237.80104 80.45625 238.55104Q80.64375 239.30104 80.64375 240.58229Q80.64375 242.09792 80.33125 243.01979Q80.03438 243.94167 79.40938 244.45729Q78.8 244.95729 77.84688 244.95729Q76.6125 244.95729 75.89375 244.06667Q75.05 243.00417 75.05 240.58229ZM76.12813 240.58229Q76.12813 242.69167 76.62813 243.39479Q77.12813 244.09792 77.84688 244.09792Q78.58125 244.09792 79.06563 243.39479Q79.56563 242.69167 79.56563 240.58229Q79.56563 238.45729 79.06563 237.76979Q78.58125 237.06667 77.83125 237.06667Q77.1125 237.06667 76.675 237.67604Q76.12813 238.45729 76.12813 240.58229Z" fill-rule="nonzero"/><path fill="#000000" d="M56.596874 184.16771L56.596874 185.18333L50.909374 185.18333Q50.909374 184.80833 51.034374 184.44896Q51.253124 183.87083 51.721874 183.30833Q52.20625 182.74583 53.1125 182.01146Q54.51875 180.85521 55.003124 180.18333Q55.503124 179.51146 55.503124 178.91771Q55.503124 178.29271 55.05 177.87083Q54.596874 177.43333 53.878124 177.43333Q53.1125 177.43333 52.659374 177.88646Q52.20625 178.33958 52.190624 179.15208L51.1125 179.04271Q51.221874 177.82396 51.940624 177.19896Q52.675 176.55833 53.909374 176.55833Q55.14375 176.55833 55.8625 177.24583Q56.58125 177.93333 56.58125 178.94896Q56.58125 179.46458 56.3625 179.96458Q56.159374 180.44896 55.659374 181.01146Q55.175 181.55833 54.05 182.51146Q53.096874 183.30833 52.815624 183.60521Q52.55 183.88646 52.378124 184.16771L56.596874 184.16771ZM58.05 180.94896Q58.05 179.41771 58.3625 178.49583Q58.675 177.55833 59.284374 177.05833Q59.909374 176.55833 60.846874 176.55833Q61.534374 176.55833 62.05 176.83958Q62.58125 177.12083 62.925 177.65208Q63.26875 178.16771 63.45625 178.91771Q63.64375 179.66771 63.64375 180.94896Q63.64375 182.46458 63.33125 183.38646Q63.034374 184.30833 62.409374 184.82396Q61.8 185.32396 60.846874 185.32396Q59.6125 185.32396 58.89375 184.43333Q58.05 183.37083 58.05 180.94896ZM59.128124 180.94896Q59.128124 183.05833 59.628124 183.76146Q60.128124 184.46458 60.846874 184.46458Q61.58125 184.46458 62.065624 183.76146Q62.565624 183.05833 62.565624 180.94896Q62.565624 178.82396 62.065624 178.13646Q61.58125 177.43333 60.83125 177.43333Q60.1125 177.43333 59.675 178.04271Q59.128124 178.82396 59.128124 180.94896ZM65.05 180.94896Q65.05 179.41771 65.3625 178.49583Q65.675 177.55833 66.28438 177.05833Q66.90938 176.55833 67.84688 176.55833Q68.53438 176.55833 69.05 176.83958Q69.58125 177.12083 69.925 177.65208Q70.26875 178.16771 70.45625 178.91771Q70.64375 179.66771 70.64375 180.94896Q70.64375 182.46458 70.33125 183.38646Q70.03438 184.30833 69.40938 184.82396Q68.8 185.32396 67.84688 185.32396Q66.6125 185.32396 65.89375 184.43333Q65.05 183.37083 65.05 180.94896ZM66.12813 180.94896Q66.12813 183.05833 66.62813 183.76146Q67.12813 184.46458 67.84688 184.46458Q68.58125 184.46458 69.06563 183.76146Q69.56563 183.05833 69.56563 180.94896Q69.56563 178.82396 69.06563 178.13646Q68.58125 177.43333 67.83125 177.43333Q67.1125 177.43333 66.675 178.04271Q66.12813 178.82396 66.12813 180.94896ZM72.6125 185.18333L72.6125 183.98021L73.81563 183.98021L73.81563 185.18333Q73.81563 185.83958 73.58125 186.24583Q73.34688 186.66771 72.84688 186.88646L72.55 186.43333Q72.87813 186.29271 73.03438 185.99583Q73.19063 185.71458 73.22188 185.18333L72.6125 185.18333ZM75.05 180.94896Q75.05 179.41771 75.3625 178.49583Q75.675 177.55833 76.28438 177.05833Q76.90938 176.55833 77.84688 176.55833Q78.53438 176.55833 79.05 176.83958Q79.58125 177.12083 79.925 177.65208Q80.26875 178.16771 80.45625 178.91771Q80.64375 179.66771 80.64375 180.94896Q80.64375 182.46458 80.33125 183.38646Q80.03438 184.30833 79.40938 184.82396Q78.8 185.32396 77.84688 185.32396Q76.6125 185.32396 75.89375 184.43333Q75.05 183.37083 75.05 180.94896ZM76.12813 180.94896Q76.12813 183.05833 76.62813 183.76146Q77.12813 184.46458 77.84688 184.46458Q78.58125 184.46458 79.06563 183.76146Q79.56563 183.05833 79.56563 180.94896Q79.56563 178.82396 79.06563 178.13646Q78.58125 177.43333 77.83125 177.43333Q77.1125 177.43333 76.675 178.04271Q76.12813 178.82396 76.12813 180.94896Z" fill-rule="nonzero"/><path fill="#000000" d="M51.05 123.28438L52.1125 123.14375Q52.284374 124.03438 52.721874 124.44063Q53.159374 124.83125 53.784374 124.83125Q54.534374 124.83125 55.05 124.31563Q55.565624 123.8 55.565624 123.03438Q55.565624 122.31563 55.08125 121.84688Q54.6125 121.3625 53.878124 121.3625Q53.58125 121.3625 53.128124 121.4875L53.253124 120.55Q53.3625 120.56563 53.425 120.56563Q54.096874 120.56563 54.628124 120.22188Q55.175 119.8625 55.175 119.12813Q55.175 118.55 54.784374 118.175Q54.39375 117.78438 53.76875 117.78438Q53.159374 117.78438 52.7375 118.175Q52.33125 118.56563 52.221874 119.33125L51.159374 119.14375Q51.346874 118.09688 52.034374 117.51875Q52.721874 116.925 53.7375 116.925Q54.440624 116.925 55.034374 117.2375Q55.628124 117.53438 55.940624 118.05Q56.253124 118.56563 56.253124 119.15938Q56.253124 119.70625 55.95625 120.175Q55.659374 120.62813 55.08125 120.89375Q55.83125 121.06563 56.253124 121.62813Q56.675 122.175 56.675 123.01875Q56.675 124.14375 55.846874 124.925Q55.034374 125.70625 53.784374 125.70625Q52.659374 125.70625 51.909374 125.03438Q51.159374 124.34688 51.05 123.28438ZM58.05 121.31563Q58.05 119.78438 58.3625 118.8625Q58.675 117.925 59.284374 117.425Q59.909374 116.925 60.846874 116.925Q61.534374 116.925 62.05 117.20625Q62.58125 117.4875 62.925 118.01875Q63.26875 118.53438 63.45625 119.28438Q63.64375 120.03438 63.64375 121.31563Q63.64375 122.83125 63.33125 123.75313Q63.034374 124.675 62.409374 125.19063Q61.8 125.69063 60.846874 125.69063Q59.6125 125.69063 58.89375 124.8Q58.05 123.7375 58.05 121.31563ZM59.128124 121.31563Q59.128124 123.425 59.628124 124.12813Q60.128124 124.83125 60.846874 124.83125Q61.58125 124.83125 62.065624 124.12813Q62.565624 123.425 62.565624 121.31563Q62.565624 119.19063 62.065624 118.50313Q61.58125 117.8 60.83125 117.8Q60.1125 117.8 59.675 118.40938Q59.128124 119.19063 59.128124 121.31563ZM65.05 121.31563Q65.05 119.78438 65.3625 118.8625Q65.675 117.925 66.28438 117.425Q66.90938 116.925 67.84688 116.925Q68.53438 116.925 69.05 117.20625Q69.58125 117.4875 69.925 118.01875Q70.26875 118.53438 70.45625 119.28438Q70.64375 120.03438 70.64375 121.31563Q70.64375 122.83125 70.33125 123.75313Q70.03438 124.675 69.40938 125.19063Q68.8 125.69063 67.84688 125.69063Q66.6125 125.69063 65.89375 124.8Q65.05 123.7375 65.05 121.31563ZM66.12813 121.31563Q66.12813 123.425 66.62813 124.12813Q67.12813 124.83125 67.84688 124.83125Q68.58125 124.83125 69.06563 124.12813Q69.56563 123.425 69.56563 121.31563Q69.56563 119.19063 69.06563 118.50313Q68.58125 117.8 67.83125 117.8Q67.1125 117.8 66.675 118.40938Q66.12813 119.19063 66.12813 121.31563ZM72.6125 125.55L72.6125 124.34688L73.81563 124.34688L73.81563 125.55Q73.81563 126.20625 73.58125 126.6125Q73.34688 127.03438 72.84688 127.25313L72.55 126.8Q72.87813 126.65938 73.03438 126.3625Q73.19063 126.08125 73.22188 125.55L72.6125 125.55ZM75.05 121.31563Q75.05 119.78438 75.3625 118.8625Q75.675 117.925 76.28438 117.425Q76.90938 116.925 77.84688 116.925Q78.53438 116.925 79.05 117.20625Q79.58125 117.4875 79.925 118.01875Q80.26875 118.53438 80.45625 119.28438Q80.64375 120.03438 80.64375 121.31563Q80.64375 122.83125 80.33125 123.75313Q80.03438 124.675 79.40938 125.19063Q78.8 125.69063 77.84688 125.69063Q76.6125 125.69063 75.89375 124.8Q75.05 123.7375 75.05 121.31563ZM76.12813 121.31563Q76.12813 123.425 76.62813 124.12813Q77.12813 124.83125 77.84688 124.83125Q78.58125 124.83125 79.06563 124.12813Q79.56563 123.425 79.56563 121.31563Q79.56563 119.19063 79.06563 118.50313Q78.58125 117.8 77.83125 117.8Q77.1125 117.8 76.675 118.40938Q76.12813 119.19063 76.12813 121.31563Z" fill-rule="nonzero"/><path fill="#000000" d="M54.425 65.916664L54.425 63.854164L50.70625 63.854164L50.70625 62.885414L54.628124 57.322914L55.4875 57.322914L55.4875 62.885414L56.64375 62.885414L56.64375 63.854164L55.4875 63.854164L55.4875 65.916664L54.425 65.916664ZM54.425 62.885414L54.425 59.02604L51.7375 62.885414L54.425 62.885414ZM58.05 61.68229Q58.05 60.15104 58.3625 59.229164Q58.675 58.291664 59.284374 57.791664Q59.909374 57.291664 60.846874 57.291664Q61.534374 57.291664 62.05 57.572914Q62.58125 57.854164 62.925 58.385414Q63.26875 58.90104 63.45625 59.65104Q63.64375 60.40104 63.64375 61.68229Q63.64375 63.197914 63.33125 64.11979Q63.034374 65.041664 62.409374 65.55729Q61.8 66.05729 60.846874 66.05729Q59.6125 66.05729 58.89375 65.166664Q58.05 64.104164 58.05 61.68229ZM59.128124 61.68229Q59.128124 63.791664 59.628124 64.49479Q60.128124 65.197914 60.846874 65.197914Q61.58125 65.197914 62.065624 64.49479Q62.565624 63.791664 62.565624 61.68229Q62.565624 59.55729 62.065624 58.86979Q61.58125 58.166664 60.83125 58.166664Q60.1125 58.166664 59.675 58.77604Q59.128124 59.55729 59.128124 61.68229ZM65.05 61.68229Q65.05 60.15104 65.3625 59.229164Q65.675 58.291664 66.28438 57.791664Q66.90938 57.291664 67.84688 57.291664Q68.53438 57.291664 69.05 57.572914Q69.58125 57.854164 69.925 58.385414Q70.26875 58.90104 70.45625 59.65104Q70.64375 60.40104 70.64375 61.68229Q70.64375 63.197914 70.33125 64.11979Q70.03438 65.041664 69.40938 65.55729Q68.8 66.05729 67.84688 66.05729Q66.6125 66.05729 65.89375 65.166664Q65.05 64.104164 65.05 61.68229ZM66.12813 61.68229Q66.12813 63.791664 66.62813 64.49479Q67.12813 65.197914 67.84688 65.197914Q68.58125 65.197914 69.06563 64.49479Q69.56563 63.791664 69.56563 61.68229Q69.56563 59.55729 69.06563 58.86979Q68.58125 58.166664 67.83125 58.166664Q67.1125 58.166664 66.675 58.77604Q66.12813 59.55729 66.12813 61.68229ZM72.6125 65.916664L72.6125 64.71354L73.81563 64.71354L73.81563 65.916664Q73.81563 66.572914 73.58125 66.979164Q73.34688 67.40104 72.84688 67.61979L72.55 67.166664Q72.87813 67.02604 73.03438 66.729164Q73.19063 66.447914 73.22188 65.916664L72.6125 65.916664ZM75.05 61.68229Q75.05 60.15104 75.3625 59.229164Q75.675 58.291664 76.28438 57.791664Q76.90938 57.291664 77.84688 57.291664Q78.53438 57.291664 79.05 57.572914Q79.58125 57.854164 79.925 58.385414Q80.26875 58.90104 80.45625 59.65104Q80.64375 60.40104 80.64375 61.68229Q80.64375 63.197914 80.33125 64.11979Q80.03438 65.041664 79.40938 65.55729Q78.8 66.05729 77.84688 66.05729Q76.6125 66.05729 75.89375 65.166664Q75.05 64.104164 75.05 61.68229ZM76.12813 61.68229Q76.12813 63.791664 76.62813 64.49479Q77.12813 65.197914 77.84688 65.197914Q78.58125 65.197914 79.06563 64.49479Q79.56563 63.791664 79.56563 61.68229Q79.56563 59.55729 79.06563 58.86979Q78.58125 58.166664 77.83125 58.166664Q77.1125 58.166664 76.675 58.77604Q76.12813 59.55729 76.12813 61.68229Z" fill-rule="nonzero"/><path fill="#000000" d="M84.55 315.1844L85.6125 315.04376Q85.78438 315.9344 86.22188 316.34064Q86.65938 316.73126 87.28438 316.73126Q88.03438 316.73126 88.55 316.21564Q89.06563 315.7 89.06563 314.9344Q89.06563 314.21564 88.58125 313.7469Q88.1125 313.2625 87.37813 313.2625Q87.08125 313.2625 86.62813 313.3875L86.75313 312.45Q86.8625 312.46564 86.925 312.46564Q87.59688 312.46564 88.12813 312.1219Q88.675 311.7625 88.675 311.02814Q88.675 310.45 88.28438 310.075Q87.89375 309.6844 87.26875 309.6844Q86.65938 309.6844 86.2375 310.075Q85.83125 310.46564 85.72188 311.23126L84.65938 311.04376Q84.84688 309.9969 85.53438 309.41876Q86.22188 308.825 87.2375 308.825Q87.94063 308.825 88.53438 309.1375Q89.12813 309.4344 89.44063 309.95Q89.75313 310.46564 89.75313 311.0594Q89.75313 311.60626 89.45625 312.075Q89.15938 312.52814 88.58125 312.79376Q89.33125 312.96564 89.75313 313.52814Q90.175 314.075 90.175 314.91876Q90.175 316.04376 89.34688 316.825Q88.53438 317.60626 87.28438 317.60626Q86.15938 317.60626 85.40938 316.9344Q84.65938 316.2469 84.55 315.1844Z" fill-rule="nonzero"/><path fill="#000000" d="M263.89166 317.45L263.89166 315.3875L260.1729 315.3875L260.1729 314.41876L264.0948 308.85626L264.95416 308.85626L264.95416 314.41876L266.1104 314.41876L266.1104 315.3875L264.95416 315.3875L264.95416 317.45L263.89166 317.45ZM263.89166 314.41876L263.89166 310.5594L261.20416 314.41876L263.89166 314.41876Z" fill-rule="nonzero"/><path fill="#000000" d="M436.48334 315.2L437.5927 315.10626Q437.7177 315.91876 438.1552 316.325Q438.60834 316.73126 439.24896 316.73126Q439.99896 316.73126 440.5302 316.15314Q441.06146 315.575 441.06146 314.6375Q441.06146 313.73126 440.54584 313.21564Q440.04584 312.6844 439.2177 312.6844Q438.7177 312.6844 438.29584 312.91876Q437.8896 313.15314 437.6552 313.5125L436.67084 313.3875L437.49896 308.98126L441.7802 308.98126L441.7802 309.98126L438.3427 309.98126L437.8896 312.29376Q438.6552 311.7469 439.49896 311.7469Q440.62396 311.7469 441.3896 312.52814Q442.17084 313.3094 442.17084 314.54376Q442.17084 315.7 441.49896 316.5594Q440.67084 317.59064 439.24896 317.59064Q438.0771 317.59064 437.3271 316.9344Q436.5927 316.27814 436.48334 315.2Z" fill-rule="nonzero"/><path fill="#000000" d="M617.91876 310.96564L616.8719 311.04376Q616.73126 310.41876 616.48126 310.1375Q616.04376 309.6844 615.41876 309.6844Q614.91876 309.6844 614.52814 309.96564Q614.04376 310.34064 613.7469 311.04376Q613.46564 311.73126 613.45 313.0125Q613.825 312.4344 614.3719 312.15314Q614.9344 311.8719 615.54376 311.8719Q616.59064 311.8719 617.325 312.65314Q618.075 313.4344 618.075 314.65314Q618.075 315.46564 617.71564 316.16876Q617.3719 316.85626 616.7625 317.23126Q616.15314 317.59064 615.3875 317.59064Q614.0594 317.59064 613.23126 316.6219Q612.40314 315.65314 612.40314 313.4344Q612.40314 310.9344 613.325 309.8094Q614.1219 308.825 615.48126 308.825Q616.4969 308.825 617.1375 309.40314Q617.79376 309.96564 617.91876 310.96564ZM613.6219 314.66876Q613.6219 315.21564 613.84064 315.71564Q614.075 316.2 614.48126 316.46564Q614.90314 316.73126 615.3719 316.73126Q616.02814 316.73126 616.5125 316.2Q616.9969 315.65314 616.9969 314.73126Q616.9969 313.84064 616.5125 313.325Q616.04376 312.8094 615.325 312.8094Q614.60626 312.8094 614.10626 313.325Q613.6219 313.84064 613.6219 314.66876Z" fill-rule="nonzero"/><path fill="#757575" d="M18.51875 37.55L24.01875 23.2375L26.065624 23.2375L31.925 37.55L29.76875 37.55L28.096874 33.20625L22.1125 33.20625L20.534374 37.55L18.51875 37.55ZM22.659374 31.675L27.503124 31.675L26.01875 27.70625Q25.33125 25.89375 25.003124 24.7375Q24.721874 26.1125 24.221874 27.471874L22.659374 31.675ZM32.8625 41.51875L32.8625 27.175L34.471874 27.175L34.471874 28.51875Q35.034374 27.7375 35.7375 27.346874Q36.45625 26.940624 37.471874 26.940624Q38.8 26.940624 39.815624 27.628124Q40.83125 28.315624 41.346874 29.565624Q41.878124 30.8 41.878124 32.284374Q41.878124 33.878124 41.3 35.159374Q40.7375 36.425 39.64375 37.1125Q38.55 37.784374 37.346874 37.784374Q36.471874 37.784374 35.76875 37.409374Q35.08125 37.034374 34.628124 36.471874L34.628124 41.51875L32.8625 41.51875ZM34.45625 32.425Q34.45625 34.425 35.26875 35.378124Q36.08125 36.33125 37.2375 36.33125Q38.409374 36.33125 39.2375 35.346874Q40.08125 34.3625 40.08125 32.26875Q40.08125 30.3 39.253124 29.315624Q38.440624 28.315624 37.315624 28.315624Q36.190624 28.315624 35.315624 29.378124Q34.45625 30.425 34.45625 32.425ZM43.8625 41.51875L43.8625 27.175L45.471874 27.175L45.471874 28.51875Q46.034374 27.7375 46.7375 27.346874Q47.45625 26.940624 48.471874 26.940624Q49.8 26.940624 50.815624 27.628124Q51.83125 28.315624 52.346874 29.565624Q52.878124 30.8 52.878124 32.284374Q52.878124 33.878124 52.3 35.159374Q51.7375 36.425 50.64375 37.1125Q49.55 37.784374 48.346874 37.784374Q47.471874 37.784374 46.76875 37.409374Q46.08125 37.034374 45.628124 36.471874L45.628124 41.51875L43.8625 41.51875ZM45.45625 32.425Q45.45625 34.425 46.26875 35.378124Q47.08125 36.33125 48.2375 36.33125Q49.409374 36.33125 50.2375 35.346874Q51.08125 34.3625 51.08125 32.26875Q51.08125 30.3 50.253124 29.315624Q49.440624 28.315624 48.315624 28.315624Q47.190624 28.315624 46.315624 29.378124Q45.45625 30.425 45.45625 32.425ZM54.83125 37.55L54.83125 23.2375L56.58125 23.2375L56.58125 37.55L54.83125 37.55ZM58.878124 25.253124L58.878124 23.2375L60.64375 23.2375L60.64375 25.253124L58.878124 25.253124ZM58.878124 37.55L58.878124 27.175L60.64375 27.175L60.64375 37.55L58.878124 37.55ZM69.64375 33.753124L71.3625 33.971874Q71.08125 35.76875 69.90938 36.784374Q68.75313 37.784374 67.05 37.784374Q64.925 37.784374 63.628124 36.39375Q62.33125 35.003124 62.33125 32.409374Q62.33125 30.721874 62.878124 29.471874Q63.440624 28.20625 64.58125 27.58125Q65.72188 26.940624 67.06563 26.940624Q68.75313 26.940624 69.81563 27.8Q70.89375 28.659374 71.20625 30.221874L69.4875 30.4875Q69.25313 29.440624 68.62813 28.925Q68.00313 28.39375 67.12813 28.39375Q65.8 28.39375 64.97188 29.346874Q64.14375 30.3 64.14375 32.346874Q64.14375 34.440624 64.94063 35.39375Q65.7375 36.33125 67.03438 36.33125Q68.06563 36.33125 68.75313 35.70625Q69.45625 35.065624 69.64375 33.753124ZM79.64375 36.26875Q78.65938 37.096874 77.75313 37.440624Q76.84688 37.784374 75.81563 37.784374Q74.1125 37.784374 73.19063 36.95625Q72.26875 36.1125 72.26875 34.815624Q72.26875 34.05 72.6125 33.425Q72.97188 32.8 73.53438 32.425Q74.09688 32.034374 74.8 31.83125Q75.31563 31.70625 76.3625 31.565624Q78.4875 31.315624 79.4875 30.971874Q79.50313 30.6125 79.50313 30.503124Q79.50313 29.440624 79.00313 28.9875Q78.33125 28.39375 77.00313 28.39375Q75.75313 28.39375 75.15938 28.83125Q74.58125 29.26875 74.3 30.378124L72.58125 30.14375Q72.81563 29.034374 73.34688 28.3625Q73.87813 27.675 74.89375 27.315624Q75.90938 26.940624 77.25313 26.940624Q78.58125 26.940624 79.40938 27.253124Q80.2375 27.565624 80.62813 28.05Q81.01875 28.51875 81.175 29.2375Q81.26875 29.690624 81.26875 30.8625L81.26875 33.20625Q81.26875 35.659374 81.37813 36.315624Q81.4875 36.95625 81.83125 37.55L79.9875 37.55Q79.72188 37.003124 79.64375 36.26875ZM79.4875 32.346874Q78.53438 32.7375 76.6125 33.003124Q75.53438 33.159374 75.08125 33.3625Q74.64375 33.55 74.39375 33.925Q74.14375 34.3 74.14375 34.76875Q74.14375 35.471874 74.675 35.940624Q75.20625 36.409374 76.2375 36.409374Q77.25313 36.409374 78.03438 35.971874Q78.83125 35.51875 79.20625 34.753124Q79.4875 34.14375 79.4875 32.9875L79.4875 32.346874ZM87.70625 35.971874L87.95625 37.534374Q87.22188 37.690624 86.62813 37.690624Q85.675 37.690624 85.14375 37.39375Q84.62813 37.08125 84.40938 36.596874Q84.19063 36.096874 84.19063 34.51875L84.19063 28.55L82.90938 28.55L82.90938 27.175L84.19063 27.175L84.19063 24.6125L85.94063 23.55L85.94063 27.175L87.70625 27.175L87.70625 28.55L85.94063 28.55L85.94063 34.6125Q85.94063 35.3625 86.03438 35.58125Q86.12813 35.784374 86.33125 35.925Q86.55 36.05 86.94063 36.05Q87.22188 36.05 87.70625 35.971874ZM89.87813 25.253124L89.87813 23.2375L91.64375 23.2375L91.64375 25.253124L89.87813 25.253124ZM89.87813 37.55L89.87813 27.175L91.64375 27.175L91.64375 37.55L89.87813 37.55ZM93.22188 32.3625Q93.22188 29.4875 94.81563 28.096874Q96.15938 26.940624 98.08125 26.940624Q100.22188 26.940624 101.56563 28.346874Q102.925 29.753124 102.925 32.221874Q102.925 34.221874 102.33125 35.378124Q101.7375 36.51875 100.58125 37.159374Q99.44063 37.784374 98.08125 37.784374Q95.89375 37.784374 94.55 36.39375Q93.22188 34.9875 93.22188 32.3625ZM95.01875 32.3625Q95.01875 34.3625 95.87813 35.346874Q96.75313 36.33125 98.08125 36.33125Q99.39375 36.33125 100.25313 35.346874Q101.12813 34.346874 101.12813 32.3Q101.12813 30.378124 100.25313 29.39375Q99.37813 28.39375 98.08125 28.39375Q96.75313 28.39375 95.87813 29.39375Q95.01875 30.378124 95.01875 32.3625ZM104.8625 37.55L104.8625 27.175L106.45625 27.175L106.45625 28.659374Q107.59688 26.940624 109.75313 26.940624Q110.69063 26.940624 111.47188 27.284374Q112.26875 27.6125 112.65938 28.159374Q113.05 28.70625 113.20625 29.45625Q113.3 29.95625 113.3 31.175L113.3 37.55L111.53438 37.55L111.53438 31.2375Q111.53438 30.159374 111.33125 29.628124Q111.12813 29.096874 110.59688 28.784374Q110.08125 28.471874 109.37813 28.471874Q108.25313 28.471874 107.44063 29.190624Q106.62813 29.89375 106.62813 31.878124L106.62813 37.55L104.8625 37.55ZM124.70625 35.971874L124.95625 37.534374Q124.22188 37.690624 123.62813 37.690624Q122.675 37.690624 122.14375 37.39375Q121.62813 37.08125 121.40938 36.596874Q121.19063 36.096874 121.19063 34.51875L121.19063 28.55L119.90938 28.55L119.90938 27.175L121.19063 27.175L121.19063 24.6125L122.94063 23.55L122.94063 27.175L124.70625 27.175L124.70625 28.55L122.94063 28.55L122.94063 34.6125Q122.94063 35.3625 123.03438 35.58125Q123.12813 35.784374 123.33125 35.925Q123.55 36.05 123.94063 36.05Q124.22188 36.05 124.70625 35.971874ZM126.8625 37.55L126.8625 23.2375L128.62813 23.2375L128.62813 28.3625Q129.8625 26.940624 131.7375 26.940624Q132.87813 26.940624 133.72188 27.39375Q134.58125 27.846874 134.94063 28.659374Q135.31563 29.45625 135.31563 30.971874L135.31563 37.55L133.56563 37.55L133.56563 30.971874Q133.56563 29.659374 132.9875 29.065624Q132.40938 28.45625 131.37813 28.45625Q130.59688 28.45625 129.89375 28.8625Q129.20625 29.26875 128.90938 29.971874Q128.62813 30.659374 128.62813 31.878124L128.62813 37.55L126.8625 37.55ZM136.84688 37.55L136.84688 27.175L138.425 27.175L138.425 28.753124Q139.03438 27.64375 139.55 27.3Q140.06563 26.940624 140.675 26.940624Q141.56563 26.940624 142.4875 27.503124L141.87813 29.14375Q141.2375 28.753124 140.59688 28.753124Q140.01875 28.753124 139.55 29.1125Q139.09688 29.45625 138.89375 30.065624Q138.6125 31.003124 138.6125 32.1125L138.6125 37.55L136.84688 37.55ZM143.22188 32.3625Q143.22188 29.4875 144.81563 28.096874Q146.15938 26.940624 148.08125 26.940624Q150.22188 26.940624 151.56563 28.346874Q152.925 29.753124 152.925 32.221874Q152.925 34.221874 152.33125 35.378124Q151.7375 36.51875 150.58125 37.159374Q149.44063 37.784374 148.08125 37.784374Q145.89375 37.784374 144.55 36.39375Q143.22188 34.9875 143.22188 32.3625ZM145.01875 32.3625Q145.01875 34.3625 145.87813 35.346874Q146.75313 36.33125 148.08125 36.33125Q149.39375 36.33125 150.25313 35.346874Q151.12813 34.346874 151.12813 32.3Q151.12813 30.378124 150.25313 29.39375Q149.37813 28.39375 148.08125 28.39375Q146.75313 28.39375 145.87813 29.39375Q145.01875 30.378124 145.01875 32.3625ZM161.65938 37.55L161.65938 36.01875Q160.45625 37.784374 158.37813 37.784374Q157.45625 37.784374 156.65938 37.440624Q155.8625 37.08125 155.47188 36.55Q155.09688 36.01875 154.94063 35.2375Q154.83125 34.721874 154.83125 33.596874L154.83125 27.175L156.58125 27.175L156.58125 32.925Q156.58125 34.3 156.69063 34.784374Q156.8625 35.471874 157.39375 35.878124Q157.94063 36.26875 158.72188 36.26875Q159.51875 36.26875 160.20625 35.8625Q160.90938 35.45625 161.19063 34.76875Q161.4875 34.065624 161.4875 32.7375L161.4875 27.175L163.2375 27.175L163.2375 37.55L161.65938 37.55ZM164.55 38.409374L166.25313 38.659374Q166.3625 39.45625 166.84688 39.815624Q167.50313 40.3 168.64375 40.3Q169.8625 40.3 170.51875 39.815624Q171.19063 39.33125 171.425 38.45625Q171.56563 37.909374 171.55 36.190624Q170.39375 37.55 168.675 37.55Q166.53438 37.55 165.3625 36.003124Q164.19063 34.45625 164.19063 32.3Q164.19063 30.815624 164.72188 29.565624Q165.26875 28.315624 166.28438 27.628124Q167.31563 26.940624 168.69063 26.940624Q170.51875 26.940624 171.72188 28.425L171.72188 27.175L173.33125 27.175L173.33125 36.14375Q173.33125 38.565624 172.83125 39.565624Q172.34688 40.58125 171.26875 41.159374Q170.20625 41.753124 168.64375 41.753124Q166.8 41.753124 165.64375 40.925Q164.50313 40.096874 164.55 38.409374ZM166.00313 32.175Q166.00313 34.221874 166.81563 35.159374Q167.62813 36.096874 168.84688 36.096874Q170.05 36.096874 170.8625 35.159374Q171.69063 34.221874 171.69063 32.2375Q171.69063 30.33125 170.84688 29.3625Q170.00313 28.39375 168.81563 28.39375Q167.64375 28.39375 166.81563 29.346874Q166.00313 30.3 166.00313 32.175ZM175.8625 37.55L175.8625 23.2375L177.62813 23.2375L177.62813 28.3625Q178.8625 26.940624 180.7375 26.940624Q181.87813 26.940624 182.72188 27.39375Q183.58125 27.846874 183.94063 28.659374Q184.31563 29.45625 184.31563 30.971874L184.31563 37.55L182.56563 37.55L182.56563 30.971874Q182.56563 29.659374 181.9875 29.065624Q181.40938 28.45625 180.37813 28.45625Q179.59688 28.45625 178.89375 28.8625Q178.20625 29.26875 177.90938 29.971874Q177.62813 30.659374 177.62813 31.878124L177.62813 37.55L175.8625 37.55ZM185.8625 41.51875L185.8625 27.175L187.47188 27.175L187.47188 28.51875Q188.03438 27.7375 188.7375 27.346874Q189.45625 26.940624 190.47188 26.940624Q191.8 26.940624 192.81563 27.628124Q193.83125 28.315624 194.34688 29.565624Q194.87813 30.8 194.87813 32.284374Q194.87813 33.878124 194.3 35.159374Q193.7375 36.425 192.64375 37.1125Q191.55 37.784374 190.34688 37.784374Q189.47188 37.784374 188.76875 37.409374Q188.08125 37.034374 187.62813 36.471874L187.62813 41.51875L185.8625 41.51875ZM187.45625 32.425Q187.45625 34.425 188.26875 35.378124Q189.08125 36.33125 190.2375 36.33125Q191.40938 36.33125 192.2375 35.346874Q193.08125 34.3625 193.08125 32.26875Q193.08125 30.3 192.25313 29.315624Q191.44063 28.315624 190.31563 28.315624Q189.19063 28.315624 188.31563 29.378124Q187.45625 30.425 187.45625 32.425ZM203.65938 37.55L203.65938 36.01875Q202.45625 37.784374 200.37813 37.784374Q199.45625 37.784374 198.65938 37.440624Q197.8625 37.08125 197.47188 36.55Q197.09688 36.01875 196.94063 35.2375Q196.83125 34.721874 196.83125 33.596874L196.83125 27.175L198.58125 27.175L198.58125 32.925Q198.58125 34.3 198.69063 34.784374Q198.8625 35.471874 199.39375 35.878124Q199.94063 36.26875 200.72188 36.26875Q201.51875 36.26875 202.20625 35.8625Q202.90938 35.45625 203.19063 34.76875Q203.4875 34.065624 203.4875 32.7375L203.4875 27.175L205.2375 27.175L205.2375 37.55L203.65938 37.55ZM210.70625 35.971874L210.95625 37.534374Q210.22188 37.690624 209.62813 37.690624Q208.675 37.690624 208.14375 37.39375Q207.62813 37.08125 207.40938 36.596874Q207.19063 36.096874 207.19063 34.51875L207.19063 28.55L205.90938 28.55L205.90938 27.175L207.19063 27.175L207.19063 24.6125L208.94063 23.55L208.94063 27.175L210.70625 27.175L210.70625 28.55L208.94063 28.55L208.94063 34.6125Q208.94063 35.3625 209.03438 35.58125Q209.12813 35.784374 209.33125 35.925Q209.55 36.05 209.94063 36.05Q210.22188 36.05 210.70625 35.971874ZM220.78438 37.55L217.6125 27.175L219.425 27.175L221.08125 33.159374L221.69063 35.39375Q221.7375 35.221874 222.22188 33.253124L223.87813 27.175L225.69063 27.175L227.2375 33.190624L227.75313 35.175L228.34688 33.175L230.12813 27.175L231.83125 27.175L228.59688 37.55L226.76875 37.55L225.1125 31.33125L224.72188 29.565624L222.6125 37.55L220.78438 37.55ZM233.84688 37.55L233.84688 27.175L235.425 27.175L235.425 28.753124Q236.03438 27.64375 236.55 27.3Q237.06563 26.940624 237.675 26.940624Q238.56563 26.940624 239.4875 27.503124L238.87813 29.14375Q238.2375 28.753124 237.59688 28.753124Q237.01875 28.753124 236.55 29.1125Q236.09688 29.45625 235.89375 30.065624Q235.6125 31.003124 235.6125 32.1125L235.6125 37.55L233.84688 37.55ZM244.70625 35.971874L244.95625 37.534374Q244.22188 37.690624 243.62813 37.690624Q242.675 37.690624 242.14375 37.39375Q241.62813 37.08125 241.40938 36.596874Q241.19063 36.096874 241.19063 34.51875L241.19063 28.55L239.90938 28.55L239.90938 27.175L241.19063 27.175L241.19063 24.6125L242.94063 23.55L242.94063 27.175L244.70625 27.175L244.70625 28.55L242.94063 28.55L242.94063 34.6125Q242.94063 35.3625 243.03438 35.58125Q243.12813 35.784374 243.33125 35.925Q243.55 36.05 243.94063 36.05Q244.22188 36.05 244.70625 35.971874ZM256.70624 35.971874L256.95624 37.534374Q256.22186 37.690624 255.62813 37.690624Q254.675 37.690624 254.14375 37.39375Q253.62813 37.08125 253.40938 36.596874Q253.19063 36.096874 253.19063 34.51875L253.19063 28.55L251.90938 28.55L251.90938 27.175L253.19063 27.175L253.19063 24.6125L254.94063 23.55L254.94063 27.175L256.70624 27.175L256.70624 28.55L254.94063 28.55L254.94063 34.6125Q254.94063 35.3625 255.03438 35.58125Q255.12813 35.784374 255.33125 35.925Q255.55 36.05 255.94063 36.05Q256.22186 36.05 256.70624 35.971874ZM258.8625 37.55L258.8625 23.2375L260.6281 23.2375L260.6281 28.3625Q261.8625 26.940624 263.7375 26.940624Q264.8781 26.940624 265.72186 27.39375Q266.58124 27.846874 266.9406 28.659374Q267.3156 29.45625 267.3156 30.971874L267.3156 37.55L265.5656 37.55L265.5656 30.971874Q265.5656 29.659374 264.9875 29.065624Q264.40936 28.45625 263.3781 28.45625Q262.59686 28.45625 261.89374 28.8625Q261.20624 29.26875 260.90936 29.971874Q260.6281 30.659374 260.6281 31.878124L260.6281 37.55L258.8625 37.55ZM275.97186 34.20625L277.78436 34.440624Q277.3625 36.01875 276.1906 36.909374Q275.03436 37.784374 273.22186 37.784374Q270.95624 37.784374 269.6125 36.39375Q268.28436 34.9875 268.28436 32.45625Q268.28436 29.83125 269.6281 28.39375Q270.97186 26.940624 273.1281 26.940624Q275.20624 26.940624 276.51874 28.3625Q277.84686 29.76875 277.84686 32.346874Q277.84686 32.503124 277.83124 32.815624L270.09686 32.815624Q270.1906 34.51875 271.0656 35.425Q271.9406 36.33125 273.2375 36.33125Q274.20624 36.33125 274.8781 35.83125Q275.5656 35.315624 275.97186 34.20625ZM270.1906 31.3625L275.9875 31.3625Q275.8781 30.065624 275.33124 29.409374Q274.4875 28.39375 273.14374 28.39375Q271.9406 28.39375 271.1125 29.20625Q270.28436 30.003124 270.1906 31.3625ZM285.8625 37.55L285.8625 27.175L287.45624 27.175L287.45624 28.659374Q288.59686 26.940624 290.7531 26.940624Q291.6906 26.940624 292.47186 27.284374Q293.26874 27.6125 293.65936 28.159374Q294.05 28.70625 294.20624 29.45625Q294.3 29.95625 294.3 31.175L294.3 37.55L292.53436 37.55L292.53436 31.2375Q292.53436 30.159374 292.33124 29.628124Q292.1281 29.096874 291.59686 28.784374Q291.08124 28.471874 290.3781 28.471874Q289.2531 28.471874 288.4406 29.190624Q287.6281 29.89375 287.6281 31.878124L287.6281 37.55L285.8625 37.55ZM302.65936 37.55L302.65936 36.01875Q301.45624 37.784374 299.3781 37.784374Q298.45624 37.784374 297.65936 37.440624Q296.8625 37.08125 296.47186 36.55Q296.09686 36.01875 295.9406 35.2375Q295.83124 34.721874 295.83124 33.596874L295.83124 27.175L297.58124 27.175L297.58124 32.925Q297.58124 34.3 297.6906 34.784374Q297.8625 35.471874 298.39374 35.878124Q298.9406 36.26875 299.72186 36.26875Q300.51874 36.26875 301.20624 35.8625Q301.90936 35.45625 302.1906 34.76875Q302.4875 34.065624 302.4875 32.7375L302.4875 27.175L304.2375 27.175L304.2375 37.55L302.65936 37.55ZM305.8625 37.55L305.8625 27.175L307.4406 27.175L307.4406 28.628124Q307.925 27.878124 308.7375 27.409374Q309.55 26.940624 310.58124 26.940624Q311.7375 26.940624 312.47186 27.425Q313.20624 27.89375 313.51874 28.753124Q314.7531 26.940624 316.72186 26.940624Q318.26874 26.940624 319.09686 27.8Q319.925 28.659374 319.925 30.425L319.925 37.55L318.175 37.55L318.175 31.01875Q318.175 29.95625 318.0031 29.503124Q317.83124 29.034374 317.3781 28.753124Q316.9406 28.471874 316.33124 28.471874Q315.2375 28.471874 314.5031 29.20625Q313.78436 29.925 313.78436 31.51875L313.78436 37.55L312.03436 37.55L312.03436 30.815624Q312.03436 29.64375 311.59686 29.065624Q311.175 28.471874 310.1906 28.471874Q309.45624 28.471874 308.8156 28.8625Q308.1906 29.253124 307.90936 30.003124Q307.6281 30.753124 307.6281 32.175L307.6281 37.55L305.8625 37.55ZM323.4875 37.55L321.8625 37.55L321.8625 23.2375L323.6125 23.2375L323.6125 28.346874Q324.7375 26.940624 326.45624 26.940624Q327.40936 26.940624 328.26874 27.33125Q329.1281 27.721874 329.675 28.425Q330.22186 29.1125 330.53436 30.096874Q330.84686 31.08125 330.84686 32.20625Q330.84686 34.878124 329.53436 36.33125Q328.22186 37.784374 326.3781 37.784374Q324.53436 37.784374 323.4875 36.253124L323.4875 37.55ZM323.47186 32.284374Q323.47186 34.14375 323.97186 34.9875Q324.8156 36.33125 326.22186 36.33125Q327.3781 36.33125 328.20624 35.33125Q329.05 34.33125 329.05 32.346874Q329.05 30.315624 328.2375 29.3625Q327.4406 28.39375 326.3 28.39375Q325.14374 28.39375 324.3 29.39375Q323.47186 30.39375 323.47186 32.284374ZM339.97186 34.20625L341.78436 34.440624Q341.3625 36.01875 340.1906 36.909374Q339.03436 37.784374 337.22186 37.784374Q334.95624 37.784374 333.6125 36.39375Q332.28436 34.9875 332.28436 32.45625Q332.28436 29.83125 333.6281 28.39375Q334.97186 26.940624 337.1281 26.940624Q339.20624 26.940624 340.51874 28.3625Q341.84686 29.76875 341.84686 32.346874Q341.84686 32.503124 341.83124 32.815624L334.09686 32.815624Q334.1906 34.51875 335.0656 35.425Q335.9406 36.33125 337.2375 36.33125Q338.20624 36.33125 338.8781 35.83125Q339.5656 35.315624 339.97186 34.20625ZM334.1906 31.3625L339.9875 31.3625Q339.8781 30.065624 339.33124 29.409374Q338.4875 28.39375 337.14374 28.39375Q335.9406 28.39375 335.1125 29.20625Q334.28436 30.003124 334.1906 31.3625ZM343.84686 37.55L343.84686 27.175L345.425 27.175L345.425 28.753124Q346.03436 27.64375 346.55 27.3Q347.0656 26.940624 347.675 26.940624Q348.5656 26.940624 349.4875 27.503124L348.8781 29.14375Q348.2375 28.753124 347.59686 28.753124Q347.01874 28.753124 346.55 29.1125Q346.09686 29.45625 345.89374 30.065624Q345.6125 31.003124 345.6125 32.1125L345.6125 37.55L343.84686 37.55ZM356.22186 32.3625Q356.22186 29.4875 357.8156 28.096874Q359.15936 26.940624 361.08124 26.940624Q363.22186 26.940624 364.5656 28.346874Q365.925 29.753124 365.925 32.221874Q365.925 34.221874 365.33124 35.378124Q364.7375 36.51875 363.58124 37.159374Q362.4406 37.784374 361.08124 37.784374Q358.89374 37.784374 357.55 36.39375Q356.22186 34.9875 356.22186 32.3625ZM358.01874 32.3625Q358.01874 34.3625 358.8781 35.346874Q359.7531 36.33125 361.08124 36.33125Q362.39374 36.33125 363.2531 35.346874Q364.1281 34.346874 364.1281 32.3Q364.1281 30.378124 363.2531 29.39375Q362.3781 28.39375 361.08124 28.39375Q359.7531 28.39375 358.8781 29.39375Q358.01874 30.378124 358.01874 32.3625ZM368.28436 37.55L368.28436 28.55L366.7375 28.55L366.7375 27.175L368.28436 27.175L368.28436 26.08125Q368.28436 25.034374 368.47186 24.51875Q368.72186 23.83125 369.3625 23.409374Q370.0031 22.9875 371.15936 22.9875Q371.90936 22.9875 372.8 23.159374L372.53436 24.690624Q371.9875 24.596874 371.5031 24.596874Q370.70624 24.596874 370.3625 24.940624Q370.03436 25.284374 370.03436 26.221874L370.03436 27.175L372.0656 27.175L372.0656 28.55L370.03436 28.55L370.03436 37.55L368.28436 37.55ZM379.15936 34.45625L380.90936 34.175Q381.05 35.221874 381.72186 35.784374Q382.39374 36.33125 383.59686 36.33125Q384.8 36.33125 385.3781 35.846874Q385.97186 35.346874 385.97186 34.690624Q385.97186 34.096874 385.45624 33.753124Q385.09686 33.51875 383.65936 33.159374Q381.72186 32.659374 380.97186 32.315624Q380.2375 31.95625 379.84686 31.33125Q379.45624 30.690624 379.45624 29.925Q379.45624 29.2375 379.76874 28.64375Q380.09686 28.05 380.64374 27.659374Q381.05 27.3625 381.7531 27.159374Q382.47186 26.940624 383.28436 26.940624Q384.5031 26.940624 385.425 27.3Q386.34686 27.64375 386.78436 28.253124Q387.22186 28.846874 387.39374 29.846874L385.675 30.08125Q385.55 29.284374 384.9875 28.846874Q384.425 28.39375 383.40936 28.39375Q382.1906 28.39375 381.675 28.8Q381.15936 29.190624 381.15936 29.721874Q381.15936 30.065624 381.3781 30.346874Q381.58124 30.628124 382.05 30.815624Q382.3156 30.909374 383.59686 31.253124Q385.47186 31.753124 386.20624 32.08125Q386.9406 32.39375 387.3625 33.003124Q387.78436 33.596874 387.78436 34.503124Q387.78436 35.378124 387.26874 36.159374Q386.7531 36.940624 385.78436 37.3625Q384.8156 37.784374 383.59686 37.784374Q381.58124 37.784374 380.51874 36.940624Q379.45624 36.096874 379.15936 34.45625ZM393.70624 35.971874L393.95624 37.534374Q393.22186 37.690624 392.6281 37.690624Q391.675 37.690624 391.14374 37.39375Q390.6281 37.08125 390.40936 36.596874Q390.1906 36.096874 390.1906 34.51875L390.1906 28.55L388.90936 28.55L388.90936 27.175L390.1906 27.175L390.1906 24.6125L391.9406 23.55L391.9406 27.175L393.70624 27.175L393.70624 28.55L391.9406 28.55L391.9406 34.6125Q391.9406 35.3625 392.03436 35.58125Q392.1281 35.784374 392.33124 35.925Q392.55 36.05 392.9406 36.05Q393.22186 36.05 393.70624 35.971874ZM402.64374 36.26875Q401.65936 37.096874 400.7531 37.440624Q399.84686 37.784374 398.8156 37.784374Q397.1125 37.784374 396.1906 36.95625Q395.26874 36.1125 395.26874 34.815624Q395.26874 34.05 395.6125 33.425Q395.97186 32.8 396.53436 32.425Q397.09686 32.034374 397.8 31.83125Q398.3156 31.70625 399.3625 31.565624Q401.4875 31.315624 402.4875 30.971874Q402.5031 30.6125 402.5031 30.503124Q402.5031 29.440624 402.0031 28.9875Q401.33124 28.39375 400.0031 28.39375Q398.7531 28.39375 398.15936 28.83125Q397.58124 29.26875 397.3 30.378124L395.58124 30.14375Q395.8156 29.034374 396.34686 28.3625Q396.8781 27.675 397.89374 27.315624Q398.90936 26.940624 400.2531 26.940624Q401.58124 26.940624 402.40936 27.253124Q403.2375 27.565624 403.6281 28.05Q404.01874 28.51875 404.175 29.2375Q404.26874 29.690624 404.26874 30.8625L404.26874 33.20625Q404.26874 35.659374 404.3781 36.315624Q404.4875 36.95625 404.83124 37.55L402.9875 37.55Q402.72186 37.003124 402.64374 36.26875ZM402.4875 32.346874Q401.53436 32.7375 399.6125 33.003124Q398.53436 33.159374 398.08124 33.3625Q397.64374 33.55 397.39374 33.925Q397.14374 34.3 397.14374 34.76875Q397.14374 35.471874 397.675 35.940624Q398.20624 36.409374 399.2375 36.409374Q400.2531 36.409374 401.03436 35.971874Q401.83124 35.51875 402.20624 34.753124Q402.4875 34.14375 402.4875 32.9875L402.4875 32.346874ZM410.70624 35.971874L410.95624 37.534374Q410.22186 37.690624 409.6281 37.690624Q408.675 37.690624 408.14374 37.39375Q407.6281 37.08125 407.40936 36.596874Q407.1906 36.096874 407.1906 34.51875L407.1906 28.55L405.90936 28.55L405.90936 27.175L407.1906 27.175L407.1906 24.6125L408.9406 23.55L408.9406 27.175L410.70624 27.175L410.70624 28.55L408.9406 28.55L408.9406 34.6125Q408.9406 35.3625 409.03436 35.58125Q409.1281 35.784374 409.33124 35.925Q409.55 36.05 409.9406 36.05Q410.22186 36.05 410.70624 35.971874ZM412.8781 25.253124L412.8781 23.2375L414.64374 23.2375L414.64374 25.253124L412.8781 25.253124ZM412.8781 37.55L412.8781 27.175L414.64374 27.175L414.64374 37.55L412.8781 37.55ZM416.22186 32.3625Q416.22186 29.4875 417.8156 28.096874Q419.15936 26.940624 421.08124 26.940624Q423.22186 26.940624 424.5656 28.346874Q425.925 29.753124 425.925 32.221874Q425.925 34.221874 425.33124 35.378124Q424.7375 36.51875 423.58124 37.159374Q422.4406 37.784374 421.08124 37.784374Q418.89374 37.784374 417.55 36.39375Q416.22186 34.9875 416.22186 32.3625ZM418.01874 32.3625Q418.01874 34.3625 418.8781 35.346874Q419.7531 36.33125 421.08124 36.33125Q422.39374 36.33125 423.2531 35.346874Q424.1281 34.346874 424.1281 32.3Q424.1281 30.378124 423.2531 29.39375Q422.3781 28.39375 421.08124 28.39375Q419.7531 28.39375 418.8781 29.39375Q418.01874 30.378124 418.01874 32.3625ZM427.8625 37.55L427.8625 27.175L429.45624 27.175L429.45624 28.659374Q430.59686 26.940624 432.7531 26.940624Q433.6906 26.940624 434.47186 27.284374Q435.26874 27.6125 435.65936 28.159374Q436.05 28.70625 436.20624 29.45625Q436.3 29.95625 436.3 31.175L436.3 37.55L434.53436 37.55L434.53436 31.2375Q434.53436 30.159374 434.33124 29.628124Q434.1281 29.096874 433.59686 28.784374Q433.08124 28.471874 432.3781 28.471874Q431.2531 28.471874 430.4406 29.190624Q429.6281 29.89375 429.6281 31.878124L429.6281 37.55L427.8625 37.55ZM437.15936 34.45625L438.90936 34.175Q439.05 35.221874 439.72186 35.784374Q440.39374 36.33125 441.59686 36.33125Q442.8 36.33125 443.3781 35.846874Q443.97186 35.346874 443.97186 34.690624Q443.97186 34.096874 443.45624 33.753124Q443.09686 33.51875 441.65936 33.159374Q439.72186 32.659374 438.97186 32.315624Q438.2375 31.95625 437.84686 31.33125Q437.45624 30.690624 437.45624 29.925Q437.45624 29.2375 437.76874 28.64375Q438.09686 28.05 438.64374 27.659374Q439.05 27.3625 439.7531 27.159374Q440.47186 26.940624 441.28436 26.940624Q442.5031 26.940624 443.425 27.3Q444.34686 27.64375 444.78436 28.253124Q445.22186 28.846874 445.39374 29.846874L443.675 30.08125Q443.55 29.284374 442.9875 28.846874Q442.425 28.39375 441.40936 28.39375Q440.1906 28.39375 439.675 28.8Q439.15936 29.190624 439.15936 29.721874Q439.15936 30.065624 439.3781 30.346874Q439.58124 30.628124 440.05 30.815624Q440.3156 30.909374 441.59686 31.253124Q443.47186 31.753124 444.20624 32.08125Q444.9406 32.39375 445.3625 33.003124Q445.78436 33.596874 445.78436 34.503124Q445.78436 35.378124 445.26874 36.159374Q444.7531 36.940624 443.78436 37.3625Q442.8156 37.784374 441.59686 37.784374Q439.58124 37.784374 438.51874 36.940624Q437.45624 36.096874 437.15936 34.45625ZM457.22186 41.753124Q455.76874 39.925 454.76874 37.471874Q453.76874 35.003124 453.76874 32.3625Q453.76874 30.034374 454.51874 27.909374Q455.39374 25.440624 457.22186 22.9875L458.4875 22.9875Q457.3 25.01875 456.925 25.89375Q456.33124 27.2375 455.9875 28.70625Q455.5656 30.534374 455.5656 32.378124Q455.5656 37.065624 458.4875 41.753124L457.22186 41.753124ZM467.0031 37.55L465.2375 37.55L465.2375 26.346874Q464.6125 26.95625 463.58124 27.565624Q462.55 28.159374 461.72186 28.471874L461.72186 26.76875Q463.20624 26.08125 464.3 25.096874Q465.40936 24.096874 465.8625 23.175L467.0031 23.175L467.0031 37.55ZM480.6125 35.8625L480.6125 37.55L471.15936 37.55Q471.14374 36.909374 471.3625 36.33125Q471.72186 35.3625 472.51874 34.425Q473.3156 33.4875 474.8156 32.253124Q477.15936 30.346874 477.97186 29.2375Q478.8 28.1125 478.8 27.1125Q478.8 26.065624 478.05 25.346874Q477.3 24.628124 476.09686 24.628124Q474.83124 24.628124 474.0656 25.39375Q473.3 26.159374 473.3 27.503124L471.4875 27.315624Q471.675 25.3 472.8781 24.2375Q474.09686 23.175 476.14374 23.175Q478.1906 23.175 479.39374 24.315624Q480.59686 25.45625 480.59686 27.14375Q480.59686 28.003124 480.2375 28.846874Q479.89374 29.675 479.08124 30.596874Q478.26874 31.503124 476.3781 33.1125Q474.78436 34.440624 474.33124 34.909374Q473.89374 35.378124 473.59686 35.8625L480.6125 35.8625ZM482.3781 30.4875Q482.3781 27.95625 482.89374 26.409374Q483.425 24.846874 484.45624 24.01875Q485.4875 23.175 487.05 23.175Q488.20624 23.175 489.0656 23.64375Q489.9406 24.096874 490.5031 24.971874Q491.0656 25.846874 491.39374 27.1125Q491.72186 28.3625 491.72186 30.4875Q491.72186 33.003124 491.1906 34.55Q490.675 36.096874 489.64374 36.95625Q488.6281 37.8 487.05 37.8Q484.97186 37.8 483.8 36.315624Q482.3781 34.51875 482.3781 30.4875ZM484.1906 30.4875Q484.1906 34.01875 485.0031 35.190624Q485.83124 36.346874 487.05 36.346874Q488.2531 36.346874 489.08124 35.175Q489.90936 34.003124 489.90936 30.4875Q489.90936 26.95625 489.08124 25.8Q488.2531 24.628124 487.03436 24.628124Q485.8156 24.628124 485.09686 25.659374Q484.1906 26.95625 484.1906 30.4875ZM493.3781 30.4875Q493.3781 27.95625 493.89374 26.409374Q494.425 24.846874 495.45624 24.01875Q496.4875 23.175 498.05 23.175Q499.20624 23.175 500.0656 23.64375Q500.9406 24.096874 501.5031 24.971874Q502.0656 25.846874 502.39374 27.1125Q502.72186 28.3625 502.72186 30.4875Q502.72186 33.003124 502.1906 34.55Q501.675 36.096874 500.64374 36.95625Q499.6281 37.8 498.05 37.8Q495.97186 37.8 494.8 36.315624Q493.3781 34.51875 493.3781 30.4875ZM495.1906 30.4875Q495.1906 34.01875 496.0031 35.190624Q496.83124 36.346874 498.05 36.346874Q499.2531 36.346874 500.08124 35.175Q500.90936 34.003124 500.90936 30.4875Q500.90936 26.95625 500.08124 25.8Q499.2531 24.628124 498.03436 24.628124Q496.8156 24.628124 496.09686 25.659374Q495.1906 26.95625 495.1906 30.4875ZM505.01874 37.55L505.01874 23.2375L510.39374 23.2375Q512.03436 23.2375 513.01874 23.675Q514.0031 24.096874 514.5656 25.003124Q515.1281 25.909374 515.1281 26.89375Q515.1281 27.815624 514.6281 28.628124Q514.14374 29.440624 513.1281 29.925Q514.425 30.315624 515.1281 31.2375Q515.83124 32.14375 515.83124 33.39375Q515.83124 34.409374 515.39374 35.26875Q514.97186 36.128124 514.34686 36.596874Q513.72186 37.065624 512.78436 37.315624Q511.84686 37.55 510.47186 37.55L505.01874 37.55ZM506.90936 29.253124L510.0031 29.253124Q511.26874 29.253124 511.8156 29.08125Q512.53436 28.8625 512.89374 28.378124Q513.26874 27.878124 513.26874 27.1125Q513.26874 26.409374 512.925 25.8625Q512.58124 25.315624 511.9406 25.128124Q511.3156 24.925 509.76874 24.925L506.90936 24.925L506.90936 29.253124ZM506.90936 35.8625L510.47186 35.8625Q511.39374 35.8625 511.76874 35.784374Q512.425 35.675 512.8625 35.409374Q513.3 35.128124 513.58124 34.6125Q513.8625 34.08125 513.8625 33.39375Q513.8625 32.596874 513.45624 32.003124Q513.05 31.409374 512.3156 31.175Q511.58124 30.940624 510.22186 30.940624L506.90936 30.940624L506.90936 35.8625ZM523.8625 41.51875L523.8625 27.175L525.47186 27.175L525.47186 28.51875Q526.03436 27.7375 526.7375 27.346874Q527.45624 26.940624 528.47186 26.940624Q529.8 26.940624 530.8156 27.628124Q531.83124 28.315624 532.34686 29.565624Q532.8781 30.8 532.8781 32.284374Q532.8781 33.878124 532.3 35.159374Q531.7375 36.425 530.64374 37.1125Q529.55 37.784374 528.34686 37.784374Q527.47186 37.784374 526.76874 37.409374Q526.08124 37.034374 525.6281 36.471874L525.6281 41.51875L523.8625 41.51875ZM525.45624 32.425Q525.45624 34.425 526.26874 35.378124Q527.08124 36.33125 528.2375 36.33125Q529.40936 36.33125 530.2375 35.346874Q531.08124 34.3625 531.08124 32.26875Q531.08124 30.3 530.2531 29.315624Q529.4406 28.315624 528.3156 28.315624Q527.1906 28.315624 526.3156 29.378124Q525.45624 30.425 525.45624 32.425ZM541.64374 36.26875Q540.65936 37.096874 539.7531 37.440624Q538.84686 37.784374 537.8156 37.784374Q536.1125 37.784374 535.1906 36.95625Q534.26874 36.1125 534.26874 34.815624Q534.26874 34.05 534.6125 33.425Q534.97186 32.8 535.53436 32.425Q536.09686 32.034374 536.8 31.83125Q537.3156 31.70625 538.3625 31.565624Q540.4875 31.315624 541.4875 30.971874Q541.5031 30.6125 541.5031 30.503124Q541.5031 29.440624 541.0031 28.9875Q540.33124 28.39375 539.0031 28.39375Q537.7531 28.39375 537.15936 28.83125Q536.58124 29.26875 536.3 30.378124L534.58124 30.14375Q534.8156 29.034374 535.34686 28.3625Q535.8781 27.675 536.89374 27.315624Q537.90936 26.940624 539.2531 26.940624Q540.58124 26.940624 541.40936 27.253124Q542.2375 27.565624 542.6281 28.05Q543.01874 28.51875 543.175 29.2375Q543.26874 29.690624 543.26874 30.8625L543.26874 33.20625Q543.26874 35.659374 543.3781 36.315624Q543.4875 36.95625 543.83124 37.55L541.9875 37.55Q541.72186 37.003124 541.64374 36.26875ZM541.4875 32.346874Q540.53436 32.7375 538.6125 33.003124Q537.53436 33.159374 537.08124 33.3625Q536.64374 33.55 536.39374 33.925Q536.14374 34.3 536.14374 34.76875Q536.14374 35.471874 536.675 35.940624Q537.20624 36.409374 538.2375 36.409374Q539.2531 36.409374 540.03436 35.971874Q540.83124 35.51875 541.20624 34.753124Q541.4875 34.14375 541.4875 32.9875L541.4875 32.346874ZM545.78436 41.55L545.59686 39.89375Q546.175 40.05 546.59686 40.05Q547.1906 40.05 547.53436 39.846874Q547.89374 39.659374 548.1125 39.315624Q548.28436 39.05 548.65936 38.003124Q548.70624 37.846874 548.8156 37.565624L544.8781 27.175L546.76874 27.175L548.925 33.190624Q549.34686 34.33125 549.675 35.58125Q549.9875 34.378124 550.39374 33.221874L552.6125 27.175L554.3781 27.175L550.425 37.721874Q549.8 39.440624 549.4406 40.08125Q548.97186 40.95625 548.3625 41.346874Q547.76874 41.753124 546.925 41.753124Q546.40936 41.753124 545.78436 41.55ZM555.83124 37.55L555.83124 23.2375L557.58124 23.2375L557.58124 37.55L555.83124 37.55ZM559.22186 32.3625Q559.22186 29.4875 560.8156 28.096874Q562.15936 26.940624 564.08124 26.940624Q566.22186 26.940624 567.5656 28.346874Q568.925 29.753124 568.925 32.221874Q568.925 34.221874 568.33124 35.378124Q567.7375 36.51875 566.58124 37.159374Q565.4406 37.784374 564.08124 37.784374Q561.89374 37.784374 560.55 36.39375Q559.22186 34.9875 559.22186 32.3625ZM561.01874 32.3625Q561.01874 34.3625 561.8781 35.346874Q562.7531 36.33125 564.08124 36.33125Q565.39374 36.33125 566.2531 35.346874Q567.1281 34.346874 567.1281 32.3Q567.1281 30.378124 566.2531 29.39375Q565.3781 28.39375 564.08124 28.39375Q562.7531 28.39375 561.8781 29.39375Q561.01874 30.378124 561.01874 32.3625ZM577.64374 36.26875Q576.65936 37.096874 575.7531 37.440624Q574.84686 37.784374 573.8156 37.784374Q572.1125 37.784374 571.1906 36.95625Q570.26874 36.1125 570.26874 34.815624Q570.26874 34.05 570.6125 33.425Q570.97186 32.8 571.53436 32.425Q572.09686 32.034374 572.8 31.83125Q573.3156 31.70625 574.3625 31.565624Q576.4875 31.315624 577.4875 30.971874Q577.5031 30.6125 577.5031 30.503124Q577.5031 29.440624 577.0031 28.9875Q576.33124 28.39375 575.0031 28.39375Q573.7531 28.39375 573.15936 28.83125Q572.58124 29.26875 572.3 30.378124L570.58124 30.14375Q570.8156 29.034374 571.34686 28.3625Q571.8781 27.675 572.89374 27.315624Q573.90936 26.940624 575.2531 26.940624Q576.58124 26.940624 577.40936 27.253124Q578.2375 27.565624 578.6281 28.05Q579.01874 28.51875 579.175 29.2375Q579.26874 29.690624 579.26874 30.8625L579.26874 33.20625Q579.26874 35.659374 579.3781 36.315624Q579.4875 36.95625 579.83124 37.55L577.9875 37.55Q577.72186 37.003124 577.64374 36.26875ZM577.4875 32.346874Q576.53436 32.7375 574.6125 33.003124Q573.53436 33.159374 573.08124 33.3625Q572.64374 33.55 572.39374 33.925Q572.14374 34.3 572.14374 34.76875Q572.14374 35.471874 572.675 35.940624Q573.20624 36.409374 574.2375 36.409374Q575.2531 36.409374 576.03436 35.971874Q576.83124 35.51875 577.20624 34.753124Q577.4875 34.14375 577.4875 32.9875L577.4875 32.346874ZM588.59686 37.55L588.59686 36.2375Q587.6125 37.784374 585.6906 37.784374Q584.45624 37.784374 583.40936 37.096874Q582.3781 36.409374 581.8 35.190624Q581.2375 33.971874 581.2375 32.378124Q581.2375 30.815624 581.7531 29.55Q582.26874 28.284374 583.3 27.6125Q584.34686 26.940624 585.6125 26.940624Q586.55 26.940624 587.28436 27.346874Q588.01874 27.7375 588.4875 28.3625L588.4875 23.2375L590.22186 23.2375L590.22186 37.55L588.59686 37.55ZM583.03436 32.378124Q583.03436 34.3625 583.8781 35.346874Q584.72186 36.33125 585.8625 36.33125Q587.01874 36.33125 587.8156 35.39375Q588.6281 34.45625 588.6281 32.51875Q588.6281 30.39375 587.8 29.39375Q586.9875 28.39375 585.78436 28.39375Q584.6125 28.39375 583.8156 29.3625Q583.03436 30.315624 583.03436 32.378124ZM594.01874 41.753124L592.76874 41.753124Q595.675 37.065624 595.675 32.378124Q595.675 30.534374 595.26874 28.7375Q594.925 27.26875 594.33124 25.925Q593.95624 25.034374 592.76874 22.9875L594.01874 22.9875Q595.8625 25.440624 596.7375 27.909374Q597.4875 30.034374 597.4875 32.3625Q597.4875 35.003124 596.47186 37.471874Q595.47186 39.925 594.01874 41.753124Z" fill-rule="nonzero"/></svg>